<?xml version="1.0" standalone="no"?><!DOCTYPE svg PUBLIC "-//W3C//DTD SVG 1.1//EN" "http://www.w3.org/Graphics/SVG/1.1/DTD/svg11.dtd"><svg width="100" height="100" version="1.1" xmlns="http://www.w3.org/2000/svg" xmlns:xlink="http://www.w3.org/1999/xlink"><defs xmlns="http://www.w3.org/1999/xhtml"><style type="text/css"><![CDATA[
#playPause { width: 100px; height: 50px; text-align: center; display: block; margin: 20px auto 0px; cursor: pointer; }]]></style></defs><path stroke-width="1" fill="none" stroke="#999999" stroke-dasharray="none" font-family="Arial" font-size="10pt" font-weight="normal" font-style="normal" d="M0 40L100 40"/><path stroke-width="1" fill="none" stroke="#999999" stroke-dasharray="none" font-family="Arial" font-size="10pt" font-weight="normal" font-style="normal" d="M0 50L100 50"/><path stroke-width="1" fill="none" stroke="#999999" stroke-dasharray="none" font-family="Arial" font-size="10pt" font-weight="normal" font-style="normal" d="M0 60L100 60"/><path stroke-width="1" fill="none" stroke="#999999" stroke-dasharray="none" font-family="Arial" font-size="10pt" font-weight="normal" font-style="normal" d="M0 70L100 70"/><path stroke-width="1" fill="none" stroke="#999999" stroke-dasharray="none" font-family="Arial" font-size="10pt" font-weight="normal" font-style="normal" d="M0 80L100 80"/><path stroke-width="1" fill="none" stroke="#999999" stroke-dasharray="none" font-family="Arial" font-size="10pt" font-weight="normal" font-style="normal" x="100" y="39.5" width="1" height="41" d="M14 90L32.01824 90"/><g class="vf-stavenote" id="vf-auto1268"><g class="vf-note" pointer-events="bounding-box"><g class="vf-stem" pointer-events="bounding-box"><path stroke-width="1.5" fill="none" stroke="black" stroke-dasharray="none" font-family="Arial" font-size="10pt" font-weight="normal" font-style="normal" x="100" y="39.5" width="1" height="41" d="M28.26824 90L28.26824 35"/></g><g class="vf-notehead" pointer-events="bounding-box"><path stroke-width="0.3" fill="black" stroke="none" stroke-dasharray="none" font-family="Arial" font-size="10pt" font-weight="normal" font-style="normal" x="100" y="39.5" width="1" height="41" d="M17 90M24.35696 84.77712C24.46928 84.77712,24.63776 84.77712,24.66584 84.77712C24.66584 84.77712,24.69392 84.77712,24.69392 84.77712C24.69392 84.77712,24.8624 84.77712,25.0028 84.77712C27.53 84.91752,29.01824 86.57424,29.01824 88.65216C29.01824 89.66304,28.68128 90.81432,27.83888 91.90944C26.23832 94.0716,23.62688 95.25096,21.3524 95.25096C19.58336 95.25096,18.06704 94.54896,17.33696 93.11688C17.11232 92.55528,17 92.02176,17 91.43208C17 88.37136,20.42576 84.97368,24.35696 84.77712"/></g><g class="vf-notehead" pointer-events="bounding-box"><path stroke-width="0.3" fill="black" stroke="none" stroke-dasharray="none" font-family="Arial" font-size="10pt" font-weight="normal" font-style="normal" x="100" y="39.5" width="1" height="41" d="M17 70M24.35696 64.77712C24.46928 64.77712,24.63776 64.77712,24.66584 64.77712C24.66584 64.77712,24.69392 64.77712,24.69392 64.77712C24.69392 64.77712,24.8624 64.77712,25.0028 64.77712C27.53 64.91752,29.01824 66.57424,29.01824 68.65216C29.01824 69.66304,28.68128 70.81432,27.83888 71.90944C26.23832 74.0716,23.62688 75.25096,21.3524 75.25096C19.58336 75.25096,18.06704 74.54896,17.33696 73.11688C17.11232 72.55528,17 72.02176,17 71.43208C17 68.37136,20.42576 64.97368,24.35696 64.77712"/></g><g class="vf-flag" pointer-events="bounding-box"><path stroke-width="0.3" fill="black" stroke="none" stroke-dasharray="none" font-family="Arial" font-size="10pt" font-weight="normal" font-style="normal" x="100" y="39.5" width="1" height="41" d="M28.26824 33M27.59432 37.52088L27.59432 33.1404L27.70664 33.1404C28.01552 33.1404,28.21208 33.33696,28.26824 33.67392C28.85792 36.48192,30.626959999999997 39.54264,33.069919999999996 41.8452C35.79368 44.40048,37.1696 47.91048,37.1696 51.5328C37.1696 54.958560000000006,35.96216 58.52472,33.5192 61.47312C33.098 62.03472,33.069919999999996 62.03472,32.78912 62.03472C32.45216 62.03472,32.22752 61.782,32.22752 61.445040000000006C32.22752 61.19232,32.2556 61.136160000000004,32.5364 60.82728C34.67048 58.24392,35.737519999999996 55.12704,35.737519999999996 52.15056C35.737519999999996 49.51104,34.89512 46.98384,33.15416 45.0744C32.08712 43.89504,30.12152 42.77184,27.6224 41.90136C27.6224 41.87328,27.59432 41.0028,27.59432 37.52088"/></g></g><g class="vf-modifiers"/></g><g class="vf-stavenote" id="vf-auto1279"><g class="vf-note" pointer-events="bounding-box"><g class="vf-notehead" pointer-events="bounding-box"><path stroke-width="0.3" fill="black" stroke="none" stroke-dasharray="none" font-family="Arial" font-size="10pt" font-weight="normal" font-style="normal" x="100" y="39.5" width="1" height="41" d="M65.61828 80M68.08932 71.51984C68.22972 71.51984,68.37012 71.49176,68.51052 71.49176C69.8022 71.49176,70.98156 72.4184,71.29044 73.71008C71.3466 73.93472,71.37468 74.15935999999999,71.37468 74.41208C71.37468 75.14216,71.12196 75.87224,70.61652 76.37768L70.53228 76.46192L70.72884 76.43384C72.24516 76.01264,73.593 74.6648,74.23884 73.00808C74.26692 72.86768000000001,74.35116 72.75536,74.40732 72.72728C74.51964 72.5588,74.68812 72.50264,74.8566 72.50264C75.16548 72.50264,75.4182 72.72728,75.4182 73.06424C75.4182 73.20464,71.3466 87.24464,71.26236 87.38504C71.15004 87.5816,70.95348 87.66584,70.72884 87.66584C70.5042 87.66584,70.27956 87.55352,70.19532 87.3008C70.13916 87.27272,70.13916 87.24464,70.13916 87.18848C70.13916 86.96384,70.39188 86.1776,71.71164 81.65672C72.55404 78.79256,73.25604 76.43384,73.25604 76.37768C73.25604 76.37768,73.25604 76.37768,73.25604 76.37768C73.25604 76.37768,73.14372 76.46192,73.0314 76.57424C71.99244 77.36048,70.75692 77.7536,69.54948 77.7536C68.48244 77.7536,67.44348 77.44472,66.62916 76.7708C65.89908 76.18111999999999,65.61828 75.3668,65.61828 74.55248C65.61828 73.14848,66.51684 71.80064,68.08932 71.51984"/></g></g><g class="vf-modifiers"/></g></svg>