<?xml version="1.0" standalone="no"?><!DOCTYPE svg PUBLIC "-//W3C//DTD SVG 1.1//EN" "http://www.w3.org/Graphics/SVG/1.1/DTD/svg11.dtd"><svg width="100" height="100" version="1.1" xmlns="http://www.w3.org/2000/svg" xmlns:xlink="http://www.w3.org/1999/xlink"><defs xmlns="http://www.w3.org/1999/xhtml"><style type="text/css"><![CDATA[
#playPause { width: 100px; height: 50px; text-align: center; display: block; margin: 20px auto 0px; cursor: pointer; }]]></style></defs><path stroke-width="1" fill="none" stroke="#999999" stroke-dasharray="none" font-family="Arial" font-size="10pt" font-weight="normal" font-style="normal" d="M0 40L100 40"/><path stroke-width="1" fill="none" stroke="#999999" stroke-dasharray="none" font-family="Arial" font-size="10pt" font-weight="normal" font-style="normal" d="M0 50L100 50"/><path stroke-width="1" fill="none" stroke="#999999" stroke-dasharray="none" font-family="Arial" font-size="10pt" font-weight="normal" font-style="normal" d="M0 60L100 60"/><path stroke-width="1" fill="none" stroke="#999999" stroke-dasharray="none" font-family="Arial" font-size="10pt" font-weight="normal" font-style="normal" d="M0 70L100 70"/><path stroke-width="1" fill="none" stroke="#999999" stroke-dasharray="none" font-family="Arial" font-size="10pt" font-weight="normal" font-style="normal" d="M0 80L100 80"/><path stroke-width="1" fill="none" stroke="#999999" stroke-dasharray="none" font-family="Arial" font-size="10pt" font-weight="normal" font-style="normal" x="100" y="39.5" width="1" height="41" d="M14 90L32.01824 90"/><g class="vf-stavenote" id="vf-auto1268"><g class="vf-note" pointer-events="bounding-box"><g class="vf-notehead" pointer-events="bounding-box"><path stroke-width="0.3" fill="black" stroke="none" stroke-dasharray="none" font-family="Arial" font-size="10pt" font-weight="normal" font-style="normal" x="100" y="39.5" width="1" height="41" d="M17 90M24.35696 84.77712C24.46928 84.77712,24.63776 84.77712,24.66584 84.77712C24.66584 84.77712,24.69392 84.77712,24.69392 84.77712C24.69392 84.77712,24.8624 84.77712,25.0028 84.77712C27.53 84.91752,29.01824 86.57424,29.01824 88.65216C29.01824 89.66304,28.68128 90.81432,27.83888 91.90944C26.23832 94.0716,23.62688 95.25096,21.3524 95.25096C19.58336 95.25096,18.06704 94.54896,17.33696 93.11688C17.11232 92.55528,17 92.02176,17 91.43208C17 88.37136,20.42576 84.97368,24.35696 84.77712"/></g><g class="vf-notehead" pointer-events="bounding-box"><path stroke-width="0.3" fill="black" stroke="none" stroke-dasharray="none" font-family="Arial" font-size="10pt" font-weight="normal" font-style="normal" x="100" y="39.5" width="1" height="41" d="M17 70M24.35696 64.77712C24.46928 64.77712,24.63776 64.77712,24.66584 64.77712C24.66584 64.77712,24.69392 64.77712,24.69392 64.77712C24.69392 64.77712,24.8624 64.77712,25.0028 64.77712C27.53 64.91752,29.01824 66.57424,29.01824 68.65216C29.01824 69.66304,28.68128 70.81432,27.83888 71.90944C26.23832 74.0716,23.62688 75.25096,21.3524 75.25096C19.58336 75.25096,18.06704 74.54896,17.33696 73.11688C17.11232 72.55528,17 72.02176,17 71.43208C17 68.37136,20.42576 64.97368,24.35696 64.77712"/></g></g><g class="vf-modifiers"/></g><path stroke-width="1" fill="none" stroke="#999999" stroke-dasharray="none" font-family="Arial" font-size="10pt" font-weight="normal" font-style="normal" x="100" y="39.5" width="1" height="41" d="M34.59556 90L52.6138 90"/><g class="vf-stavenote" id="vf-auto1279"><g class="vf-note" pointer-events="bounding-box"><g class="vf-notehead" pointer-events="bounding-box"><path stroke-width="0.3" fill="black" stroke="none" stroke-dasharray="none" font-family="Arial" font-size="10pt" font-weight="normal" font-style="normal" x="100" y="39.5" width="1" height="41" d="M37.59556 90M44.95252 84.77712C45.06484 84.77712,45.23332 84.77712,45.2614 84.77712C45.2614 84.77712,45.28948 84.77712,45.28948 84.77712C45.28948 84.77712,45.45796 84.77712,45.59836 84.77712C48.12556 84.91752,49.6138 86.57424,49.6138 88.65216C49.6138 89.66304,49.27684 90.81432,48.434439999999995 91.90944C46.83388 94.0716,44.22244 95.25096,41.94796 95.25096C40.17892 95.25096,38.6626 94.54896,37.93252 93.11688C37.707879999999996 92.55528,37.59556 92.02176,37.59556 91.43208C37.59556 88.37136,41.021319999999996 84.97368,44.95252 84.77712"/></g><g class="vf-notehead" pointer-events="bounding-box"><path stroke-width="0.3" fill="black" stroke="none" stroke-dasharray="none" font-family="Arial" font-size="10pt" font-weight="normal" font-style="normal" x="100" y="39.5" width="1" height="41" d="M37.59556 70M44.95252 64.77712C45.06484 64.77712,45.23332 64.77712,45.2614 64.77712C45.2614 64.77712,45.28948 64.77712,45.28948 64.77712C45.28948 64.77712,45.45796 64.77712,45.59836 64.77712C48.12556 64.91752,49.6138 66.57424,49.6138 68.65216C49.6138 69.66304,49.27684 70.81432,48.434439999999995 71.90944C46.83388 74.0716,44.22244 75.25096,41.94796 75.25096C40.17892 75.25096,38.6626 74.54896,37.93252 73.11688C37.707879999999996 72.55528,37.59556 72.02176,37.59556 71.43208C37.59556 68.37136,41.021319999999996 64.97368,44.95252 64.77712"/></g></g><g class="vf-modifiers"/></g><path stroke-width="1" fill="none" stroke="#999999" stroke-dasharray="none" font-family="Arial" font-size="10pt" font-weight="normal" font-style="normal" x="100" y="39.5" width="1" height="41" d="M55.19112 90L73.20936 90"/><g class="vf-stavenote" id="vf-auto1290"><g class="vf-note" pointer-events="bounding-box"><g class="vf-notehead" pointer-events="bounding-box"><path stroke-width="0.3" fill="black" stroke="none" stroke-dasharray="none" font-family="Arial" font-size="10pt" font-weight="normal" font-style="normal" x="100" y="39.5" width="1" height="41" d="M58.19112 90M65.54808 84.77712C65.6604 84.77712,65.82888 84.77712,65.85696 84.77712C65.85696 84.77712,65.88504 84.77712,65.88504 84.77712C65.88504 84.77712,66.05351999999999 84.77712,66.19391999999999 84.77712C68.72112 84.91752,70.20936 86.57424,70.20936 88.65216C70.20936 89.66304,69.8724 90.81432,69.03 91.90944C67.42944 94.0716,64.818 95.25096,62.54352 95.25096C60.77448 95.25096,59.25816 94.54896,58.528079999999996 93.11688C58.303439999999995 92.55528,58.19112 92.02176,58.19112 91.43208C58.19112 88.37136,61.616879999999995 84.97368,65.54808 84.77712"/></g><g class="vf-notehead" pointer-events="bounding-box"><path stroke-width="0.3" fill="black" stroke="none" stroke-dasharray="none" font-family="Arial" font-size="10pt" font-weight="normal" font-style="normal" x="100" y="39.5" width="1" height="41" d="M58.19112 70M65.54808 64.77712C65.6604 64.77712,65.82888 64.77712,65.85696 64.77712C65.85696 64.77712,65.88504 64.77712,65.88504 64.77712C65.88504 64.77712,66.05351999999999 64.77712,66.19391999999999 64.77712C68.72112 64.91752,70.20936 66.57424,70.20936 68.65216C70.20936 69.66304,69.8724 70.81432,69.03 71.90944C67.42944 74.0716,64.818 75.25096,62.54352 75.25096C60.77448 75.25096,59.25816 74.54896,58.528079999999996 73.11688C58.303439999999995 72.55528,58.19112 72.02176,58.19112 71.43208C58.19112 68.37136,61.616879999999995 64.97368,65.54808 64.77712"/></g></g><g class="vf-modifiers"/></g><g class="vf-stavenote" id="vf-auto1302"><g class="vf-note" pointer-events="bounding-box"><g class="vf-notehead" pointer-events="bounding-box"><path stroke-width="0.3" fill="black" stroke="none" stroke-dasharray="none" font-family="Arial" font-size="10pt" font-weight="normal" font-style="normal" x="100" y="39.5" width="1" height="41" d="M78.78667999999999 80M84.09379999999999 71.51984C84.20611999999998 71.51984,84.34651999999998 71.49176,84.51499999999999 71.49176C85.80667999999999 71.49176,86.98603999999999 72.4184,87.29491999999999 73.71008C87.323 73.93472,87.37915999999998 74.15935999999999,87.37915999999998 74.41208C87.37915999999998 75.14216,87.09835999999999 75.87224,86.621 76.37768L86.53675999999999 76.46192L86.67715999999999 76.43384C88.24963999999999 76.01264,89.59747999999999 74.6648,90.24331999999998 73.00808C90.27139999999999 72.86768000000001,90.35564 72.75536,90.35564 72.72728C90.49604 72.5588,90.66452 72.50264,90.86107999999999 72.50264C91.16995999999999 72.50264,91.42267999999999 72.72728,91.42267999999999 73.06424C91.42267999999999 73.20464,84.51499999999999 96.81992,84.40267999999999 96.9884C84.31844 97.18496,84.12187999999999 97.29728,83.89724 97.29728C83.67259999999999 97.29728,83.44796 97.1288,83.36371999999999 96.90416C83.30756 96.87608,83.30756 96.87608,83.30756 96.79184000000001C83.30756 96.53912,83.56027999999999 95.78096,84.88004 91.28816C85.72243999999999 88.36784,86.42443999999999 85.98104000000001,86.42443999999999 85.98104000000001C86.42443999999999 85.98104000000001,86.42443999999999 85.98104000000001,86.42443999999999 85.98104000000001C86.42443999999999 85.98104000000001,86.31212 86.06528,86.1998 86.14952C85.16084 86.93576,83.89724 87.35696,82.71788 87.35696C81.65083999999999 87.35696,80.61187999999999 86.99192,79.79755999999999 86.34608C79.12364 85.78448,78.78667999999999 84.94208,78.78667999999999 84.0716C78.78667999999999 83.48192,78.92707999999999 82.92032,79.26404 82.35872C79.85372 81.51632,80.75227999999998 81.06704,81.67891999999999 81.06704C82.63363999999999 81.06704,83.61643999999998 81.57248,84.14996 82.55528C84.43075999999999 82.97648,84.54307999999999 83.48192,84.54307999999999 83.95928C84.54307999999999 84.68936,84.29035999999999 85.44752,83.78491999999999 85.95296L83.70067999999999 86.0372L83.89724 85.98104000000001C85.41355999999999 85.55984,86.7614 84.24008,87.40723999999999 82.61144C87.43531999999999 82.47104,89.23244 76.43384,89.23244 76.37768C89.23244 76.37768,89.23244 76.37768,89.23244 76.37768C89.23244 76.37768,89.12011999999999 76.46192,89.00779999999999 76.57424C87.99691999999999 77.36048,86.73331999999999 77.7536,85.52587999999999 77.7536C84.45884 77.7536,83.44796 77.44472,82.63363999999999 76.7708C81.90355999999998 76.18111999999999,81.5666 75.3668,81.5666 74.55248C81.5666 73.14848,82.52131999999999 71.80064,84.09379999999999 71.51984"/></g></g><g class="vf-modifiers"/></g><path stroke-width="1.5" fill="none" stroke="black" stroke-dasharray="none" font-family="Arial" font-size="10pt" font-weight="normal" font-style="normal" x="100" y="39.5" width="1" height="41" d="M28.26824 90L28.26824 35.75"/><path stroke-width="1.5" fill="none" stroke="black" stroke-dasharray="none" font-family="Arial" font-size="10pt" font-weight="normal" font-style="normal" x="100" y="39.5" width="1" height="41" d="M48.8638 90L48.8638 35.75"/><path stroke-width="1.5" fill="none" stroke="black" stroke-dasharray="none" font-family="Arial" font-size="10pt" font-weight="normal" font-style="normal" x="100" y="39.5" width="1" height="41" d="M69.45936 90L69.45936 35.75"/><path stroke-width="0.3" fill="black" stroke="none" stroke-dasharray="none" font-family="Arial" font-size="10pt" font-weight="normal" font-style="normal" x="100" y="39.5" width="1" height="41" d="M27.51824 35L27.51824 40L69.70936 40L69.70936 35Z"/><path stroke-width="0.3" fill="black" stroke="none" stroke-dasharray="none" font-family="Arial" font-size="10pt" font-weight="normal" font-style="normal" x="100" y="39.5" width="1" height="41" d="M27.51824 42.5L27.51824 47.5L69.70936 47.5L69.70936 42.5Z"/></svg>