<?xml version="1.0" standalone="no"?><!DOCTYPE svg PUBLIC "-//W3C//DTD SVG 1.1//EN" "http://www.w3.org/Graphics/SVG/1.1/DTD/svg11.dtd"><svg width="100" height="100" version="1.1" xmlns="http://www.w3.org/2000/svg" xmlns:xlink="http://www.w3.org/1999/xlink"><defs xmlns="http://www.w3.org/1999/xhtml"><style type="text/css"><![CDATA[
#playPause { width: 100px; height: 50px; text-align: center; display: block; margin: 20px auto 0px; cursor: pointer; }]]></style></defs><path stroke-width="1" fill="none" stroke="#999999" stroke-dasharray="none" font-family="Arial" font-size="10pt" font-weight="normal" font-style="normal" d="M0 40L100 40"/><path stroke-width="1" fill="none" stroke="#999999" stroke-dasharray="none" font-family="Arial" font-size="10pt" font-weight="normal" font-style="normal" d="M0 50L100 50"/><path stroke-width="1" fill="none" stroke="#999999" stroke-dasharray="none" font-family="Arial" font-size="10pt" font-weight="normal" font-style="normal" d="M0 60L100 60"/><path stroke-width="1" fill="none" stroke="#999999" stroke-dasharray="none" font-family="Arial" font-size="10pt" font-weight="normal" font-style="normal" d="M0 70L100 70"/><path stroke-width="1" fill="none" stroke="#999999" stroke-dasharray="none" font-family="Arial" font-size="10pt" font-weight="normal" font-style="normal" d="M0 80L100 80"/><path stroke-width="1" fill="none" stroke="#999999" stroke-dasharray="none" font-family="Arial" font-size="10pt" font-weight="normal" font-style="normal" x="100" y="39.5" width="1" height="41" d="M14 90L32.01824 90"/><g class="vf-stavenote" id="vf-auto1268"><g class="vf-note" pointer-events="bounding-box"><g class="vf-notehead" pointer-events="bounding-box"><path stroke-width="0.3" fill="black" stroke="none" stroke-dasharray="none" font-family="Arial" font-size="10pt" font-weight="normal" font-style="normal" x="100" y="39.5" width="1" height="41" d="M17 90M24.35696 84.77712C24.46928 84.77712,24.63776 84.77712,24.66584 84.77712C24.66584 84.77712,24.69392 84.77712,24.69392 84.77712C24.69392 84.77712,24.8624 84.77712,25.0028 84.77712C27.53 84.91752,29.01824 86.57424,29.01824 88.65216C29.01824 89.66304,28.68128 90.81432,27.83888 91.90944C26.23832 94.0716,23.62688 95.25096,21.3524 95.25096C19.58336 95.25096,18.06704 94.54896,17.33696 93.11688C17.11232 92.55528,17 92.02176,17 91.43208C17 88.37136,20.42576 84.97368,24.35696 84.77712"/></g><g class="vf-notehead" pointer-events="bounding-box"><path stroke-width="0.3" fill="black" stroke="none" stroke-dasharray="none" font-family="Arial" font-size="10pt" font-weight="normal" font-style="normal" x="100" y="39.5" width="1" height="41" d="M17 70M24.35696 64.77712C24.46928 64.77712,24.63776 64.77712,24.66584 64.77712C24.66584 64.77712,24.69392 64.77712,24.69392 64.77712C24.69392 64.77712,24.8624 64.77712,25.0028 64.77712C27.53 64.91752,29.01824 66.57424,29.01824 68.65216C29.01824 69.66304,28.68128 70.81432,27.83888 71.90944C26.23832 74.0716,23.62688 75.25096,21.3524 75.25096C19.58336 75.25096,18.06704 74.54896,17.33696 73.11688C17.11232 72.55528,17 72.02176,17 71.43208C17 68.37136,20.42576 64.97368,24.35696 64.77712"/></g></g><g class="vf-modifiers"/></g><path stroke-width="1" fill="none" stroke="#999999" stroke-dasharray="none" font-family="Arial" font-size="10pt" font-weight="normal" font-style="normal" x="100" y="39.5" width="1" height="41" d="M34.75 90L52.76824 90"/><g class="vf-stavenote" id="vf-auto1279"><g class="vf-note" pointer-events="bounding-box"><g class="vf-notehead" pointer-events="bounding-box"><path stroke-width="0.3" fill="black" stroke="none" stroke-dasharray="none" font-family="Arial" font-size="10pt" font-weight="normal" font-style="normal" x="100" y="39.5" width="1" height="41" d="M37.75 90M45.10696 84.77712C45.21928 84.77712,45.38776 84.77712,45.41584 84.77712C45.41584 84.77712,45.44392 84.77712,45.44392 84.77712C45.44392 84.77712,45.6124 84.77712,45.7528 84.77712C48.28 84.91752,49.76824 86.57424,49.76824 88.65216C49.76824 89.66304,49.43128 90.81432,48.58888 91.90944C46.98832 94.0716,44.37688 95.25096,42.1024 95.25096C40.33336 95.25096,38.81704 94.54896,38.08696 93.11688C37.86232 92.55528,37.75 92.02176,37.75 91.43208C37.75 88.37136,41.17576 84.97368,45.10696 84.77712"/></g><g class="vf-notehead" pointer-events="bounding-box"><path stroke-width="0.3" fill="black" stroke="none" stroke-dasharray="none" font-family="Arial" font-size="10pt" font-weight="normal" font-style="normal" x="100" y="39.5" width="1" height="41" d="M37.75 70M45.10696 64.77712C45.21928 64.77712,45.38776 64.77712,45.41584 64.77712C45.41584 64.77712,45.44392 64.77712,45.44392 64.77712C45.44392 64.77712,45.6124 64.77712,45.7528 64.77712C48.28 64.91752,49.76824 66.57424,49.76824 68.65216C49.76824 69.66304,49.43128 70.81432,48.58888 71.90944C46.98832 74.0716,44.37688 75.25096,42.1024 75.25096C40.33336 75.25096,38.81704 74.54896,38.08696 73.11688C37.86232 72.55528,37.75 72.02176,37.75 71.43208C37.75 68.37136,41.17576 64.97368,45.10696 64.77712"/></g></g><g class="vf-modifiers"/></g><path stroke-width="1" fill="none" stroke="#999999" stroke-dasharray="none" font-family="Arial" font-size="10pt" font-weight="normal" font-style="normal" x="100" y="39.5" width="1" height="41" d="M55.5 90L73.51823999999999 90"/><g class="vf-stavenote" id="vf-auto1290"><g class="vf-note" pointer-events="bounding-box"><g class="vf-notehead" pointer-events="bounding-box"><path stroke-width="0.3" fill="black" stroke="none" stroke-dasharray="none" font-family="Arial" font-size="10pt" font-weight="normal" font-style="normal" x="100" y="39.5" width="1" height="41" d="M58.5 90M65.85696 84.77712C65.96928 84.77712,66.13776 84.77712,66.16584 84.77712C66.16584 84.77712,66.19392 84.77712,66.19392 84.77712C66.19392 84.77712,66.3624 84.77712,66.50280000000001 84.77712C69.03 84.91752,70.51824 86.57424,70.51824 88.65216C70.51824 89.66304,70.18128 90.81432,69.33888 91.90944C67.73832 94.0716,65.12688 95.25096,62.8524 95.25096C61.08336 95.25096,59.56704 94.54896,58.83696 93.11688C58.61232 92.55528,58.5 92.02176,58.5 91.43208C58.5 88.37136,61.92576 84.97368,65.85696 84.77712"/></g><g class="vf-notehead" pointer-events="bounding-box"><path stroke-width="0.3" fill="black" stroke="none" stroke-dasharray="none" font-family="Arial" font-size="10pt" font-weight="normal" font-style="normal" x="100" y="39.5" width="1" height="41" d="M58.5 70M65.85696 64.77712C65.96928 64.77712,66.13776 64.77712,66.16584 64.77712C66.16584 64.77712,66.19392 64.77712,66.19392 64.77712C66.19392 64.77712,66.3624 64.77712,66.50280000000001 64.77712C69.03 64.91752,70.51824 66.57424,70.51824 68.65216C70.51824 69.66304,70.18128 70.81432,69.33888 71.90944C67.73832 74.0716,65.12688 75.25096,62.8524 75.25096C61.08336 75.25096,59.56704 74.54896,58.83696 73.11688C58.61232 72.55528,58.5 72.02176,58.5 71.43208C58.5 68.37136,61.92576 64.97368,65.85696 64.77712"/></g></g><g class="vf-modifiers"/></g><path stroke-width="1" fill="none" stroke="#999999" stroke-dasharray="none" font-family="Arial" font-size="10pt" font-weight="normal" font-style="normal" x="100" y="39.5" width="1" height="41" d="M76.25 90L94.26823999999999 90"/><g class="vf-stavenote" id="vf-auto1301"><g class="vf-note" pointer-events="bounding-box"><g class="vf-notehead" pointer-events="bounding-box"><path stroke-width="0.3" fill="black" stroke="none" stroke-dasharray="none" font-family="Arial" font-size="10pt" font-weight="normal" font-style="normal" x="100" y="39.5" width="1" height="41" d="M79.25 90M86.60696 84.77712C86.71928 84.77712,86.88776 84.77712,86.91584 84.77712C86.91584 84.77712,86.94392 84.77712,86.94392 84.77712C86.94392 84.77712,87.1124 84.77712,87.25280000000001 84.77712C89.78 84.91752,91.26824 86.57424,91.26824 88.65216C91.26824 89.66304,90.93128 90.81432,90.08888 91.90944C88.48832 94.0716,85.87688 95.25096,83.6024 95.25096C81.83336 95.25096,80.31704 94.54896,79.58696 93.11688C79.36232 92.55528,79.25 92.02176,79.25 91.43208C79.25 88.37136,82.67576 84.97368,86.60696 84.77712"/></g><g class="vf-notehead" pointer-events="bounding-box"><path stroke-width="0.3" fill="black" stroke="none" stroke-dasharray="none" font-family="Arial" font-size="10pt" font-weight="normal" font-style="normal" x="100" y="39.5" width="1" height="41" d="M79.25 70M86.60696 64.77712C86.71928 64.77712,86.88776 64.77712,86.91584 64.77712C86.91584 64.77712,86.94392 64.77712,86.94392 64.77712C86.94392 64.77712,87.1124 64.77712,87.25280000000001 64.77712C89.78 64.91752,91.26824 66.57424,91.26824 68.65216C91.26824 69.66304,90.93128 70.81432,90.08888 71.90944C88.48832 74.0716,85.87688 75.25096,83.6024 75.25096C81.83336 75.25096,80.31704 74.54896,79.58696 73.11688C79.36232 72.55528,79.25 72.02176,79.25 71.43208C79.25 68.37136,82.67576 64.97368,86.60696 64.77712"/></g></g><g class="vf-modifiers"/></g><path stroke-width="1.5" fill="none" stroke="black" stroke-dasharray="none" font-family="Arial" font-size="10pt" font-weight="normal" font-style="normal" x="100" y="39.5" width="1" height="41" d="M28.26824 90L28.26824 35.75"/><path stroke-width="1.5" fill="none" stroke="black" stroke-dasharray="none" font-family="Arial" font-size="10pt" font-weight="normal" font-style="normal" x="100" y="39.5" width="1" height="41" d="M49.01824 90L49.01824 35.75"/><path stroke-width="1.5" fill="none" stroke="black" stroke-dasharray="none" font-family="Arial" font-size="10pt" font-weight="normal" font-style="normal" x="100" y="39.5" width="1" height="41" d="M69.76824 90L69.76824 35.75"/><path stroke-width="1.5" fill="none" stroke="black" stroke-dasharray="none" font-family="Arial" font-size="10pt" font-weight="normal" font-style="normal" x="100" y="39.5" width="1" height="41" d="M90.51824 90L90.51824 35.75"/><path stroke-width="0.3" fill="black" stroke="none" stroke-dasharray="none" font-family="Arial" font-size="10pt" font-weight="normal" font-style="normal" x="100" y="39.5" width="1" height="41" d="M27.51824 35L27.51824 40L90.76824 40L90.76824 35Z"/><path stroke-width="0.3" fill="black" stroke="none" stroke-dasharray="none" font-family="Arial" font-size="10pt" font-weight="normal" font-style="normal" x="100" y="39.5" width="1" height="41" d="M27.51824 42.5L27.51824 47.5L90.76824 47.5L90.76824 42.5Z"/></svg>