<?xml version="1.0" standalone="no"?><!DOCTYPE svg PUBLIC "-//W3C//DTD SVG 1.1//EN" "http://www.w3.org/Graphics/SVG/1.1/DTD/svg11.dtd"><svg width="100" height="100" version="1.1" xmlns="http://www.w3.org/2000/svg" xmlns:xlink="http://www.w3.org/1999/xlink"><defs xmlns="http://www.w3.org/1999/xhtml"><style type="text/css"><![CDATA[
* { box-sizing: border-box; }
html, body { margin: 0px; padding: 0px; min-width: 450px; }
#playPause { position: fixed; top: 0px; left: 0px; width: 100px; height: 50px; text-align: center; cursor: pointer; }
#vexFlowBreakdown { line-height: 0; border-left: 1px solid rgb(153, 153, 153); border-top: 1px solid rgb(153, 153, 153); }
.flexContainer { display: flex; justify-content: center; }
table, th, td { border: 1px solid black; border-collapse: collapse; }
.breakdownBarDiv { width: 101px; height: 100px; display: inline-block; border-right: 1px solid rgb(153, 153, 153); border-bottom: 1px solid rgb(153, 153, 153); }
.breakdownBarDiv img { height: 100%; }
#temporary { display: none; }]]></style></defs><path stroke-width="1" fill="none" stroke="#999999" stroke-dasharray="none" font-family="Arial" font-size="10pt" font-weight="normal" font-style="normal" d="M0 40L100 40"/><path stroke-width="1" fill="none" stroke="#999999" stroke-dasharray="none" font-family="Arial" font-size="10pt" font-weight="normal" font-style="normal" d="M0 50L100 50"/><path stroke-width="1" fill="none" stroke="#999999" stroke-dasharray="none" font-family="Arial" font-size="10pt" font-weight="normal" font-style="normal" d="M0 60L100 60"/><path stroke-width="1" fill="none" stroke="#999999" stroke-dasharray="none" font-family="Arial" font-size="10pt" font-weight="normal" font-style="normal" d="M0 70L100 70"/><path stroke-width="1" fill="none" stroke="#999999" stroke-dasharray="none" font-family="Arial" font-size="10pt" font-weight="normal" font-style="normal" d="M0 80L100 80"/><g class="vf-stavenote" id="vf-auto1001"><g class="vf-note" pointer-events="bounding-box"><g class="vf-stem" pointer-events="bounding-box"><path stroke-width="1.5" fill="none" stroke="black" stroke-dasharray="none" font-family="Arial" font-size="10pt" font-weight="normal" font-style="normal" x="100" y="39.5" width="1" height="41" d="M53.2284 40L53.2284 80"/></g><g class="vf-notehead" pointer-events="bounding-box"><path stroke-width="0.3" fill="black" stroke="none" stroke-dasharray="none" font-family="Arial" font-size="10pt" font-weight="normal" font-style="normal" x="100" y="39.5" width="1" height="41" d="M41.21016 45M48.56712 39.77712C48.67944 39.77712,48.84792 39.77712,48.876000000000005 39.77712C48.876000000000005 39.77712,48.90408 39.77712,48.90408 39.77712C48.90408 39.77712,49.07256 39.77712,49.21296 39.77712C51.74016 39.917519999999996,53.2284 41.57424,53.2284 43.65216C53.2284 44.66304,52.89144 45.81432,52.049040000000005 46.909440000000004C50.44848 49.071600000000004,47.83704 50.25096,45.562560000000005 50.25096C43.79352 50.25096,42.2772 49.54896,41.54712 48.11688C41.32248 47.55528,41.21016 47.02176,41.21016 46.43208C41.21016 43.37136,44.63592 39.97368,48.56712 39.77712"/></g><g class="vf-notehead" pointer-events="bounding-box"><path stroke-width="0.3" fill="black" stroke="none" stroke-dasharray="none" font-family="Arial" font-size="10pt" font-weight="normal" font-style="normal" x="100" y="39.5" width="1" height="41" d="M52.4784 40M59.83536 34.77712C59.94768 34.77712,60.11616 34.77712,60.14424 34.77712C60.14424 34.77712,60.17232 34.77712,60.17232 34.77712C60.17232 34.77712,60.3408 34.77712,60.4812 34.77712C63.0084 34.917519999999996,64.49664 36.57424,64.49664 38.65216C64.49664 39.66304,64.15968000000001 40.81432,63.31728 41.909440000000004C61.71672 44.071600000000004,59.10528 45.25096,56.8308 45.25096C55.06176 45.25096,53.54544 44.54896,52.81536 43.11688C52.59072 42.55528,52.4784 42.02176,52.4784 41.43208C52.4784 38.37136,55.90416 34.97368,59.83536 34.77712"/></g><g class="vf-flag" pointer-events="bounding-box"><path stroke-width="0.3" fill="black" stroke="none" stroke-dasharray="none" font-family="Arial" font-size="10pt" font-weight="normal" font-style="normal" x="100" y="39.5" width="1" height="41" d="M53.2284 82M59.6868 53.04952C59.742960000000004 53.02144,59.8272 53.02144,59.91144 53.02144C60.108000000000004 53.02144,60.27648 53.16184,60.50112 53.52688C62.4948 56.55952,63.53376 60.041439999999994,63.53376 63.41104C63.53376 64.00072,63.53376 64.56232,63.44952 65.09584C63.11256 68.29696,61.76472 71.21728,59.742960000000004 73.09864C57.5808 75.1204,56.12064 76.74904,54.82896 78.6304C54.09888 79.64128,53.39688 80.8768,53.20032 81.49456C53.116080000000004 81.69112,52.89144 81.88768,52.69488 81.88768L52.63872 81.88768L52.63872 77.53528L52.63872 73.1548L52.77912 73.1548C53.5092 73.1548,54.96936 72.90208,55.924080000000004 72.5932C59.60256 71.3296,62.0736 67.20184,62.0736 62.4844C62.0736 62.09128,62.04552 61.67008,62.01744 61.27696C61.76472 58.834,60.89424 56.27872,59.51832 54.17272C59.37792 53.948080000000004,59.29368 53.72344,59.29368 53.554959999999994C59.29368 53.33032,59.406 53.133759999999995,59.6868 53.04952"/></g></g><g class="vf-modifiers"><path stroke-width="0.3" fill="black" stroke="none" stroke-dasharray="none" font-family="Arial" font-size="10pt" font-weight="normal" font-style="normal" x="100" y="39.5" width="1" height="41" d="M30.592800000000004 40M30.373920000000005 22.73584C30.428640000000005 22.70848,30.483360000000005 22.70848,30.565440000000002 22.70848C30.811680000000003 22.70848,31.030560000000005 22.81792,31.112640000000003 23.0368C31.140000000000004 23.146240000000002,31.140000000000004 23.146240000000002,31.140000000000004 29.52112L31.140000000000004 35.950720000000004L31.167360000000002 35.86864C32.207040000000006 34.99312,33.30144000000001 34.55536,34.341120000000004 34.55536C34.751520000000006 34.55536,35.16192 34.610079999999996,35.572320000000005 34.77424C36.803520000000006 35.18464,37.46016 36.33376,37.46016 37.70176C37.46016 38.41312,37.24128 39.20656,36.83088000000001 40C36.22896 41.0944,35.462880000000006 41.96992,33.3288 43.88512L31.222080000000005 45.8824C30.839040000000004 46.26544,30.756960000000003 46.26544,30.592800000000004 46.26544C30.346560000000004 46.26544,30.127680000000005 46.12864,30.045600000000004 45.90976L30.018240000000006 45.80032L30.018240000000006 34.500640000000004L30.018240000000006 23.146240000000002L30.045600000000004 23.0368C30.127680000000005 22.92736,30.237120000000004 22.7632,30.373920000000005 22.73584M33.6024 36.41584C33.492960000000004 36.36112,33.3288 36.36112,33.21936 36.36112C33.137280000000004 36.36112,33.08256 36.36112,33.027840000000005 36.36112C32.316480000000006 36.47056,31.687200000000004 36.90832,31.249440000000003 37.61968L31.140000000000004 37.8112L31.140000000000004 41.01232L31.140000000000004 44.26816L31.222080000000005 44.15872C33.21936 41.96992,34.53264 39.4528,34.53264 37.78384L34.53264 37.72912C34.53264 36.90832,34.259040000000006 36.55264,33.6024 36.41584"/></g></g><path stroke-width="1" fill="none" stroke="#999999" stroke-dasharray="none" font-family="Arial" font-size="10pt" font-weight="normal" font-style="normal" x="100" y="39.5" width="1" height="41" d="M67.23008 90L85.24832 90"/><g class="vf-stavenote" id="vf-auto1016"><g class="vf-note" pointer-events="bounding-box"><g class="vf-stem" pointer-events="bounding-box"><path stroke-width="1.5" fill="none" stroke="black" stroke-dasharray="none" font-family="Arial" font-size="10pt" font-weight="normal" font-style="normal" x="100" y="39.5" width="1" height="41" d="M81.49832 90L81.49832 35"/></g><g class="vf-notehead" pointer-events="bounding-box"><path stroke-width="0.3" fill="black" stroke="none" stroke-dasharray="none" font-family="Arial" font-size="10pt" font-weight="normal" font-style="normal" x="100" y="39.5" width="1" height="41" d="M70.23008 90M77.58704 84.77712C77.69936 84.77712,77.86784 84.77712,77.89592 84.77712C77.89592 84.77712,77.924 84.77712,77.924 84.77712C77.924 84.77712,78.09248 84.77712,78.23288 84.77712C80.76008 84.91752,82.24832 86.57424,82.24832 88.65216C82.24832 89.66304,81.91136 90.81432,81.06896 91.90944C79.4684 94.0716,76.85696 95.25096,74.58248 95.25096C72.81344 95.25096,71.29712 94.54896,70.56704 93.11688C70.3424 92.55528,70.23008 92.02176,70.23008 91.43208C70.23008 88.37136,73.65584 84.97368,77.58704 84.77712"/></g><g class="vf-notehead" pointer-events="bounding-box"><path stroke-width="0.3" fill="black" stroke="none" stroke-dasharray="none" font-family="Arial" font-size="10pt" font-weight="normal" font-style="normal" x="100" y="39.5" width="1" height="41" d="M70.23008 70M77.58704 64.77712C77.69936 64.77712,77.86784 64.77712,77.89592 64.77712C77.89592 64.77712,77.924 64.77712,77.924 64.77712C77.924 64.77712,78.09248 64.77712,78.23288 64.77712C80.76008 64.91752,82.24832 66.57424,82.24832 68.65216C82.24832 69.66304,81.91136 70.81432,81.06896 71.90944C79.4684 74.0716,76.85696 75.25096,74.58248 75.25096C72.81344 75.25096,71.29712 74.54896,70.56704 73.11688C70.3424 72.55528,70.23008 72.02176,70.23008 71.43208C70.23008 68.37136,73.65584 64.97368,77.58704 64.77712"/></g><g class="vf-flag" pointer-events="bounding-box"><path stroke-width="0.3" fill="black" stroke="none" stroke-dasharray="none" font-family="Arial" font-size="10pt" font-weight="normal" font-style="normal" x="100" y="39.5" width="1" height="41" d="M81.49832 33M80.82440000000001 37.52088L80.82440000000001 33.1404L80.93672000000001 33.1404C81.24560000000001 33.1404,81.44216 33.33696,81.49832 33.67392C82.08800000000001 36.48192,83.85704000000001 39.54264,86.30000000000001 41.8452C89.02376000000001 44.40048,90.39968 47.91048,90.39968 51.5328C90.39968 54.958560000000006,89.19224000000001 58.52472,86.74928000000001 61.47312C86.32808 62.03472,86.30000000000001 62.03472,86.01920000000001 62.03472C85.68224000000001 62.03472,85.45760000000001 61.782,85.45760000000001 61.445040000000006C85.45760000000001 61.19232,85.48568 61.136160000000004,85.76648 60.82728C87.90056000000001 58.24392,88.9676 55.12704,88.9676 52.15056C88.9676 49.51104,88.1252 46.98384,86.38424 45.0744C85.31720000000001 43.89504,83.3516 42.77184,80.85248 41.90136C80.85248 41.87328,80.82440000000001 41.0028,80.82440000000001 37.52088"/></g></g><g class="vf-modifiers"/></g></svg>