<?xml version="1.0" standalone="no"?><!DOCTYPE svg PUBLIC "-//W3C//DTD SVG 1.1//EN" "http://www.w3.org/Graphics/SVG/1.1/DTD/svg11.dtd"><svg width="100" height="100" version="1.1" xmlns="http://www.w3.org/2000/svg" xmlns:xlink="http://www.w3.org/1999/xlink"><defs xmlns="http://www.w3.org/1999/xhtml"><style type="text/css"><![CDATA[
* { box-sizing: border-box; }
html, body { margin: 0px; padding: 0px; min-width: 450px; }
#playPause { position: fixed; top: 0px; left: 0px; width: 100px; height: 50px; text-align: center; cursor: pointer; }
#vexFlowBreakdown { line-height: 0; border-left: 1px solid rgb(153, 153, 153); border-top: 1px solid rgb(153, 153, 153); }
.flexContainer { display: flex; justify-content: center; }
table, th, td { border: 1px solid black; border-collapse: collapse; }
.breakdownBarDiv { width: 101px; height: 100px; display: inline-block; border-right: 1px solid rgb(153, 153, 153); border-bottom: 1px solid rgb(153, 153, 153); }
.breakdownBarDiv img { height: 100%; }
#temporary { display: none; }]]></style></defs><path stroke-width="1" fill="none" stroke="#999999" stroke-dasharray="none" font-family="Arial" font-size="10pt" font-weight="normal" font-style="normal" d="M0 40L100 40"/><path stroke-width="1" fill="none" stroke="#999999" stroke-dasharray="none" font-family="Arial" font-size="10pt" font-weight="normal" font-style="normal" d="M0 50L100 50"/><path stroke-width="1" fill="none" stroke="#999999" stroke-dasharray="none" font-family="Arial" font-size="10pt" font-weight="normal" font-style="normal" d="M0 60L100 60"/><path stroke-width="1" fill="none" stroke="#999999" stroke-dasharray="none" font-family="Arial" font-size="10pt" font-weight="normal" font-style="normal" d="M0 70L100 70"/><path stroke-width="1" fill="none" stroke="#999999" stroke-dasharray="none" font-family="Arial" font-size="10pt" font-weight="normal" font-style="normal" d="M0 80L100 80"/><g class="vf-stavenote" id="vf-auto1001"><g class="vf-note" pointer-events="bounding-box"><g class="vf-stem" pointer-events="bounding-box"><path stroke-width="1.5" fill="none" stroke="black" stroke-dasharray="none" font-family="Arial" font-size="10pt" font-weight="normal" font-style="normal" x="100" y="39.5" width="1" height="41" d="M53.2284 50L53.2284 90"/></g><g class="vf-notehead" pointer-events="bounding-box"><path stroke-width="0.3" fill="black" stroke="none" stroke-dasharray="none" font-family="Arial" font-size="10pt" font-weight="normal" font-style="normal" x="100" y="39.5" width="1" height="41" d="M41.21016 55M48.56712 49.77712C48.67944 49.77712,48.84792 49.77712,48.876000000000005 49.77712C48.876000000000005 49.77712,48.90408 49.77712,48.90408 49.77712C48.90408 49.77712,49.07256 49.77712,49.21296 49.77712C51.74016 49.917519999999996,53.2284 51.57424,53.2284 53.65216C53.2284 54.66304,52.89144 55.81432,52.049040000000005 56.909440000000004C50.44848 59.071600000000004,47.83704 60.25096,45.562560000000005 60.25096C43.79352 60.25096,42.2772 59.54896,41.54712 58.11688C41.32248 57.55528,41.21016 57.02176,41.21016 56.43208C41.21016 53.37136,44.63592 49.97368,48.56712 49.77712"/></g><g class="vf-notehead" pointer-events="bounding-box"><path stroke-width="0.3" fill="black" stroke="none" stroke-dasharray="none" font-family="Arial" font-size="10pt" font-weight="normal" font-style="normal" x="100" y="39.5" width="1" height="41" d="M52.4784 50M59.83536 44.77712C59.94768 44.77712,60.11616 44.77712,60.14424 44.77712C60.14424 44.77712,60.17232 44.77712,60.17232 44.77712C60.17232 44.77712,60.3408 44.77712,60.4812 44.77712C63.0084 44.917519999999996,64.49664 46.57424,64.49664 48.65216C64.49664 49.66304,64.15968000000001 50.81432,63.31728 51.909440000000004C61.71672 54.071600000000004,59.10528 55.25096,56.8308 55.25096C55.06176 55.25096,53.54544 54.54896,52.81536 53.11688C52.59072 52.55528,52.4784 52.02176,52.4784 51.43208C52.4784 48.37136,55.90416 44.97368,59.83536 44.77712"/></g><g class="vf-flag" pointer-events="bounding-box"><path stroke-width="0.3" fill="black" stroke="none" stroke-dasharray="none" font-family="Arial" font-size="10pt" font-weight="normal" font-style="normal" x="100" y="39.5" width="1" height="41" d="M53.2284 92M59.6868 63.04952C59.742960000000004 63.02144,59.8272 63.02144,59.91144 63.02144C60.108000000000004 63.02144,60.27648 63.16184,60.50112 63.52688C62.4948 66.55951999999999,63.53376 70.04144,63.53376 73.41104C63.53376 74.00072,63.53376 74.56232,63.44952 75.09584C63.11256 78.29696,61.76472 81.21728,59.742960000000004 83.09864C57.5808 85.1204,56.12064 86.74904,54.82896 88.6304C54.09888 89.64128,53.39688 90.8768,53.20032 91.49456C53.116080000000004 91.69112,52.89144 91.88768,52.69488 91.88768L52.63872 91.88768L52.63872 87.53528L52.63872 83.1548L52.77912 83.1548C53.5092 83.1548,54.96936 82.90208,55.924080000000004 82.5932C59.60256 81.3296,62.0736 77.20184,62.0736 72.4844C62.0736 72.09128,62.04552 71.67008,62.01744 71.27696C61.76472 68.834,60.89424 66.27871999999999,59.51832 64.17272C59.37792 63.948080000000004,59.29368 63.72344,59.29368 63.554959999999994C59.29368 63.33032,59.406 63.133759999999995,59.6868 63.04952"/></g></g><g class="vf-modifiers"><path stroke-width="0.3" fill="black" stroke="none" stroke-dasharray="none" font-family="Arial" font-size="10pt" font-weight="normal" font-style="normal" x="100" y="39.5" width="1" height="41" d="M30.592800000000004 50M30.373920000000005 32.735839999999996C30.428640000000005 32.70848,30.483360000000005 32.70848,30.565440000000002 32.70848C30.811680000000003 32.70848,31.030560000000005 32.81792,31.112640000000003 33.0368C31.140000000000004 33.146240000000006,31.140000000000004 33.146240000000006,31.140000000000004 39.521119999999996L31.140000000000004 45.950720000000004L31.167360000000002 45.86864C32.207040000000006 44.99312,33.30144000000001 44.55536,34.341120000000004 44.55536C34.751520000000006 44.55536,35.16192 44.610079999999996,35.572320000000005 44.77424C36.803520000000006 45.18464,37.46016 46.33376,37.46016 47.70176C37.46016 48.41312,37.24128 49.20656,36.83088000000001 50C36.22896 51.0944,35.462880000000006 51.96992,33.3288 53.88512L31.222080000000005 55.8824C30.839040000000004 56.26544,30.756960000000003 56.26544,30.592800000000004 56.26544C30.346560000000004 56.26544,30.127680000000005 56.12864,30.045600000000004 55.90976L30.018240000000006 55.80032L30.018240000000006 44.500640000000004L30.018240000000006 33.146240000000006L30.045600000000004 33.0368C30.127680000000005 32.92736,30.237120000000004 32.7632,30.373920000000005 32.735839999999996M33.6024 46.41584C33.492960000000004 46.36112,33.3288 46.36112,33.21936 46.36112C33.137280000000004 46.36112,33.08256 46.36112,33.027840000000005 46.36112C32.316480000000006 46.47056,31.687200000000004 46.90832,31.249440000000003 47.61968L31.140000000000004 47.8112L31.140000000000004 51.01232L31.140000000000004 54.26816L31.222080000000005 54.15872C33.21936 51.96992,34.53264 49.4528,34.53264 47.78384L34.53264 47.72912C34.53264 46.90832,34.259040000000006 46.55264,33.6024 46.41584"/></g></g><g class="vf-stavenote" id="vf-auto1016"><g class="vf-note" pointer-events="bounding-box"><g class="vf-notehead" pointer-events="bounding-box"><path stroke-width="0.3" fill="black" stroke="none" stroke-dasharray="none" font-family="Arial" font-size="10pt" font-weight="normal" font-style="normal" x="100" y="39.5" width="1" height="41" d="M77.34836 80M79.8194 71.51984C79.9598 71.51984,80.1002 71.49176,80.2406 71.49176C81.53228 71.49176,82.71164 72.4184,83.02052 73.71008C83.07668 73.93472,83.10476 74.15935999999999,83.10476 74.41208C83.10476 75.14216,82.85204 75.87224,82.3466 76.37768L82.26236 76.46192L82.45892 76.43384C83.97524 76.01264,85.32308 74.6648,85.96892 73.00808C85.997 72.86768000000001,86.08124 72.75536,86.1374 72.72728C86.24972 72.5588,86.4182 72.50264,86.58668 72.50264C86.89556 72.50264,87.14828 72.72728,87.14828 73.06424C87.14828 73.20464,83.07668 87.24464,82.99244 87.38504C82.88012 87.5816,82.68356 87.66584,82.45892 87.66584C82.23428 87.66584,82.00964 87.55352,81.9254 87.3008C81.86924 87.27272,81.86924 87.24464,81.86924 87.18848C81.86924 86.96384,82.12196 86.1776,83.44172 81.65672C84.28412 78.79256,84.98612 76.43384,84.98612 76.37768C84.98612 76.37768,84.98612 76.37768,84.98612 76.37768C84.98612 76.37768,84.8738 76.46192,84.76148 76.57424C83.72252 77.36048,82.487 77.7536,81.27956 77.7536C80.21252 77.7536,79.17356 77.44472,78.35924 76.7708C77.62916 76.18111999999999,77.34836 75.3668,77.34836 74.55248C77.34836 73.14848,78.24692 71.80064,79.8194 71.51984"/></g></g><g class="vf-modifiers"/></g></svg>