<?xml version="1.0" encoding="UTF-8" standalone="no"?>
<svg
   xmlns:xhtml="http://www.w3.org/1999/xhtml"
   xmlns:dc="http://purl.org/dc/elements/1.1/"
   xmlns:cc="http://creativecommons.org/ns#"
   xmlns:rdf="http://www.w3.org/1999/02/22-rdf-syntax-ns#"
   xmlns:svg="http://www.w3.org/2000/svg"
   xmlns="http://www.w3.org/2000/svg"
   width="100"
   height="100"
   version="1.1"
   id="svg1833">
  <metadata
     id="metadata1839">
    <rdf:RDF>
      <cc:Work
         rdf:about="">
        <dc:format>image/svg+xml</dc:format>
        <dc:type
           rdf:resource="http://purl.org/dc/dcmitype/StillImage" />
        <dc:title></dc:title>
      </cc:Work>
    </rdf:RDF>
  </metadata>
  <defs
     id="defs1837" />
  <xhtml:defs>
    <xhtml:style
       type="text/css"><![CDATA[
* { box-sizing: border-box; }
html, body { margin: 0px; padding: 0px; min-width: 450px; }
#playPause { position: fixed; top: 0px; left: 0px; width: 100px; height: 50px; text-align: center; cursor: pointer; }
#vexFlowBreakdown { line-height: 0; border-left: 1px solid rgb(153, 153, 153); border-top: 1px solid rgb(153, 153, 153); }
.flexContainer { display: flex; justify-content: center; }
table, th, td { border: 1px solid black; border-collapse: collapse; }
.breakdownBarDiv { width: 101px; height: 100px; display: inline-block; border-right: 1px solid rgb(153, 153, 153); border-bottom: 1px solid rgb(153, 153, 153); }
.breakdownBarDiv img { height: 100%; }
#temporary { display: none; }]]></xhtml:style>
  </xhtml:defs>
  <path
     font-size="10pt"
     font-weight="normal"
     font-style="normal"
     d="M -100,40 H 100"
     id="path1730"
     style="font-style:normal;font-weight:normal;font-size:13.33333302px;font-family:Arial;fill:none;stroke:#999999;stroke-width:1;stroke-dasharray:none" />
  <path
     font-size="10pt"
     font-weight="normal"
     font-style="normal"
     d="M -100,50 H 100"
     id="path1732"
     style="font-style:normal;font-weight:normal;font-size:13.33333302px;font-family:Arial;fill:none;stroke:#999999;stroke-width:1;stroke-dasharray:none" />
  <path
     font-size="10pt"
     font-weight="normal"
     font-style="normal"
     d="M -100,60 H 100"
     id="path1734"
     style="font-style:normal;font-weight:normal;font-size:13.33333302px;font-family:Arial;fill:none;stroke:#999999;stroke-width:1;stroke-dasharray:none" />
  <path
     font-size="10pt"
     font-weight="normal"
     font-style="normal"
     d="M -100,70 H 100"
     id="path1736"
     style="font-style:normal;font-weight:normal;font-size:13.33333302px;font-family:Arial;fill:none;stroke:#999999;stroke-width:1;stroke-dasharray:none" />
  <path
     font-size="10pt"
     font-weight="normal"
     font-style="normal"
     d="M -100,80 H 100"
     id="path1738"
     style="font-style:normal;font-weight:normal;font-size:13.33333302px;font-family:Arial;fill:none;stroke:#999999;stroke-width:1;stroke-dasharray:none" />
  <g
     class="vf-stavenote"
     id="vf-auto1001"
     transform="translate(-124)">
    <g
       class="vf-note"
       pointer-events="bounding-box"
       id="g1756">
      <g
         class="vf-stem"
         pointer-events="bounding-box"
         id="g1742">
        <path
           font-size="10pt"
           font-weight="normal"
           font-style="normal"
           x="200"
           y="39.5"
           width="1"
           height="41"
           d="M 53.2284,40 V 80"
           id="path1740"
           style="font-style:normal;font-weight:normal;font-size:13.33333302px;font-family:Arial;fill:none;stroke:#000000;stroke-width:1.5;stroke-dasharray:none" />
      </g>
      <g
         class="vf-notehead"
         pointer-events="bounding-box"
         id="g1746">
        <path
           font-size="10pt"
           font-weight="normal"
           font-style="normal"
           x="200"
           y="39.5"
           width="1"
           height="41"
           d="m 41.21016,45 m 7.35696,-5.22288 c 0.11232,0 0.2808,0 0.30888,0 0,0 0.02808,0 0.02808,0 0,0 0.16848,0 0.30888,0 2.5272,0.1404 4.01544,1.79712 4.01544,3.87504 0,1.01088 -0.33696,2.16216 -1.17936,3.25728 -1.60056,2.16216 -4.212,3.34152 -6.48648,3.34152 -1.76904,0 -3.28536,-0.702 -4.01544,-2.13408 -0.22464,-0.5616 -0.33696,-1.09512 -0.33696,-1.6848 0,-3.06072 3.42576,-6.4584 7.35696,-6.65496"
           id="path1744"
           style="font-style:normal;font-weight:normal;font-size:13.33333302px;font-family:Arial;fill:#000000;stroke:none;stroke-width:0.30000001;stroke-dasharray:none" />
      </g>
      <g
         class="vf-notehead"
         pointer-events="bounding-box"
         id="g1750">
        <path
           font-size="10pt"
           font-weight="normal"
           font-style="normal"
           x="200"
           y="39.5"
           width="1"
           height="41"
           d="m 52.4784,40 m 7.35696,-5.22288 c 0.11232,0 0.2808,0 0.30888,0 0,0 0.02808,0 0.02808,0 0,0 0.16848,0 0.30888,0 2.5272,0.1404 4.01544,1.79712 4.01544,3.87504 0,1.01088 -0.33696,2.16216 -1.17936,3.25728 -1.60056,2.16216 -4.212,3.34152 -6.48648,3.34152 -1.76904,0 -3.28536,-0.702 -4.01544,-2.13408 -0.22464,-0.5616 -0.33696,-1.09512 -0.33696,-1.6848 0,-3.06072 3.42576,-6.4584 7.35696,-6.65496"
           id="path1748"
           style="font-style:normal;font-weight:normal;font-size:13.33333302px;font-family:Arial;fill:#000000;stroke:none;stroke-width:0.30000001;stroke-dasharray:none" />
      </g>
      <g
         class="vf-flag"
         pointer-events="bounding-box"
         id="g1754">
        <path
           font-size="10pt"
           font-weight="normal"
           font-style="normal"
           x="200"
           y="39.5"
           width="1"
           height="41"
           d="m 53.2284,82 m 6.4584,-28.95048 c 0.05616,-0.02808 0.1404,-0.02808 0.22464,-0.02808 0.19656,0 0.36504,0.1404 0.58968,0.50544 1.99368,3.03264 3.03264,6.51456 3.03264,9.88416 0,0.58968 0,1.15128 -0.08424,1.6848 -0.33696,3.20112 -1.6848,6.12144 -3.70656,8.0028 -2.16216,2.02176 -3.62232,3.6504 -4.914,5.53176 -0.73008,1.01088 -1.43208,2.2464 -1.62864,2.86416 -0.08424,0.19656 -0.30888,0.39312 -0.50544,0.39312 h -0.05616 v -4.3524 -4.38048 h 0.1404 c 0.73008,0 2.19024,-0.25272 3.14496,-0.5616 3.67848,-1.2636 6.14952,-5.39136 6.14952,-10.1088 0,-0.39312 -0.02808,-0.81432 -0.05616,-1.20744 -0.25272,-2.44296 -1.1232,-4.99824 -2.49912,-7.10424 -0.1404,-0.22464 -0.22464,-0.44928 -0.22464,-0.61776 0,-0.22464 0.11232,-0.4212 0.39312,-0.50544"
           id="path1752"
           style="font-style:normal;font-weight:normal;font-size:13.33333302px;font-family:Arial;fill:#000000;stroke:none;stroke-width:0.30000001;stroke-dasharray:none" />
      </g>
    </g>
    <g
       class="vf-modifiers"
       id="g1760">
      <path
         font-size="10pt"
         font-weight="normal"
         font-style="normal"
         x="200"
         y="39.5"
         width="1"
         height="41"
         d="M 30.5928,40 M 30.37392,22.73584 c 0.05472,-0.02736 0.10944,-0.02736 0.19152,-0.02736 0.24624,0 0.46512,0.10944 0.5472,0.32832 C 31.14,23.14624 31.14,23.14624 31.14,29.52112 v 6.4296 l 0.02736,-0.08208 c 1.03968,-0.87552 2.13408,-1.31328 3.17376,-1.31328 0.4104,0 0.8208,0.05472 1.2312,0.21888 1.2312,0.4104 1.88784,1.55952 1.88784,2.92752 0,0.71136 -0.21888,1.5048 -0.62928,2.29824 -0.60192,1.0944 -1.368,1.96992 -3.50208,3.88512 l -2.10672,1.99728 c -0.38304,0.38304 -0.46512,0.38304 -0.62928,0.38304 -0.24624,0 -0.46512,-0.1368 -0.5472,-0.35568 L 30.01824,45.80032 V 34.50064 23.14624 L 30.0456,23.0368 c 0.08208,-0.10944 0.19152,-0.2736 0.32832,-0.30096 m 3.22848,13.68 c -0.10944,-0.05472 -0.2736,-0.05472 -0.38304,-0.05472 -0.08208,0 -0.1368,0 -0.19152,0 -0.71136,0.10944 -1.34064,0.5472 -1.7784,1.25856 L 31.14,37.8112 v 3.20112 3.25584 l 0.08208,-0.10944 c 1.99728,-2.1888 3.31056,-4.70592 3.31056,-6.37488 v -0.05472 c 0,-0.8208 -0.2736,-1.17648 -0.93024,-1.31328"
         id="path1758"
         style="font-style:normal;font-weight:normal;font-size:13.33333302px;font-family:Arial;fill:#000000;stroke:none;stroke-width:0.30000001;stroke-dasharray:none" />
    </g>
  </g>
  <path
     font-size="10pt"
     font-weight="normal"
     font-style="normal"
     x="200"
     y="39.5"
     width="1"
     height="41"
     d="M -44.59574,90 H -26.5775"
     id="path1763"
     style="font-style:normal;font-weight:normal;font-size:13.33333302px;font-family:Arial;fill:none;stroke:#999999;stroke-width:1;stroke-dasharray:none" />
  <g
     class="vf-stavenote"
     id="vf-auto1016"
     transform="translate(-124)">
    <g
       class="vf-note"
       pointer-events="bounding-box"
       id="g1773">
      <g
         class="vf-notehead"
         pointer-events="bounding-box"
         id="g1767">
        <path
           font-size="10pt"
           font-weight="normal"
           font-style="normal"
           x="200"
           y="39.5"
           width="1"
           height="41"
           d="m 82.40426,90 m 7.35696,-5.22288 c 0.11232,0 0.2808,0 0.30888,0 0,0 0.02808,0 0.02808,0 0,0 0.16848,0 0.30888,0 2.5272,0.1404 4.01544,1.79712 4.01544,3.87504 0,1.01088 -0.33696,2.16216 -1.17936,3.25728 -1.60056,2.16216 -4.212,3.34152 -6.48648,3.34152 -1.76904,0 -3.28536,-0.702 -4.01544,-2.13408 -0.22464,-0.5616 -0.33696,-1.09512 -0.33696,-1.6848 0,-3.06072 3.42576,-6.4584 7.35696,-6.65496"
           id="path1765"
           style="font-style:normal;font-weight:normal;font-size:13.33333302px;font-family:Arial;fill:#000000;stroke:none;stroke-width:0.30000001;stroke-dasharray:none" />
      </g>
      <g
         class="vf-notehead"
         pointer-events="bounding-box"
         id="g1771">
        <path
           font-size="10pt"
           font-weight="normal"
           font-style="normal"
           x="200"
           y="39.5"
           width="1"
           height="41"
           d="m 82.40426,70 m 7.35696,-5.22288 c 0.11232,0 0.2808,0 0.30888,0 0,0 0.02808,0 0.02808,0 0,0 0.16848,0 0.30888,0 2.5272,0.1404 4.01544,1.79712 4.01544,3.87504 0,1.01088 -0.33696,2.16216 -1.17936,3.25728 -1.60056,2.16216 -4.212,3.34152 -6.48648,3.34152 -1.76904,0 -3.28536,-0.702 -4.01544,-2.13408 -0.22464,-0.5616 -0.33696,-1.09512 -0.33696,-1.6848 0,-3.06072 3.42576,-6.4584 7.35696,-6.65496"
           id="path1769"
           style="font-style:normal;font-weight:normal;font-size:13.33333302px;font-family:Arial;fill:#000000;stroke:none;stroke-width:0.30000001;stroke-dasharray:none" />
      </g>
    </g>
    <g
       class="vf-modifiers"
       id="g1775" />
  </g>
  <path
     font-size="10pt"
     font-weight="normal"
     font-style="normal"
     x="200"
     y="39.5"
     width="1"
     height="41"
     d="M -20.62369,90 H -2.60545"
     id="path1778"
     style="font-style:normal;font-weight:normal;font-size:13.33333302px;font-family:Arial;fill:none;stroke:#999999;stroke-width:1;stroke-dasharray:none" />
  <g
     class="vf-stavenote"
     id="vf-auto1027"
     transform="translate(-124)">
    <g
       class="vf-note"
       pointer-events="bounding-box"
       id="g1788">
      <g
         class="vf-notehead"
         pointer-events="bounding-box"
         id="g1782">
        <path
           font-size="10pt"
           font-weight="normal"
           font-style="normal"
           x="200"
           y="39.5"
           width="1"
           height="41"
           d="m 106.37631,90 m 7.35696,-5.22288 c 0.11232,0 0.2808,0 0.30888,0 0,0 0.0281,0 0.0281,0 0,0 0.16848,0 0.30888,0 2.5272,0.1404 4.01544,1.79712 4.01544,3.87504 0,1.01088 -0.33696,2.16216 -1.17936,3.25728 -1.60056,2.16216 -4.212,3.34152 -6.48648,3.34152 -1.76904,0 -3.28536,-0.702 -4.01544,-2.13408 -0.22464,-0.5616 -0.33696,-1.09512 -0.33696,-1.6848 0,-3.06072 3.42576,-6.4584 7.35696,-6.65496"
           id="path1780"
           style="font-style:normal;font-weight:normal;font-size:13.33333302px;font-family:Arial;fill:#000000;stroke:none;stroke-width:0.30000001;stroke-dasharray:none" />
      </g>
      <g
         class="vf-notehead"
         pointer-events="bounding-box"
         id="g1786">
        <path
           font-size="10pt"
           font-weight="normal"
           font-style="normal"
           x="200"
           y="39.5"
           width="1"
           height="41"
           d="m 106.37631,70 m 7.35696,-5.22288 c 0.11232,0 0.2808,0 0.30888,0 0,0 0.0281,0 0.0281,0 0,0 0.16848,0 0.30888,0 2.5272,0.1404 4.01544,1.79712 4.01544,3.87504 0,1.01088 -0.33696,2.16216 -1.17936,3.25728 -1.60056,2.16216 -4.212,3.34152 -6.48648,3.34152 -1.76904,0 -3.28536,-0.702 -4.01544,-2.13408 -0.22464,-0.5616 -0.33696,-1.09512 -0.33696,-1.6848 0,-3.06072 3.42576,-6.4584 7.35696,-6.65496"
           id="path1784"
           style="font-style:normal;font-weight:normal;font-size:13.33333302px;font-family:Arial;fill:#000000;stroke:none;stroke-width:0.30000001;stroke-dasharray:none" />
      </g>
    </g>
    <g
       class="vf-modifiers"
       id="g1790" />
  </g>
  <path
     font-size="10pt"
     font-weight="normal"
     font-style="normal"
     x="200"
     y="39.5"
     width="1"
     height="41"
     d="M 21.34836,90 H 39.3666"
     id="path1793"
     style="font-style:normal;font-weight:normal;font-size:13.33333302px;font-family:Arial;fill:none;stroke:#999999;stroke-width:1;stroke-dasharray:none" />
  <g
     class="vf-stavenote"
     id="vf-auto1039"
     transform="translate(-106)">
    <g
       class="vf-note"
       pointer-events="bounding-box"
       id="g1811">
      <g
         class="vf-stem"
         pointer-events="bounding-box"
         id="g1797">
        <path
           font-size="10pt"
           font-weight="normal"
           font-style="normal"
           x="200"
           y="39.5"
           width="1"
           height="41"
           d="M 141.6166,90 V 35"
           id="path1795"
           style="font-style:normal;font-weight:normal;font-size:13.33333302px;font-family:Arial;fill:none;stroke:#000000;stroke-width:1.5;stroke-dasharray:none" />
      </g>
      <g
         class="vf-notehead"
         pointer-events="bounding-box"
         id="g1801">
        <path
           font-size="10pt"
           font-weight="normal"
           font-style="normal"
           x="200"
           y="39.5"
           width="1"
           height="41"
           d="m 130.34836,90 m 7.35696,-5.22288 c 0.11232,0 0.2808,0 0.30888,0 0,0 0.0281,0 0.0281,0 0,0 0.16848,0 0.30888,0 2.5272,0.1404 4.01544,1.79712 4.01544,3.87504 0,1.01088 -0.33696,2.16216 -1.17936,3.25728 -1.60056,2.16216 -4.212,3.34152 -6.48648,3.34152 -1.76904,0 -3.28536,-0.702 -4.01544,-2.13408 -0.22464,-0.5616 -0.33696,-1.09512 -0.33696,-1.6848 0,-3.06072 3.42576,-6.4584 7.35696,-6.65496"
           id="path1799"
           style="font-style:normal;font-weight:normal;font-size:13.33333302px;font-family:Arial;fill:#000000;stroke:none;stroke-width:0.30000001;stroke-dasharray:none" />
      </g>
      <g
         class="vf-notehead"
         pointer-events="bounding-box"
         id="g1805">
        <path
           font-size="10pt"
           font-weight="normal"
           font-style="normal"
           x="200"
           y="39.5"
           width="1"
           height="41"
           d="m 130.34836,70 m 7.35696,-5.22288 c 0.11232,0 0.2808,0 0.30888,0 0,0 0.0281,0 0.0281,0 0,0 0.16848,0 0.30888,0 2.5272,0.1404 4.01544,1.79712 4.01544,3.87504 0,1.01088 -0.33696,2.16216 -1.17936,3.25728 -1.60056,2.16216 -4.212,3.34152 -6.48648,3.34152 -1.76904,0 -3.28536,-0.702 -4.01544,-2.13408 -0.22464,-0.5616 -0.33696,-1.09512 -0.33696,-1.6848 0,-3.06072 3.42576,-6.4584 7.35696,-6.65496"
           id="path1803"
           style="font-style:normal;font-weight:normal;font-size:13.33333302px;font-family:Arial;fill:#000000;stroke:none;stroke-width:0.30000001;stroke-dasharray:none" />
      </g>
      <g
         class="vf-flag"
         pointer-events="bounding-box"
         id="g1809">
        <path
           font-size="10pt"
           font-weight="normal"
           font-style="normal"
           x="200"
           y="39.5"
           width="1"
           height="41"
           d="m 141.6166,33 m -0.67392,4.52088 V 33.1404 h 0.11232 c 0.30888,0 0.50544,0.19656 0.5616,0.53352 0.58968,2.808 2.35872,5.86872 4.80168,8.17128 2.72376,2.55528 4.09968,6.06528 4.09968,9.6876 0,3.42576 -1.20744,6.99192 -3.6504,9.94032 -0.4212,0.5616 -0.44928,0.5616 -0.73008,0.5616 -0.33696,0 -0.5616,-0.25272 -0.5616,-0.58968 0,-0.25272 0.0281,-0.30888 0.30888,-0.61776 2.13408,-2.58336 3.20112,-5.70024 3.20112,-8.67672 0,-2.63952 -0.8424,-5.16672 -2.58336,-7.07616 -1.06704,-1.17936 -3.03264,-2.30256 -5.53176,-3.17304 0,-0.02808 -0.0281,-0.89856 -0.0281,-4.38048"
           id="path1807"
           style="font-style:normal;font-weight:normal;font-size:13.33333302px;font-family:Arial;fill:#000000;stroke:none;stroke-width:0.30000001;stroke-dasharray:none" />
      </g>
    </g>
    <g
       class="vf-modifiers"
       id="g1813" />
  </g>
  <g
     class="vf-stavenote"
     id="vf-auto1050"
     transform="translate(-106)">
    <g
       class="vf-note"
       pointer-events="bounding-box"
       id="g1820">
      <g
         class="vf-notehead"
         pointer-events="bounding-box"
         id="g1818">
        <path
           font-size="10pt"
           font-weight="normal"
           font-style="normal"
           x="200"
           y="39.5"
           width="1"
           height="41"
           d="m 172.29246,80 m 2.47104,-8.48016 c 0.1404,0 0.2808,-0.02808 0.4212,-0.02808 1.29168,0 2.47104,0.92664 2.77992,2.21832 0.0562,0.22464 0.0842,0.44928 0.0842,0.702 0,0.73008 -0.25272,1.46016 -0.75816,1.9656 l -0.0842,0.08424 0.19656,-0.02808 c 1.51632,-0.4212 2.86416,-1.76904 3.51,-3.42576 0.0281,-0.1404 0.11232,-0.25272 0.16848,-0.2808 0.11232,-0.16848 0.2808,-0.22464 0.44928,-0.22464 0.30888,0 0.5616,0.22464 0.5616,0.5616 0,0.1404 -4.0716,14.1804 -4.15584,14.3208 -0.11232,0.19656 -0.30888,0.2808 -0.53352,0.2808 -0.22464,0 -0.44928,-0.11232 -0.53352,-0.36504 -0.0562,-0.02808 -0.0562,-0.05616 -0.0562,-0.11232 0,-0.22464 0.25272,-1.01088 1.57248,-5.53176 0.8424,-2.86416 1.5444,-5.22288 1.5444,-5.27904 0,0 0,0 0,0 0,0 -0.11232,0.08424 -0.22464,0.19656 -1.03896,0.78624 -2.27448,1.17936 -3.48192,1.17936 -1.06704,0 -2.106,-0.30888 -2.92032,-0.9828 -0.73008,-0.58968 -1.01088,-1.404 -1.01088,-2.21832 0,-1.404 0.89856,-2.75184 2.47104,-3.03264"
           id="path1816"
           style="font-style:normal;font-weight:normal;font-size:13.33333302px;font-family:Arial;fill:#000000;stroke:none;stroke-width:0.30000001;stroke-dasharray:none" />
      </g>
    </g>
    <g
       class="vf-modifiers"
       id="g1822" />
  </g>
  <path
     font-size="10pt"
     font-weight="normal"
     font-style="normal"
     x="200"
     y="39.5"
     width="1"
     height="41"
     d="M -30.3275,90 V 35.75"
     id="path1825"
     style="font-style:normal;font-weight:normal;font-size:13.33333302px;font-family:Arial;fill:none;stroke:#000000;stroke-width:1.5;stroke-dasharray:none" />
  <path
     font-size="10pt"
     font-weight="normal"
     font-style="normal"
     x="200"
     y="39.5"
     width="1"
     height="41"
     d="M -6.35545,90 V 35.75"
     id="path1827"
     style="font-style:normal;font-weight:normal;font-size:13.33333302px;font-family:Arial;fill:none;stroke:#000000;stroke-width:1.5;stroke-dasharray:none" />
  <path
     font-size="10pt"
     font-weight="normal"
     font-style="normal"
     x="200"
     y="39.5"
     width="1"
     height="41"
     d="m -31.0775,35 v 5 h 24.97205 v -5 z"
     id="path1829"
     style="font-style:normal;font-weight:normal;font-size:13.33333302px;font-family:Arial;fill:#000000;stroke:none;stroke-width:0.30000001;stroke-dasharray:none" />
  <path
     font-size="10pt"
     font-weight="normal"
     font-style="normal"
     x="200"
     y="39.5"
     width="1"
     height="41"
     d="m -31.0775,42.5 v 5 h 24.97205 v -5 z"
     id="path1831"
     style="font-style:normal;font-weight:normal;font-size:13.33333302px;font-family:Arial;fill:#000000;stroke:none;stroke-width:0.30000001;stroke-dasharray:none" />
</svg>
