<?xml version="1.0" standalone="no"?><!DOCTYPE svg PUBLIC "-//W3C//DTD SVG 1.1//EN" "http://www.w3.org/Graphics/SVG/1.1/DTD/svg11.dtd"><svg width="50" height="100" version="1.1" xmlns="http://www.w3.org/2000/svg" xmlns:xlink="http://www.w3.org/1999/xlink"><defs xmlns="http://www.w3.org/1999/xhtml"><style type="text/css"><![CDATA[
* { box-sizing: border-box; }
html, body { margin: 0px; padding: 0px; min-width: 450px; }
#playPause { position: fixed; top: 0px; left: 0px; width: 100px; height: 50px; text-align: center; cursor: pointer; }
#vexFlowBreakdown { line-height: 0; border-left: 1px solid rgb(153, 153, 153); border-top: 1px solid rgb(153, 153, 153); }
.flexContainer { display: flex; justify-content: center; }
table, th, td { border: 1px solid black; border-collapse: collapse; }
.breakdownBarDiv { width: 101px; height: 100px; display: inline-block; border-right: 1px solid rgb(153, 153, 153); border-bottom: 1px solid rgb(153, 153, 153); }
.breakdownBarDiv img { height: 100%; }
#temporary { display: none; }]]></style></defs><path stroke-width="1" fill="none" stroke="#999999" stroke-dasharray="none" font-family="Arial" font-size="10pt" font-weight="normal" font-style="normal" d="M0 40L50 40"/><path stroke-width="1" fill="none" stroke="#999999" stroke-dasharray="none" font-family="Arial" font-size="10pt" font-weight="normal" font-style="normal" d="M0 50L50 50"/><path stroke-width="1" fill="none" stroke="#999999" stroke-dasharray="none" font-family="Arial" font-size="10pt" font-weight="normal" font-style="normal" d="M0 60L50 60"/><path stroke-width="1" fill="none" stroke="#999999" stroke-dasharray="none" font-family="Arial" font-size="10pt" font-weight="normal" font-style="normal" d="M0 70L50 70"/><path stroke-width="1" fill="none" stroke="#999999" stroke-dasharray="none" font-family="Arial" font-size="10pt" font-weight="normal" font-style="normal" d="M0 80L50 80"/><path stroke-width="0.3" fill="black" stroke="none" stroke-dasharray="none" font-family="Arial" font-size="10pt" font-weight="normal" font-style="normal" x="50" y="39.5" width="1" height="41" d="M5 60M4.78112 42.735839999999996C4.83584 42.70848,4.89056 42.70848,4.97264 42.70848C5.21888 42.70848,5.43776 42.81792,5.51984 43.0368C5.5472 43.146240000000006,5.5472 43.146240000000006,5.5472 49.521119999999996L5.5472 55.950720000000004L5.57456 55.86864C6.61424 54.99312,7.70864 54.55536,8.74832 54.55536C9.158719999999999 54.55536,9.56912 54.610079999999996,9.97952 54.77424C11.210719999999998 55.18464,11.86736 56.33376,11.86736 57.70176C11.86736 58.41312,11.64848 59.20656,11.23808 60C10.63616 61.0944,9.87008 61.96992,7.736 63.88512L5.62928 65.8824C5.24624 66.26544,5.16416 66.26544,5 66.26544C4.75376 66.26544,4.53488 66.12864,4.4528 65.90976L4.42544 65.80032L4.42544 54.500640000000004L4.42544 43.146240000000006L4.4528 43.0368C4.53488 42.92736,4.6443200000000004 42.7632,4.78112 42.735839999999996M8.009599999999999 56.41584C7.90016 56.36112,7.736 56.36112,7.62656 56.36112C7.54448 56.36112,7.48976 56.36112,7.43504 56.36112C6.72368 56.47056,6.0944 56.90832,5.65664 57.61968L5.5472 57.8112L5.5472 61.01232L5.5472 64.26816L5.62928 64.15872C7.62656 61.96992,8.93984 59.4528,8.93984 57.78384L8.93984 57.72912C8.93984 56.90832,8.66624 56.55264,8.009599999999999 56.41584"/><path stroke-width="0.3" fill="black" stroke="none" stroke-dasharray="none" font-family="Arial" font-size="10pt" font-weight="normal" font-style="normal" x="50" y="39.5" width="1" height="41" d="M13.44192 45M13.22304 27.73584C13.277759999999999 27.70848,13.33248 27.70848,13.41456 27.70848C13.6608 27.70848,13.87968 27.81792,13.96176 28.0368C13.98912 28.146240000000002,13.98912 28.146240000000002,13.98912 34.521119999999996L13.98912 40.950720000000004L14.01648 40.86864C15.05616 39.99312,16.15056 39.55536,17.19024 39.55536C17.60064 39.55536,18.01104 39.610079999999996,18.42144 39.77424C19.652639999999998 40.18464,20.30928 41.33376,20.30928 42.70176C20.30928 43.41312,20.0904 44.20656,19.68 45C19.07808 46.0944,18.311999999999998 46.96992,16.17792 48.88512L14.0712 50.8824C13.68816 51.26544,13.60608 51.26544,13.44192 51.26544C13.19568 51.26544,12.976799999999999 51.12864,12.89472 50.90976L12.86736 50.80032L12.86736 39.500640000000004L12.86736 28.146240000000002L12.89472 28.0368C12.976799999999999 27.92736,13.08624 27.7632,13.22304 27.73584M16.45152 41.41584C16.34208 41.36112,16.17792 41.36112,16.06848 41.36112C15.9864 41.36112,15.93168 41.36112,15.87696 41.36112C15.1656 41.47056,14.53632 41.90832,14.098559999999999 42.61968L13.98912 42.8112L13.98912 46.01232L13.98912 49.26816L14.0712 49.15872C16.06848 46.96992,17.38176 44.4528,17.38176 42.78384L17.38176 42.72912C17.38176 41.90832,17.108159999999998 41.55264,16.45152 41.41584"/><path stroke-width="0.3" fill="black" stroke="none" stroke-dasharray="none" font-family="Arial" font-size="10pt" font-weight="normal" font-style="normal" x="50" y="39.5" width="1" height="41" d="M21.88384 65M21.66496 47.735839999999996C21.71968 47.70848,21.7744 47.70848,21.856479999999998 47.70848C22.102719999999998 47.70848,22.3216 47.81792,22.403679999999998 48.0368C22.43104 48.146240000000006,22.43104 48.146240000000006,22.43104 54.521119999999996L22.43104 60.950720000000004L22.458399999999997 60.86864C23.498079999999998 59.99312,24.59248 59.55536,25.63216 59.55536C26.042559999999998 59.55536,26.452959999999997 59.610079999999996,26.86336 59.77424C28.094559999999998 60.18464,28.751199999999997 61.33376,28.751199999999997 62.70176C28.751199999999997 63.41312,28.53232 64.20656,28.12192 65C27.52 66.0944,26.75392 66.96992,24.61984 68.88512L22.51312 70.8824C22.13008 71.26544,22.048 71.26544,21.88384 71.26544C21.6376 71.26544,21.41872 71.12864,21.33664 70.90976L21.30928 70.80032L21.30928 59.500640000000004L21.30928 48.146240000000006L21.33664 48.0368C21.41872 47.92736,21.52816 47.7632,21.66496 47.735839999999996M24.89344 61.41584C24.784 61.36112,24.61984 61.36112,24.5104 61.36112C24.42832 61.36112,24.3736 61.36112,24.31888 61.36112C23.60752 61.47056,22.97824 61.90832,22.54048 62.61968L22.43104 62.8112L22.43104 66.01232L22.43104 69.26816L22.51312 69.15872C24.5104 66.96992,25.82368 64.4528,25.82368 62.78384L25.82368 62.72912C25.82368 61.90832,25.550079999999998 61.55264,24.89344 61.41584"/></svg>