<?xml version="1.0" standalone="no"?><!DOCTYPE svg PUBLIC "-//W3C//DTD SVG 1.1//EN" "http://www.w3.org/Graphics/SVG/1.1/DTD/svg11.dtd"><svg width="100" height="100" version="1.1" xmlns="http://www.w3.org/2000/svg" xmlns:xlink="http://www.w3.org/1999/xlink"><defs xmlns="http://www.w3.org/1999/xhtml"><style type="text/css"><![CDATA[
#playPause { width: 100px; height: 50px; text-align: center; display: block; margin: 20px auto 0px; cursor: pointer; }]]></style></defs><path stroke-width="1" fill="none" stroke="#999999" stroke-dasharray="none" font-family="Arial" font-size="10pt" font-weight="normal" font-style="normal" d="M0 40L100 40"/><path stroke-width="1" fill="none" stroke="#999999" stroke-dasharray="none" font-family="Arial" font-size="10pt" font-weight="normal" font-style="normal" d="M0 50L100 50"/><path stroke-width="1" fill="none" stroke="#999999" stroke-dasharray="none" font-family="Arial" font-size="10pt" font-weight="normal" font-style="normal" d="M0 60L100 60"/><path stroke-width="1" fill="none" stroke="#999999" stroke-dasharray="none" font-family="Arial" font-size="10pt" font-weight="normal" font-style="normal" d="M0 70L100 70"/><path stroke-width="1" fill="none" stroke="#999999" stroke-dasharray="none" font-family="Arial" font-size="10pt" font-weight="normal" font-style="normal" d="M0 80L100 80"/><g class="vf-stavenote" id="vf-auto1268"><g class="vf-note" pointer-events="bounding-box"><g class="vf-notehead" pointer-events="bounding-box"><path stroke-width="0.3" fill="black" stroke="none" stroke-dasharray="none" font-family="Arial" font-size="10pt" font-weight="normal" font-style="normal" x="100" y="39.5" width="1" height="41" d="M17 80M19.47104 71.51984C19.61144 71.51984,19.75184 71.49176,19.89224 71.49176C21.18392 71.49176,22.36328 72.4184,22.672159999999998 73.71008C22.72832 73.93472,22.7564 74.15935999999999,22.7564 74.41208C22.7564 75.14216,22.50368 75.87224,21.99824 76.37768L21.914 76.46192L22.11056 76.43384C23.62688 76.01264,24.97472 74.6648,25.62056 73.00808C25.64864 72.86768000000001,25.73288 72.75536,25.78904 72.72728C25.90136 72.5588,26.06984 72.50264,26.23832 72.50264C26.5472 72.50264,26.79992 72.72728,26.79992 73.06424C26.79992 73.20464,22.72832 87.24464,22.64408 87.38504C22.53176 87.5816,22.3352 87.66584,22.11056 87.66584C21.88592 87.66584,21.66128 87.55352,21.57704 87.3008C21.52088 87.27272,21.52088 87.24464,21.52088 87.18848C21.52088 86.96384,21.773600000000002 86.1776,23.09336 81.65672C23.935760000000002 78.79256,24.63776 76.43384,24.63776 76.37768C24.63776 76.37768,24.63776 76.37768,24.63776 76.37768C24.63776 76.37768,24.52544 76.46192,24.41312 76.57424C23.37416 77.36048,22.138640000000002 77.7536,20.9312 77.7536C19.86416 77.7536,18.8252 77.44472,18.01088 76.7708C17.2808 76.18111999999999,17 75.3668,17 74.55248C17 73.14848,17.89856 71.80064,19.47104 71.51984"/></g></g><g class="vf-modifiers"/></g><path stroke-width="1" fill="none" stroke="#999999" stroke-dasharray="none" font-family="Arial" font-size="10pt" font-weight="normal" font-style="normal" x="100" y="39.5" width="1" height="41" d="M48.38172 90L66.39996 90"/><g class="vf-stavenote" id="vf-auto1274"><g class="vf-note" pointer-events="bounding-box"><g class="vf-stem" pointer-events="bounding-box"><path stroke-width="1.5" fill="none" stroke="black" stroke-dasharray="none" font-family="Arial" font-size="10pt" font-weight="normal" font-style="normal" x="100" y="39.5" width="1" height="41" d="M62.64996 90L62.64996 35"/></g><g class="vf-notehead" pointer-events="bounding-box"><path stroke-width="0.3" fill="black" stroke="none" stroke-dasharray="none" font-family="Arial" font-size="10pt" font-weight="normal" font-style="normal" x="100" y="39.5" width="1" height="41" d="M51.38172 90M58.73868 84.77712C58.851 84.77712,59.01948 84.77712,59.047560000000004 84.77712C59.047560000000004 84.77712,59.07564 84.77712,59.07564 84.77712C59.07564 84.77712,59.24412 84.77712,59.38452 84.77712C61.91172 84.91752,63.39996 86.57424,63.39996 88.65216C63.39996 89.66304,63.063 90.81432,62.220600000000005 91.90944C60.62004 94.0716,58.0086 95.25096,55.734120000000004 95.25096C53.96508 95.25096,52.44876 94.54896,51.71868 93.11688C51.49404 92.55528,51.38172 92.02176,51.38172 91.43208C51.38172 88.37136,54.80748 84.97368,58.73868 84.77712"/></g><g class="vf-notehead" pointer-events="bounding-box"><path stroke-width="0.3" fill="black" stroke="none" stroke-dasharray="none" font-family="Arial" font-size="10pt" font-weight="normal" font-style="normal" x="100" y="39.5" width="1" height="41" d="M51.38172 70M58.73868 64.77712C58.851 64.77712,59.01948 64.77712,59.047560000000004 64.77712C59.047560000000004 64.77712,59.07564 64.77712,59.07564 64.77712C59.07564 64.77712,59.24412 64.77712,59.38452 64.77712C61.91172 64.91752,63.39996 66.57424,63.39996 68.65216C63.39996 69.66304,63.063 70.81432,62.220600000000005 71.90944C60.62004 74.0716,58.0086 75.25096,55.734120000000004 75.25096C53.96508 75.25096,52.44876 74.54896,51.71868 73.11688C51.49404 72.55528,51.38172 72.02176,51.38172 71.43208C51.38172 68.37136,54.80748 64.97368,58.73868 64.77712"/></g><g class="vf-flag" pointer-events="bounding-box"><path stroke-width="0.3" fill="black" stroke="none" stroke-dasharray="none" font-family="Arial" font-size="10pt" font-weight="normal" font-style="normal" x="100" y="39.5" width="1" height="41" d="M62.64996 33M61.97604 37.52088L61.97604 33.1404L62.08836 33.1404C62.397240000000004 33.1404,62.5938 33.33696,62.64996 33.67392C63.23964 36.48192,65.00868 39.54264,67.45164 41.8452C70.1754 44.40048,71.55132 47.91048,71.55132 51.5328C71.55132 54.958560000000006,70.34388 58.52472,67.90092 61.47312C67.47972 62.03472,67.45164 62.03472,67.17084 62.03472C66.83388 62.03472,66.60924 61.782,66.60924 61.445040000000006C66.60924 61.19232,66.63732 61.136160000000004,66.91812 60.82728C69.0522 58.24392,70.11924 55.12704,70.11924 52.15056C70.11924 49.51104,69.27683999999999 46.98384,67.53588 45.0744C66.46884 43.89504,64.50324 42.77184,62.00412 41.90136C62.00412 41.87328,61.97604 41.0028,61.97604 37.52088"/></g></g><g class="vf-modifiers"/></g></svg>