<?xml version="1.0" encoding="UTF-8" standalone="no"?>
<svg
   xmlns:xhtml="http://www.w3.org/1999/xhtml"
   xmlns:dc="http://purl.org/dc/elements/1.1/"
   xmlns:cc="http://creativecommons.org/ns#"
   xmlns:rdf="http://www.w3.org/1999/02/22-rdf-syntax-ns#"
   xmlns:svg="http://www.w3.org/2000/svg"
   xmlns="http://www.w3.org/2000/svg"
   id="svg1425"
   version="1.1"
   height="100"
   width="100">
  <metadata
     id="metadata1431">
    <rdf:RDF>
      <cc:Work
         rdf:about="">
        <dc:format>image/svg+xml</dc:format>
        <dc:type
           rdf:resource="http://purl.org/dc/dcmitype/StillImage" />
        <dc:title></dc:title>
      </cc:Work>
    </rdf:RDF>
  </metadata>
  <defs
     id="defs1429" />
  <xhtml:defs>
    <xhtml:style
       type="text/css"><![CDATA[
#playPause { width: 100px; height: 50px; text-align: center; display: block; margin: 20px auto 0px; cursor: pointer; }]]></xhtml:style>
  </xhtml:defs>
  <path
     style="font-style:normal;font-weight:normal;font-size:13.33333302px;font-family:Arial;fill:none;stroke:#999999;stroke-width:1;stroke-dasharray:none"
     id="path1336"
     d="M -100,40 H 100"
     font-style="normal"
     font-weight="normal"
     font-size="10pt" />
  <path
     style="font-style:normal;font-weight:normal;font-size:13.33333302px;font-family:Arial;fill:none;stroke:#999999;stroke-width:1;stroke-dasharray:none"
     id="path1338"
     d="M -100,50 H 100"
     font-style="normal"
     font-weight="normal"
     font-size="10pt" />
  <path
     style="font-style:normal;font-weight:normal;font-size:13.33333302px;font-family:Arial;fill:none;stroke:#999999;stroke-width:1;stroke-dasharray:none"
     id="path1340"
     d="M -100,60 H 100"
     font-style="normal"
     font-weight="normal"
     font-size="10pt" />
  <path
     style="font-style:normal;font-weight:normal;font-size:13.33333302px;font-family:Arial;fill:none;stroke:#999999;stroke-width:1;stroke-dasharray:none"
     id="path1342"
     d="M -100,70 H 100"
     font-style="normal"
     font-weight="normal"
     font-size="10pt" />
  <path
     style="font-style:normal;font-weight:normal;font-size:13.33333302px;font-family:Arial;fill:none;stroke:#999999;stroke-width:1;stroke-dasharray:none"
     id="path1344"
     d="M -100,80 H 100"
     font-style="normal"
     font-weight="normal"
     font-size="10pt" />
  <g
     transform="translate(-100)"
     id="vf-auto1268"
     class="vf-stavenote">
    <g
       id="g1350"
       pointer-events="bounding-box"
       class="vf-note">
      <g
         id="g1348"
         pointer-events="bounding-box"
         class="vf-notehead">
        <path
           style="font-style:normal;font-weight:normal;font-size:13.33333302px;font-family:Arial;fill:#000000;stroke:none;stroke-width:0.30000001;stroke-dasharray:none"
           id="path1346"
           d="m 17,80 m 2.47104,-8.48016 c 0.1404,0 0.2808,-0.02808 0.4212,-0.02808 1.29168,0 2.47104,0.92664 2.77992,2.21832 0.05616,0.22464 0.08424,0.44928 0.08424,0.702 0,0.73008 -0.25272,1.46016 -0.75816,1.9656 l -0.08424,0.08424 0.19656,-0.02808 c 1.51632,-0.4212 2.86416,-1.76904 3.51,-3.42576 0.02808,-0.1404 0.11232,-0.25272 0.16848,-0.2808 0.11232,-0.16848 0.2808,-0.22464 0.44928,-0.22464 0.30888,0 0.5616,0.22464 0.5616,0.5616 0,0.1404 -4.0716,14.1804 -4.15584,14.3208 -0.11232,0.19656 -0.30888,0.2808 -0.53352,0.2808 -0.22464,0 -0.44928,-0.11232 -0.53352,-0.36504 -0.05616,-0.02808 -0.05616,-0.05616 -0.05616,-0.11232 0,-0.22464 0.25272,-1.01088 1.57248,-5.53176 0.8424,-2.86416 1.5444,-5.22288 1.5444,-5.27904 0,0 0,0 0,0 0,0 -0.11232,0.08424 -0.22464,0.19656 -1.03896,0.78624 -2.27448,1.17936 -3.48192,1.17936 -1.06704,0 -2.106,-0.30888 -2.92032,-0.9828 C 17.2808,76.18112 17,75.3668 17,74.55248 c 0,-1.404 0.89856,-2.75184 2.47104,-3.03264"
           height="41"
           width="1"
           y="39.5"
           x="200"
           font-style="normal"
           font-weight="normal"
           font-size="10pt" />
      </g>
    </g>
    <g
       id="g1352"
       class="vf-modifiers" />
  </g>
  <path
     style="font-style:normal;font-weight:normal;font-size:13.33333302px;font-family:Arial;fill:none;stroke:#999999;stroke-width:1;stroke-dasharray:none"
     id="path1355"
     d="m -48.86828,90 h 18.01824"
     height="41"
     width="1"
     y="39.5"
     x="200"
     font-style="normal"
     font-weight="normal"
     font-size="10pt" />
  <g
     transform="translate(-100)"
     id="vf-auto1274"
     class="vf-stavenote">
    <g
       id="g1365"
       pointer-events="bounding-box"
       class="vf-note">
      <g
         id="g1359"
         pointer-events="bounding-box"
         class="vf-notehead">
        <path
           style="font-style:normal;font-weight:normal;font-size:13.33333302px;font-family:Arial;fill:#000000;stroke:none;stroke-width:0.30000001;stroke-dasharray:none"
           id="path1357"
           d="m 54.13172,90 m 7.35696,-5.22288 c 0.11232,0 0.2808,0 0.30888,0 0,0 0.02808,0 0.02808,0 0,0 0.16848,0 0.30888,0 2.5272,0.1404 4.01544,1.79712 4.01544,3.87504 0,1.01088 -0.33696,2.16216 -1.17936,3.25728 -1.60056,2.16216 -4.212,3.34152 -6.48648,3.34152 -1.76904,0 -3.28536,-0.702 -4.01544,-2.13408 -0.22464,-0.5616 -0.33696,-1.09512 -0.33696,-1.6848 0,-3.06072 3.42576,-6.4584 7.35696,-6.65496"
           height="41"
           width="1"
           y="39.5"
           x="200"
           font-style="normal"
           font-weight="normal"
           font-size="10pt" />
      </g>
      <g
         id="g1363"
         pointer-events="bounding-box"
         class="vf-notehead">
        <path
           style="font-style:normal;font-weight:normal;font-size:13.33333302px;font-family:Arial;fill:#000000;stroke:none;stroke-width:0.30000001;stroke-dasharray:none"
           id="path1361"
           d="m 54.13172,70 m 7.35696,-5.22288 c 0.11232,0 0.2808,0 0.30888,0 0,0 0.02808,0 0.02808,0 0,0 0.16848,0 0.30888,0 2.5272,0.1404 4.01544,1.79712 4.01544,3.87504 0,1.01088 -0.33696,2.16216 -1.17936,3.25728 -1.60056,2.16216 -4.212,3.34152 -6.48648,3.34152 -1.76904,0 -3.28536,-0.702 -4.01544,-2.13408 -0.22464,-0.5616 -0.33696,-1.09512 -0.33696,-1.6848 0,-3.06072 3.42576,-6.4584 7.35696,-6.65496"
           height="41"
           width="1"
           y="39.5"
           x="200"
           font-style="normal"
           font-weight="normal"
           font-size="10pt" />
      </g>
    </g>
    <g
       id="g1367"
       class="vf-modifiers" />
  </g>
  <path
     style="font-style:normal;font-weight:normal;font-size:13.33333302px;font-family:Arial;fill:none;stroke:#999999;stroke-width:1;stroke-dasharray:none"
     id="path1370"
     d="M -20.18414,90 H -2.1659"
     height="41"
     width="1"
     y="39.5"
     x="200"
     font-style="normal"
     font-weight="normal"
     font-size="10pt" />
  <g
     transform="translate(-100)"
     id="vf-auto1285"
     class="vf-stavenote">
    <g
       id="g1380"
       pointer-events="bounding-box"
       class="vf-note">
      <g
         id="g1374"
         pointer-events="bounding-box"
         class="vf-notehead">
        <path
           style="font-style:normal;font-weight:normal;font-size:13.33333302px;font-family:Arial;fill:#000000;stroke:none;stroke-width:0.30000001;stroke-dasharray:none"
           id="path1372"
           d="m 82.81586,90 m 7.35696,-5.22288 c 0.11232,0 0.2808,0 0.30888,0 0,0 0.02808,0 0.02808,0 0,0 0.16848,0 0.30888,0 2.5272,0.1404 4.01544,1.79712 4.01544,3.87504 0,1.01088 -0.33696,2.16216 -1.17936,3.25728 -1.60056,2.16216 -4.212,3.34152 -6.48648,3.34152 -1.76904,0 -3.28536,-0.702 -4.01544,-2.13408 -0.22464,-0.5616 -0.33696,-1.09512 -0.33696,-1.6848 0,-3.06072 3.42576,-6.4584 7.35696,-6.65496"
           height="41"
           width="1"
           y="39.5"
           x="200"
           font-style="normal"
           font-weight="normal"
           font-size="10pt" />
      </g>
      <g
         id="g1378"
         pointer-events="bounding-box"
         class="vf-notehead">
        <path
           style="font-style:normal;font-weight:normal;font-size:13.33333302px;font-family:Arial;fill:#000000;stroke:none;stroke-width:0.30000001;stroke-dasharray:none"
           id="path1376"
           d="m 82.81586,70 m 7.35696,-5.22288 c 0.11232,0 0.2808,0 0.30888,0 0,0 0.02808,0 0.02808,0 0,0 0.16848,0 0.30888,0 2.5272,0.1404 4.01544,1.79712 4.01544,3.87504 0,1.01088 -0.33696,2.16216 -1.17936,3.25728 -1.60056,2.16216 -4.212,3.34152 -6.48648,3.34152 -1.76904,0 -3.28536,-0.702 -4.01544,-2.13408 -0.22464,-0.5616 -0.33696,-1.09512 -0.33696,-1.6848 0,-3.06072 3.42576,-6.4584 7.35696,-6.65496"
           height="41"
           width="1"
           y="39.5"
           x="200"
           font-style="normal"
           font-weight="normal"
           font-size="10pt" />
      </g>
    </g>
    <g
       id="g1382"
       class="vf-modifiers" />
  </g>
  <path
     style="font-style:normal;font-weight:normal;font-size:13.33333302px;font-family:Arial;fill:none;stroke:#999999;stroke-width:1;stroke-dasharray:none"
     id="path1385"
     d="M 8.5,90 H 26.51824"
     height="41"
     width="1"
     y="39.5"
     x="200"
     font-style="normal"
     font-weight="normal"
     font-size="10pt" />
  <g
     transform="translate(-100)"
     id="vf-auto1297"
     class="vf-stavenote">
    <g
       id="g1403"
       pointer-events="bounding-box"
       class="vf-note">
      <g
         id="g1389"
         pointer-events="bounding-box"
         class="vf-stem">
        <path
           style="font-style:normal;font-weight:normal;font-size:13.33333302px;font-family:Arial;fill:none;stroke:#000000;stroke-width:1.5;stroke-dasharray:none"
           id="path1387"
           d="M 122.76824,90 V 35"
           height="41"
           width="1"
           y="39.5"
           x="200"
           font-style="normal"
           font-weight="normal"
           font-size="10pt" />
      </g>
      <g
         id="g1393"
         pointer-events="bounding-box"
         class="vf-notehead">
        <path
           style="font-style:normal;font-weight:normal;font-size:13.33333302px;font-family:Arial;fill:#000000;stroke:none;stroke-width:0.30000001;stroke-dasharray:none"
           id="path1391"
           d="m 111.5,90 m 7.35696,-5.22288 c 0.11232,0 0.2808,0 0.30888,0 0,0 0.0281,0 0.0281,0 0,0 0.16848,0 0.30888,0 2.5272,0.1404 4.01544,1.79712 4.01544,3.87504 0,1.01088 -0.33696,2.16216 -1.17936,3.25728 -1.60056,2.16216 -4.212,3.34152 -6.48648,3.34152 -1.76904,0 -3.28536,-0.702 -4.01544,-2.13408 -0.22464,-0.5616 -0.33696,-1.09512 -0.33696,-1.6848 0,-3.06072 3.42576,-6.4584 7.35696,-6.65496"
           height="41"
           width="1"
           y="39.5"
           x="200"
           font-style="normal"
           font-weight="normal"
           font-size="10pt" />
      </g>
      <g
         id="g1397"
         pointer-events="bounding-box"
         class="vf-notehead">
        <path
           style="font-style:normal;font-weight:normal;font-size:13.33333302px;font-family:Arial;fill:#000000;stroke:none;stroke-width:0.30000001;stroke-dasharray:none"
           id="path1395"
           d="m 111.5,70 m 7.35696,-5.22288 c 0.11232,0 0.2808,0 0.30888,0 0,0 0.0281,0 0.0281,0 0,0 0.16848,0 0.30888,0 2.5272,0.1404 4.01544,1.79712 4.01544,3.87504 0,1.01088 -0.33696,2.16216 -1.17936,3.25728 -1.60056,2.16216 -4.212,3.34152 -6.48648,3.34152 -1.76904,0 -3.28536,-0.702 -4.01544,-2.13408 -0.22464,-0.5616 -0.33696,-1.09512 -0.33696,-1.6848 0,-3.06072 3.42576,-6.4584 7.35696,-6.65496"
           height="41"
           width="1"
           y="39.5"
           x="200"
           font-style="normal"
           font-weight="normal"
           font-size="10pt" />
      </g>
      <g
         id="g1401"
         pointer-events="bounding-box"
         class="vf-flag">
        <path
           style="font-style:normal;font-weight:normal;font-size:13.33333302px;font-family:Arial;fill:#000000;stroke:none;stroke-width:0.30000001;stroke-dasharray:none"
           id="path1399"
           d="m 122.76824,33 m -0.67392,4.52088 V 33.1404 h 0.11232 c 0.30888,0 0.50544,0.19656 0.5616,0.53352 0.58968,2.808 2.35872,5.86872 4.80168,8.17128 2.72376,2.55528 4.09968,6.06528 4.09968,9.6876 0,3.42576 -1.20744,6.99192 -3.6504,9.94032 -0.4212,0.5616 -0.44928,0.5616 -0.73008,0.5616 -0.33696,0 -0.5616,-0.25272 -0.5616,-0.58968 0,-0.25272 0.0281,-0.30888 0.30888,-0.61776 2.13408,-2.58336 3.20112,-5.70024 3.20112,-8.67672 0,-2.63952 -0.8424,-5.16672 -2.58336,-7.07616 -1.06704,-1.17936 -3.03264,-2.30256 -5.53176,-3.17304 0,-0.02808 -0.0281,-0.89856 -0.0281,-4.38048"
           height="41"
           width="1"
           y="39.5"
           x="200"
           font-style="normal"
           font-weight="normal"
           font-size="10pt" />
      </g>
    </g>
    <g
       id="g1405"
       class="vf-modifiers" />
  </g>
  <g
     transform="translate(-100)"
     id="vf-auto1308"
     class="vf-stavenote">
    <g
       id="g1412"
       pointer-events="bounding-box"
       class="vf-note">
      <g
         id="g1410"
         pointer-events="bounding-box"
         class="vf-notehead">
        <path
           style="font-style:normal;font-weight:normal;font-size:13.33333302px;font-family:Arial;fill:#000000;stroke:none;stroke-width:0.30000001;stroke-dasharray:none"
           id="path1408"
           d="m 162.86828,80 m 2.47104,-8.48016 c 0.1404,0 0.2808,-0.02808 0.4212,-0.02808 1.29168,0 2.47104,0.92664 2.77992,2.21832 0.0562,0.22464 0.0842,0.44928 0.0842,0.702 0,0.73008 -0.25272,1.46016 -0.75816,1.9656 l -0.0842,0.08424 0.19656,-0.02808 c 1.51632,-0.4212 2.86416,-1.76904 3.51,-3.42576 0.0281,-0.1404 0.11232,-0.25272 0.16848,-0.2808 0.11232,-0.16848 0.2808,-0.22464 0.44928,-0.22464 0.30888,0 0.5616,0.22464 0.5616,0.5616 0,0.1404 -4.0716,14.1804 -4.15584,14.3208 -0.11232,0.19656 -0.30888,0.2808 -0.53352,0.2808 -0.22464,0 -0.44928,-0.11232 -0.53352,-0.36504 -0.0562,-0.02808 -0.0562,-0.05616 -0.0562,-0.11232 0,-0.22464 0.25272,-1.01088 1.57248,-5.53176 0.8424,-2.86416 1.5444,-5.22288 1.5444,-5.27904 0,0 0,0 0,0 0,0 -0.11232,0.08424 -0.22464,0.19656 -1.03896,0.78624 -2.27448,1.17936 -3.48192,1.17936 -1.06704,0 -2.106,-0.30888 -2.92032,-0.9828 -0.73008,-0.58968 -1.01088,-1.404 -1.01088,-2.21832 0,-1.404 0.89856,-2.75184 2.47104,-3.03264"
           height="41"
           width="1"
           y="39.5"
           x="200"
           font-style="normal"
           font-weight="normal"
           font-size="10pt" />
      </g>
    </g>
    <g
       id="g1414"
       class="vf-modifiers" />
  </g>
  <path
     style="font-style:normal;font-weight:normal;font-size:13.33333302px;font-family:Arial;fill:none;stroke:#000000;stroke-width:1.5;stroke-dasharray:none"
     id="path1417"
     d="M -34.60004,90 V 35.75"
     height="41"
     width="1"
     y="39.5"
     x="200"
     font-style="normal"
     font-weight="normal"
     font-size="10pt" />
  <path
     style="font-style:normal;font-weight:normal;font-size:13.33333302px;font-family:Arial;fill:none;stroke:#000000;stroke-width:1.5;stroke-dasharray:none"
     id="path1419"
     d="M -5.9159,90 V 35.75"
     height="41"
     width="1"
     y="39.5"
     x="200"
     font-style="normal"
     font-weight="normal"
     font-size="10pt" />
  <path
     style="font-style:normal;font-weight:normal;font-size:13.33333302px;font-family:Arial;fill:#000000;stroke:none;stroke-width:0.30000001;stroke-dasharray:none"
     id="path1421"
     d="m -35.35004,35 v 5 H -5.6659 v -5 z"
     height="41"
     width="1"
     y="39.5"
     x="200"
     font-style="normal"
     font-weight="normal"
     font-size="10pt" />
  <path
     style="font-style:normal;font-weight:normal;font-size:13.33333302px;font-family:Arial;fill:#000000;stroke:none;stroke-width:0.30000001;stroke-dasharray:none"
     id="path1423"
     d="m -35.35004,42.5 v 5 H -5.6659 v -5 z"
     height="41"
     width="1"
     y="39.5"
     x="200"
     font-style="normal"
     font-weight="normal"
     font-size="10pt" />
</svg>
