<?xml version="1.0" encoding="UTF-8" standalone="no"?>
<svg
   xmlns:xhtml="http://www.w3.org/1999/xhtml"
   xmlns:dc="http://purl.org/dc/elements/1.1/"
   xmlns:cc="http://creativecommons.org/ns#"
   xmlns:rdf="http://www.w3.org/1999/02/22-rdf-syntax-ns#"
   xmlns:svg="http://www.w3.org/2000/svg"
   xmlns="http://www.w3.org/2000/svg"
   id="svg8086"
   version="1.1"
   height="100"
   width="100">
  <metadata
     id="metadata8092">
    <rdf:RDF>
      <cc:Work
         rdf:about="">
        <dc:format>image/svg+xml</dc:format>
        <dc:type
           rdf:resource="http://purl.org/dc/dcmitype/StillImage" />
        <dc:title></dc:title>
      </cc:Work>
    </rdf:RDF>
  </metadata>
  <defs
     id="defs8090" />
  <xhtml:defs>
    <xhtml:style
       type="text/css"><![CDATA[
#playPause { width: 100px; height: 50px; text-align: center; display: block; margin: 20px auto 0px; cursor: pointer; }]]></xhtml:style>
  </xhtml:defs>
  <path
     style="font-style:normal;font-weight:normal;font-size:13.33333302px;font-family:Arial;fill:none;stroke:#999999;stroke-width:1;stroke-dasharray:none"
     id="path7993"
     d="M -100,40 H 100"
     font-style="normal"
     font-weight="normal"
     font-size="10pt" />
  <path
     style="font-style:normal;font-weight:normal;font-size:13.33333302px;font-family:Arial;fill:none;stroke:#999999;stroke-width:1;stroke-dasharray:none"
     id="path7995"
     d="M -100,50 H 100"
     font-style="normal"
     font-weight="normal"
     font-size="10pt" />
  <path
     style="font-style:normal;font-weight:normal;font-size:13.33333302px;font-family:Arial;fill:none;stroke:#999999;stroke-width:1;stroke-dasharray:none"
     id="path7997"
     d="M -100,60 H 100"
     font-style="normal"
     font-weight="normal"
     font-size="10pt" />
  <path
     style="font-style:normal;font-weight:normal;font-size:13.33333302px;font-family:Arial;fill:none;stroke:#999999;stroke-width:1;stroke-dasharray:none"
     id="path7999"
     d="M -100,70 H 100"
     font-style="normal"
     font-weight="normal"
     font-size="10pt" />
  <path
     style="font-style:normal;font-weight:normal;font-size:13.33333302px;font-family:Arial;fill:none;stroke:#999999;stroke-width:1;stroke-dasharray:none"
     id="path8001"
     d="M -100,80 H 100"
     font-style="normal"
     font-weight="normal"
     font-size="10pt" />
  <g
     transform="translate(-100)"
     id="vf-auto1268"
     class="vf-stavenote">
    <g
       id="g8007"
       pointer-events="bounding-box"
       class="vf-note">
      <g
         id="g8005"
         pointer-events="bounding-box"
         class="vf-notehead">
        <path
           style="font-style:normal;font-weight:normal;font-size:13.33333302px;font-family:Arial;fill:#000000;stroke:none;stroke-width:0.30000001;stroke-dasharray:none"
           id="path8003"
           d="m 17,80 m 2.47104,-8.48016 c 0.1404,0 0.2808,-0.02808 0.4212,-0.02808 1.29168,0 2.47104,0.92664 2.77992,2.21832 0.05616,0.22464 0.08424,0.44928 0.08424,0.702 0,0.73008 -0.25272,1.46016 -0.75816,1.9656 l -0.08424,0.08424 0.19656,-0.02808 c 1.51632,-0.4212 2.86416,-1.76904 3.51,-3.42576 0.02808,-0.1404 0.11232,-0.25272 0.16848,-0.2808 0.11232,-0.16848 0.2808,-0.22464 0.44928,-0.22464 0.30888,0 0.5616,0.22464 0.5616,0.5616 0,0.1404 -4.0716,14.1804 -4.15584,14.3208 -0.11232,0.19656 -0.30888,0.2808 -0.53352,0.2808 -0.22464,0 -0.44928,-0.11232 -0.53352,-0.36504 -0.05616,-0.02808 -0.05616,-0.05616 -0.05616,-0.11232 0,-0.22464 0.25272,-1.01088 1.57248,-5.53176 0.8424,-2.86416 1.5444,-5.22288 1.5444,-5.27904 0,0 0,0 0,0 0,0 -0.11232,0.08424 -0.22464,0.19656 -1.03896,0.78624 -2.27448,1.17936 -3.48192,1.17936 -1.06704,0 -2.106,-0.30888 -2.92032,-0.9828 C 17.2808,76.18112 17,75.3668 17,74.55248 c 0,-1.404 0.89856,-2.75184 2.47104,-3.03264"
           height="41"
           width="1"
           y="39.5"
           x="200"
           font-style="normal"
           font-weight="normal"
           font-size="10pt" />
      </g>
    </g>
    <g
       id="g8009"
       class="vf-modifiers" />
  </g>
  <path
     style="font-style:normal;font-weight:normal;font-size:13.33333302px;font-family:Arial;fill:none;stroke:#999999;stroke-width:1;stroke-dasharray:none"
     id="path8012"
     d="m -46.4183,90 h 18.01824"
     height="41"
     width="1"
     y="39.5"
     x="200"
     font-style="normal"
     font-weight="normal"
     font-size="10pt" />
  <g
     transform="translate(-100)"
     id="vf-auto1274"
     class="vf-stavenote">
    <g
       id="g8022"
       pointer-events="bounding-box"
       class="vf-note">
      <g
         id="g8016"
         pointer-events="bounding-box"
         class="vf-notehead">
        <path
           style="font-style:normal;font-weight:normal;font-size:13.33333302px;font-family:Arial;fill:#000000;stroke:none;stroke-width:0.30000001;stroke-dasharray:none"
           id="path8014"
           d="m 56.5817,90 m 7.35696,-5.22288 c 0.11232,0 0.2808,0 0.30888,0 0,0 0.02808,0 0.02808,0 0,0 0.16848,0 0.30888,0 2.5272,0.1404 4.01544,1.79712 4.01544,3.87504 0,1.01088 -0.33696,2.16216 -1.17936,3.25728 -1.60056,2.16216 -4.212,3.34152 -6.48648,3.34152 -1.76904,0 -3.28536,-0.702 -4.01544,-2.13408 -0.22464,-0.5616 -0.33696,-1.09512 -0.33696,-1.6848 0,-3.06072 3.42576,-6.4584 7.35696,-6.65496"
           height="41"
           width="1"
           y="39.5"
           x="200"
           font-style="normal"
           font-weight="normal"
           font-size="10pt" />
      </g>
      <g
         id="g8020"
         pointer-events="bounding-box"
         class="vf-notehead">
        <path
           style="font-style:normal;font-weight:normal;font-size:13.33333302px;font-family:Arial;fill:#000000;stroke:none;stroke-width:0.30000001;stroke-dasharray:none"
           id="path8018"
           d="m 56.5817,70 m 7.35696,-5.22288 c 0.11232,0 0.2808,0 0.30888,0 0,0 0.02808,0 0.02808,0 0,0 0.16848,0 0.30888,0 2.5272,0.1404 4.01544,1.79712 4.01544,3.87504 0,1.01088 -0.33696,2.16216 -1.17936,3.25728 -1.60056,2.16216 -4.212,3.34152 -6.48648,3.34152 -1.76904,0 -3.28536,-0.702 -4.01544,-2.13408 -0.22464,-0.5616 -0.33696,-1.09512 -0.33696,-1.6848 0,-3.06072 3.42576,-6.4584 7.35696,-6.65496"
           height="41"
           width="1"
           y="39.5"
           x="200"
           font-style="normal"
           font-weight="normal"
           font-size="10pt" />
      </g>
    </g>
    <g
       id="g8024"
       class="vf-modifiers" />
  </g>
  <path
     style="font-style:normal;font-weight:normal;font-size:13.33333302px;font-family:Arial;fill:none;stroke:#999999;stroke-width:1;stroke-dasharray:none"
     id="path8027"
     d="M -16.50917,90 H 1.50907"
     height="41"
     width="1"
     y="39.5"
     x="200"
     font-style="normal"
     font-weight="normal"
     font-size="10pt" />
  <g
     transform="translate(-100)"
     id="vf-auto1285"
     class="vf-stavenote">
    <g
       id="g8037"
       pointer-events="bounding-box"
       class="vf-note">
      <g
         id="g8031"
         pointer-events="bounding-box"
         class="vf-notehead">
        <path
           style="font-style:normal;font-weight:normal;font-size:13.33333302px;font-family:Arial;fill:#000000;stroke:none;stroke-width:0.30000001;stroke-dasharray:none"
           id="path8029"
           d="m 86.49083,90 m 7.35696,-5.22288 c 0.11232,0 0.2808,0 0.30888,0 0,0 0.02808,0 0.02808,0 0,0 0.16848,0 0.30888,0 2.5272,0.1404 4.01544,1.79712 4.01544,3.87504 0,1.01088 -0.33696,2.16216 -1.17936,3.25728 -1.60056,2.16216 -4.212,3.34152 -6.48648,3.34152 -1.76904,0 -3.28536,-0.702 -4.01544,-2.13408 -0.22464,-0.5616 -0.33696,-1.09512 -0.33696,-1.6848 0,-3.06072 3.42576,-6.4584 7.35696,-6.65496"
           height="41"
           width="1"
           y="39.5"
           x="200"
           font-style="normal"
           font-weight="normal"
           font-size="10pt" />
      </g>
      <g
         id="g8035"
         pointer-events="bounding-box"
         class="vf-notehead">
        <path
           style="font-style:normal;font-weight:normal;font-size:13.33333302px;font-family:Arial;fill:#000000;stroke:none;stroke-width:0.30000001;stroke-dasharray:none"
           id="path8033"
           d="m 86.49083,70 m 7.35696,-5.22288 c 0.11232,0 0.2808,0 0.30888,0 0,0 0.02808,0 0.02808,0 0,0 0.16848,0 0.30888,0 2.5272,0.1404 4.01544,1.79712 4.01544,3.87504 0,1.01088 -0.33696,2.16216 -1.17936,3.25728 -1.60056,2.16216 -4.212,3.34152 -6.48648,3.34152 -1.76904,0 -3.28536,-0.702 -4.01544,-2.13408 -0.22464,-0.5616 -0.33696,-1.09512 -0.33696,-1.6848 0,-3.06072 3.42576,-6.4584 7.35696,-6.65496"
           height="41"
           width="1"
           y="39.5"
           x="200"
           font-style="normal"
           font-weight="normal"
           font-size="10pt" />
      </g>
    </g>
    <g
       id="g8039"
       class="vf-modifiers" />
  </g>
  <path
     style="font-style:normal;font-weight:normal;font-size:13.33333302px;font-family:Arial;fill:none;stroke:#999999;stroke-width:1;stroke-dasharray:none"
     id="path8042"
     d="M 13.39996,90 H 31.4182"
     height="41"
     width="1"
     y="39.5"
     x="200"
     font-style="normal"
     font-weight="normal"
     font-size="10pt" />
  <g
     transform="translate(-100)"
     id="vf-auto1297"
     class="vf-stavenote">
    <g
       id="g8052"
       pointer-events="bounding-box"
       class="vf-note">
      <g
         id="g8046"
         pointer-events="bounding-box"
         class="vf-notehead">
        <path
           style="font-style:normal;font-weight:normal;font-size:13.33333302px;font-family:Arial;fill:#000000;stroke:none;stroke-width:0.30000001;stroke-dasharray:none"
           id="path8044"
           d="m 116.39996,90 m 7.35696,-5.22288 c 0.11232,0 0.2808,0 0.30888,0 0,0 0.0281,0 0.0281,0 0,0 0.16848,0 0.30888,0 2.5272,0.1404 4.01544,1.79712 4.01544,3.87504 0,1.01088 -0.33696,2.16216 -1.17936,3.25728 -1.60056,2.16216 -4.212,3.34152 -6.48648,3.34152 -1.76904,0 -3.28536,-0.702 -4.01544,-2.13408 -0.22464,-0.5616 -0.33696,-1.09512 -0.33696,-1.6848 0,-3.06072 3.42576,-6.4584 7.35696,-6.65496"
           height="41"
           width="1"
           y="39.5"
           x="200"
           font-style="normal"
           font-weight="normal"
           font-size="10pt" />
      </g>
      <g
         id="g8050"
         pointer-events="bounding-box"
         class="vf-notehead">
        <path
           style="font-style:normal;font-weight:normal;font-size:13.33333302px;font-family:Arial;fill:#000000;stroke:none;stroke-width:0.30000001;stroke-dasharray:none"
           id="path8048"
           d="m 116.39996,70 m 7.35696,-5.22288 c 0.11232,0 0.2808,0 0.30888,0 0,0 0.0281,0 0.0281,0 0,0 0.16848,0 0.30888,0 2.5272,0.1404 4.01544,1.79712 4.01544,3.87504 0,1.01088 -0.33696,2.16216 -1.17936,3.25728 -1.60056,2.16216 -4.212,3.34152 -6.48648,3.34152 -1.76904,0 -3.28536,-0.702 -4.01544,-2.13408 -0.22464,-0.5616 -0.33696,-1.09512 -0.33696,-1.6848 0,-3.06072 3.42576,-6.4584 7.35696,-6.65496"
           height="41"
           width="1"
           y="39.5"
           x="200"
           font-style="normal"
           font-weight="normal"
           font-size="10pt" />
      </g>
    </g>
    <g
       id="g8054"
       class="vf-modifiers" />
  </g>
  <path
     style="font-style:normal;font-weight:normal;font-size:13.33333302px;font-family:Arial;fill:none;stroke:#999999;stroke-width:1;stroke-dasharray:none"
     id="path8057"
     d="M 55.19998,90 H 73.21822"
     height="41"
     width="1"
     y="39.5"
     x="200"
     font-style="normal"
     font-weight="normal"
     font-size="10pt" />
  <g
     transform="translate(-100)"
     id="vf-auto1308"
     class="vf-stavenote">
    <g
       id="g8067"
       pointer-events="bounding-box"
       class="vf-note">
      <g
         id="g8061"
         pointer-events="bounding-box"
         class="vf-notehead">
        <path
           style="font-style:normal;font-weight:normal;font-size:13.33333302px;font-family:Arial;fill:#000000;stroke:none;stroke-width:0.30000001;stroke-dasharray:none"
           id="path8059"
           d="m 158.19998,90 m 7.35696,-5.22288 c 0.11232,0 0.2808,0 0.30888,0 0,0 0.0281,0 0.0281,0 0,0 0.16848,0 0.30888,0 2.5272,0.1404 4.01544,1.79712 4.01544,3.87504 0,1.01088 -0.33696,2.16216 -1.17936,3.25728 -1.60056,2.16216 -4.212,3.34152 -6.48648,3.34152 -1.76904,0 -3.28536,-0.702 -4.01544,-2.13408 -0.22464,-0.5616 -0.33696,-1.09512 -0.33696,-1.6848 0,-3.06072 3.42576,-6.4584 7.35696,-6.65496"
           height="41"
           width="1"
           y="39.5"
           x="200"
           font-style="normal"
           font-weight="normal"
           font-size="10pt" />
      </g>
      <g
         id="g8065"
         pointer-events="bounding-box"
         class="vf-notehead">
        <path
           style="font-style:normal;font-weight:normal;font-size:13.33333302px;font-family:Arial;fill:#000000;stroke:none;stroke-width:0.30000001;stroke-dasharray:none"
           id="path8063"
           d="m 158.19998,70 m 7.35696,-5.22288 c 0.11232,0 0.2808,0 0.30888,0 0,0 0.0281,0 0.0281,0 0,0 0.16848,0 0.30888,0 2.5272,0.1404 4.01544,1.79712 4.01544,3.87504 0,1.01088 -0.33696,2.16216 -1.17936,3.25728 -1.60056,2.16216 -4.212,3.34152 -6.48648,3.34152 -1.76904,0 -3.28536,-0.702 -4.01544,-2.13408 -0.22464,-0.5616 -0.33696,-1.09512 -0.33696,-1.6848 0,-3.06072 3.42576,-6.4584 7.35696,-6.65496"
           height="41"
           width="1"
           y="39.5"
           x="200"
           font-style="normal"
           font-weight="normal"
           font-size="10pt" />
      </g>
    </g>
    <g
       id="g8069"
       class="vf-modifiers" />
  </g>
  <path
     style="font-style:normal;font-weight:normal;font-size:13.33333302px;font-family:Arial;fill:none;stroke:#000000;stroke-width:1.5;stroke-dasharray:none"
     id="path8072"
     d="M -32.15006,90 V 35.75"
     height="41"
     width="1"
     y="39.5"
     x="200"
     font-style="normal"
     font-weight="normal"
     font-size="10pt" />
  <path
     style="font-style:normal;font-weight:normal;font-size:13.33333302px;font-family:Arial;fill:none;stroke:#000000;stroke-width:1.5;stroke-dasharray:none"
     id="path8074"
     d="M -2.24093,90 V 35.75"
     height="41"
     width="1"
     y="39.5"
     x="200"
     font-style="normal"
     font-weight="normal"
     font-size="10pt" />
  <path
     style="font-style:normal;font-weight:normal;font-size:13.33333302px;font-family:Arial;fill:#000000;stroke:none;stroke-width:0.30000001;stroke-dasharray:none"
     id="path8076"
     d="m -32.90006,35 v 5 h 30.90913 v -5 z"
     height="41"
     width="1"
     y="39.5"
     x="200"
     font-style="normal"
     font-weight="normal"
     font-size="10pt" />
  <path
     style="font-style:normal;font-weight:normal;font-size:13.33333302px;font-family:Arial;fill:#000000;stroke:none;stroke-width:0.30000001;stroke-dasharray:none"
     id="path8078"
     d="m -32.90006,42.5 v 5 h 30.90913 v -5 z"
     height="41"
     width="1"
     y="39.5"
     x="200"
     font-style="normal"
     font-weight="normal"
     font-size="10pt" />
  <path
     style="font-style:normal;font-weight:normal;font-size:13.33333302px;font-family:Arial;fill:none;stroke:#000000;stroke-width:1.5;stroke-dasharray:none"
     id="path8080"
     d="M 27.6682,90 V 35.75"
     height="41"
     width="1"
     y="39.5"
     x="200"
     font-style="normal"
     font-weight="normal"
     font-size="10pt" />
  <path
     style="font-style:normal;font-weight:normal;font-size:13.33333302px;font-family:Arial;fill:none;stroke:#000000;stroke-width:1.5;stroke-dasharray:none"
     id="path8082"
     d="M 69.46822,90 V 35.75"
     height="41"
     width="1"
     y="39.5"
     x="200"
     font-style="normal"
     font-weight="normal"
     font-size="10pt" />
  <path
     style="font-style:normal;font-weight:normal;font-size:13.33333302px;font-family:Arial;fill:#000000;stroke:none;stroke-width:0.30000001;stroke-dasharray:none"
     id="path8084"
     d="m 26.9182,35 v 5 h 42.80002 v -5 z"
     height="41"
     width="1"
     y="39.5"
     x="200"
     font-style="normal"
     font-weight="normal"
     font-size="10pt" />
</svg>
