<?xml version="1.0" standalone="no"?><!DOCTYPE svg PUBLIC "-//W3C//DTD SVG 1.1//EN" "http://www.w3.org/Graphics/SVG/1.1/DTD/svg11.dtd"><svg width="200" height="100" version="1.1" xmlns="http://www.w3.org/2000/svg" xmlns:xlink="http://www.w3.org/1999/xlink"><defs xmlns="http://www.w3.org/1999/xhtml"><style type="text/css"><![CDATA[
#playPause { width: 100px; height: 50px; text-align: center; display: block; margin: 20px auto 0px; cursor: pointer; }]]></style></defs><path stroke-width="1" fill="none" stroke="#999999" stroke-dasharray="none" font-family="Arial" font-size="10pt" font-weight="normal" font-style="normal" d="M0 40L200 40"/><path stroke-width="1" fill="none" stroke="#999999" stroke-dasharray="none" font-family="Arial" font-size="10pt" font-weight="normal" font-style="normal" d="M0 50L200 50"/><path stroke-width="1" fill="none" stroke="#999999" stroke-dasharray="none" font-family="Arial" font-size="10pt" font-weight="normal" font-style="normal" d="M0 60L200 60"/><path stroke-width="1" fill="none" stroke="#999999" stroke-dasharray="none" font-family="Arial" font-size="10pt" font-weight="normal" font-style="normal" d="M0 70L200 70"/><path stroke-width="1" fill="none" stroke="#999999" stroke-dasharray="none" font-family="Arial" font-size="10pt" font-weight="normal" font-style="normal" d="M0 80L200 80"/><g class="vf-stavenote" id="vf-auto1268"><g class="vf-note" pointer-events="bounding-box"><g class="vf-notehead" pointer-events="bounding-box"><path stroke-width="0.3" fill="black" stroke="none" stroke-dasharray="none" font-family="Arial" font-size="10pt" font-weight="normal" font-style="normal" x="200" y="39.5" width="1" height="41" d="M17 80M19.47104 71.51984C19.61144 71.51984,19.75184 71.49176,19.89224 71.49176C21.18392 71.49176,22.36328 72.4184,22.672159999999998 73.71008C22.72832 73.93472,22.7564 74.15935999999999,22.7564 74.41208C22.7564 75.14216,22.50368 75.87224,21.99824 76.37768L21.914 76.46192L22.11056 76.43384C23.62688 76.01264,24.97472 74.6648,25.62056 73.00808C25.64864 72.86768000000001,25.73288 72.75536,25.78904 72.72728C25.90136 72.5588,26.06984 72.50264,26.23832 72.50264C26.5472 72.50264,26.79992 72.72728,26.79992 73.06424C26.79992 73.20464,22.72832 87.24464,22.64408 87.38504C22.53176 87.5816,22.3352 87.66584,22.11056 87.66584C21.88592 87.66584,21.66128 87.55352,21.57704 87.3008C21.52088 87.27272,21.52088 87.24464,21.52088 87.18848C21.52088 86.96384,21.773600000000002 86.1776,23.09336 81.65672C23.935760000000002 78.79256,24.63776 76.43384,24.63776 76.37768C24.63776 76.37768,24.63776 76.37768,24.63776 76.37768C24.63776 76.37768,24.52544 76.46192,24.41312 76.57424C23.37416 77.36048,22.138640000000002 77.7536,20.9312 77.7536C19.86416 77.7536,18.8252 77.44472,18.01088 76.7708C17.2808 76.18111999999999,17 75.3668,17 74.55248C17 73.14848,17.89856 71.80064,19.47104 71.51984"/></g></g><g class="vf-modifiers"/></g><path stroke-width="1" fill="none" stroke="#999999" stroke-dasharray="none" font-family="Arial" font-size="10pt" font-weight="normal" font-style="normal" x="200" y="39.5" width="1" height="41" d="M44.57258000000001 90L62.59082000000001 90"/><g class="vf-stavenote" id="vf-auto1274"><g class="vf-note" pointer-events="bounding-box"><g class="vf-notehead" pointer-events="bounding-box"><path stroke-width="0.3" fill="black" stroke="none" stroke-dasharray="none" font-family="Arial" font-size="10pt" font-weight="normal" font-style="normal" x="200" y="39.5" width="1" height="41" d="M47.57258000000001 90M54.92954000000001 84.77712C55.04186000000001 84.77712,55.21034000000001 84.77712,55.23842000000001 84.77712C55.23842000000001 84.77712,55.26650000000001 84.77712,55.26650000000001 84.77712C55.26650000000001 84.77712,55.43498000000001 84.77712,55.57538000000001 84.77712C58.10258000000001 84.91752,59.59082000000001 86.57424,59.59082000000001 88.65216C59.59082000000001 89.66304,59.25386000000001 90.81432,58.411460000000005 91.90944C56.81090000000001 94.0716,54.19946000000001 95.25096,51.92498000000001 95.25096C50.15594000000001 95.25096,48.63962000000001 94.54896,47.90954000000001 93.11688C47.684900000000006 92.55528,47.57258000000001 92.02176,47.57258000000001 91.43208C47.57258000000001 88.37136,50.998340000000006 84.97368,54.92954000000001 84.77712"/></g><g class="vf-notehead" pointer-events="bounding-box"><path stroke-width="0.3" fill="black" stroke="none" stroke-dasharray="none" font-family="Arial" font-size="10pt" font-weight="normal" font-style="normal" x="200" y="39.5" width="1" height="41" d="M47.57258000000001 70M54.92954000000001 64.77712C55.04186000000001 64.77712,55.21034000000001 64.77712,55.23842000000001 64.77712C55.23842000000001 64.77712,55.26650000000001 64.77712,55.26650000000001 64.77712C55.26650000000001 64.77712,55.43498000000001 64.77712,55.57538000000001 64.77712C58.10258000000001 64.91752,59.59082000000001 66.57424,59.59082000000001 68.65216C59.59082000000001 69.66304,59.25386000000001 70.81432,58.411460000000005 71.90944C56.81090000000001 74.0716,54.19946000000001 75.25096,51.92498000000001 75.25096C50.15594000000001 75.25096,48.63962000000001 74.54896,47.90954000000001 73.11688C47.684900000000006 72.55528,47.57258000000001 72.02176,47.57258000000001 71.43208C47.57258000000001 68.37136,50.998340000000006 64.97368,54.92954000000001 64.77712"/></g></g><g class="vf-modifiers"/></g><path stroke-width="1" fill="none" stroke="#999999" stroke-dasharray="none" font-family="Arial" font-size="10pt" font-weight="normal" font-style="normal" x="200" y="39.5" width="1" height="41" d="M69.97715000000001 90L87.99539000000001 90"/><g class="vf-stavenote" id="vf-auto1285"><g class="vf-note" pointer-events="bounding-box"><g class="vf-notehead" pointer-events="bounding-box"><path stroke-width="0.3" fill="black" stroke="none" stroke-dasharray="none" font-family="Arial" font-size="10pt" font-weight="normal" font-style="normal" x="200" y="39.5" width="1" height="41" d="M72.97715000000001 90M80.33411000000001 84.77712C80.44643 84.77712,80.61491000000001 84.77712,80.64299000000001 84.77712C80.64299000000001 84.77712,80.67107000000001 84.77712,80.67107000000001 84.77712C80.67107000000001 84.77712,80.83955 84.77712,80.97995 84.77712C83.50715000000001 84.91752,84.99539000000001 86.57424,84.99539000000001 88.65216C84.99539000000001 89.66304,84.65843000000001 90.81432,83.81603000000001 91.90944C82.21547000000001 94.0716,79.60403000000001 95.25096,77.32955000000001 95.25096C75.56051000000001 95.25096,74.04419000000001 94.54896,73.31411000000001 93.11688C73.08947 92.55528,72.97715000000001 92.02176,72.97715000000001 91.43208C72.97715000000001 88.37136,76.40291 84.97368,80.33411000000001 84.77712"/></g><g class="vf-notehead" pointer-events="bounding-box"><path stroke-width="0.3" fill="black" stroke="none" stroke-dasharray="none" font-family="Arial" font-size="10pt" font-weight="normal" font-style="normal" x="200" y="39.5" width="1" height="41" d="M72.97715000000001 70M80.33411000000001 64.77712C80.44643 64.77712,80.61491000000001 64.77712,80.64299000000001 64.77712C80.64299000000001 64.77712,80.67107000000001 64.77712,80.67107000000001 64.77712C80.67107000000001 64.77712,80.83955 64.77712,80.97995 64.77712C83.50715000000001 64.91752,84.99539000000001 66.57424,84.99539000000001 68.65216C84.99539000000001 69.66304,84.65843000000001 70.81432,83.81603000000001 71.90944C82.21547000000001 74.0716,79.60403000000001 75.25096,77.32955000000001 75.25096C75.56051000000001 75.25096,74.04419000000001 74.54896,73.31411000000001 73.11688C73.08947 72.55528,72.97715000000001 72.02176,72.97715000000001 71.43208C72.97715000000001 68.37136,76.40291 64.97368,80.33411000000001 64.77712"/></g></g><g class="vf-modifiers"/></g><path stroke-width="1" fill="none" stroke="#999999" stroke-dasharray="none" font-family="Arial" font-size="10pt" font-weight="normal" font-style="normal" x="200" y="39.5" width="1" height="41" d="M95.38172000000002 90L113.39996000000002 90"/><g class="vf-stavenote" id="vf-auto1297"><g class="vf-note" pointer-events="bounding-box"><g class="vf-notehead" pointer-events="bounding-box"><path stroke-width="0.3" fill="black" stroke="none" stroke-dasharray="none" font-family="Arial" font-size="10pt" font-weight="normal" font-style="normal" x="200" y="39.5" width="1" height="41" d="M98.38172000000002 90M105.73868000000002 84.77712C105.85100000000001 84.77712,106.01948000000002 84.77712,106.04756000000002 84.77712C106.04756000000002 84.77712,106.07564000000002 84.77712,106.07564000000002 84.77712C106.07564000000002 84.77712,106.24412000000001 84.77712,106.38452000000001 84.77712C108.91172000000002 84.91752,110.39996000000002 86.57424,110.39996000000002 88.65216C110.39996000000002 89.66304,110.06300000000002 90.81432,109.22060000000002 91.90944C107.62004000000002 94.0716,105.00860000000002 95.25096,102.73412000000002 95.25096C100.96508000000001 95.25096,99.44876000000002 94.54896,98.71868000000002 93.11688C98.49404000000001 92.55528,98.38172000000002 92.02176,98.38172000000002 91.43208C98.38172000000002 88.37136,101.80748000000001 84.97368,105.73868000000002 84.77712"/></g><g class="vf-notehead" pointer-events="bounding-box"><path stroke-width="0.3" fill="black" stroke="none" stroke-dasharray="none" font-family="Arial" font-size="10pt" font-weight="normal" font-style="normal" x="200" y="39.5" width="1" height="41" d="M98.38172000000002 70M105.73868000000002 64.77712C105.85100000000001 64.77712,106.01948000000002 64.77712,106.04756000000002 64.77712C106.04756000000002 64.77712,106.07564000000002 64.77712,106.07564000000002 64.77712C106.07564000000002 64.77712,106.24412000000001 64.77712,106.38452000000001 64.77712C108.91172000000002 64.91752,110.39996000000002 66.57424,110.39996000000002 68.65216C110.39996000000002 69.66304,110.06300000000002 70.81432,109.22060000000002 71.90944C107.62004000000002 74.0716,105.00860000000002 75.25096,102.73412000000002 75.25096C100.96508000000001 75.25096,99.44876000000002 74.54896,98.71868000000002 73.11688C98.49404000000001 72.55528,98.38172000000002 72.02176,98.38172000000002 71.43208C98.38172000000002 68.37136,101.80748000000001 64.97368,105.73868000000002 64.77712"/></g></g><g class="vf-modifiers"/></g><path stroke-width="1" fill="none" stroke="#999999" stroke-dasharray="none" font-family="Arial" font-size="10pt" font-weight="normal" font-style="normal" x="200" y="39.5" width="1" height="41" d="M120.78629000000001 90L138.80453 90"/><g class="vf-stavenote" id="vf-auto1308"><g class="vf-note" pointer-events="bounding-box"><g class="vf-notehead" pointer-events="bounding-box"><path stroke-width="0.3" fill="black" stroke="none" stroke-dasharray="none" font-family="Arial" font-size="10pt" font-weight="normal" font-style="normal" x="200" y="39.5" width="1" height="41" d="M123.78629000000001 90M131.14325 84.77712C131.25557 84.77712,131.42405000000002 84.77712,131.45213 84.77712C131.45213 84.77712,131.48021 84.77712,131.48021 84.77712C131.48021 84.77712,131.64869000000002 84.77712,131.78909000000002 84.77712C134.31629 84.91752,135.80453 86.57424,135.80453 88.65216C135.80453 89.66304,135.46757000000002 90.81432,134.62517 91.90944C133.02461 94.0716,130.41317 95.25096,128.13869 95.25096C126.36965000000001 95.25096,124.85333000000001 94.54896,124.12325000000001 93.11688C123.89861 92.55528,123.78629000000001 92.02176,123.78629000000001 91.43208C123.78629000000001 88.37136,127.21205 84.97368,131.14325 84.77712"/></g><g class="vf-notehead" pointer-events="bounding-box"><path stroke-width="0.3" fill="black" stroke="none" stroke-dasharray="none" font-family="Arial" font-size="10pt" font-weight="normal" font-style="normal" x="200" y="39.5" width="1" height="41" d="M123.78629000000001 70M131.14325 64.77712C131.25557 64.77712,131.42405000000002 64.77712,131.45213 64.77712C131.45213 64.77712,131.48021 64.77712,131.48021 64.77712C131.48021 64.77712,131.64869000000002 64.77712,131.78909000000002 64.77712C134.31629 64.91752,135.80453 66.57424,135.80453 68.65216C135.80453 69.66304,135.46757000000002 70.81432,134.62517 71.90944C133.02461 74.0716,130.41317 75.25096,128.13869 75.25096C126.36965000000001 75.25096,124.85333000000001 74.54896,124.12325000000001 73.11688C123.89861 72.55528,123.78629000000001 72.02176,123.78629000000001 71.43208C123.78629000000001 68.37136,127.21205 64.97368,131.14325 64.77712"/></g></g><g class="vf-modifiers"/></g><path stroke-width="1" fill="none" stroke="#999999" stroke-dasharray="none" font-family="Arial" font-size="10pt" font-weight="normal" font-style="normal" x="200" y="39.5" width="1" height="41" d="M146.19086 90L164.20909999999998 90"/><g class="vf-stavenote" id="vf-auto1319"><g class="vf-note" pointer-events="bounding-box"><g class="vf-notehead" pointer-events="bounding-box"><path stroke-width="0.3" fill="black" stroke="none" stroke-dasharray="none" font-family="Arial" font-size="10pt" font-weight="normal" font-style="normal" x="200" y="39.5" width="1" height="41" d="M149.19086 90M156.54781999999997 84.77712C156.66013999999998 84.77712,156.82862 84.77712,156.8567 84.77712C156.8567 84.77712,156.88477999999998 84.77712,156.88477999999998 84.77712C156.88477999999998 84.77712,157.05326 84.77712,157.19366 84.77712C159.72086 84.91752,161.20909999999998 86.57424,161.20909999999998 88.65216C161.20909999999998 89.66304,160.87214 90.81432,160.02973999999998 91.90944C158.42917999999997 94.0716,155.81774 95.25096,153.54325999999998 95.25096C151.77421999999999 95.25096,150.25789999999998 94.54896,149.52782 93.11688C149.30318 92.55528,149.19086 92.02176,149.19086 91.43208C149.19086 88.37136,152.61661999999998 84.97368,156.54781999999997 84.77712"/></g><g class="vf-notehead" pointer-events="bounding-box"><path stroke-width="0.3" fill="black" stroke="none" stroke-dasharray="none" font-family="Arial" font-size="10pt" font-weight="normal" font-style="normal" x="200" y="39.5" width="1" height="41" d="M149.19086 70M156.54781999999997 64.77712C156.66013999999998 64.77712,156.82862 64.77712,156.8567 64.77712C156.8567 64.77712,156.88477999999998 64.77712,156.88477999999998 64.77712C156.88477999999998 64.77712,157.05326 64.77712,157.19366 64.77712C159.72086 64.91752,161.20909999999998 66.57424,161.20909999999998 68.65216C161.20909999999998 69.66304,160.87214 70.81432,160.02973999999998 71.90944C158.42917999999997 74.0716,155.81774 75.25096,153.54325999999998 75.25096C151.77421999999999 75.25096,150.25789999999998 74.54896,149.52782 73.11688C149.30318 72.55528,149.19086 72.02176,149.19086 71.43208C149.19086 68.37136,152.61661999999998 64.97368,156.54781999999997 64.77712"/></g></g><g class="vf-modifiers"/></g><path stroke-width="1" fill="none" stroke="#999999" stroke-dasharray="none" font-family="Arial" font-size="10pt" font-weight="normal" font-style="normal" x="200" y="39.5" width="1" height="41" d="M171.59543 90L189.61366999999998 90"/><g class="vf-stavenote" id="vf-auto1330"><g class="vf-note" pointer-events="bounding-box"><g class="vf-notehead" pointer-events="bounding-box"><path stroke-width="0.3" fill="black" stroke="none" stroke-dasharray="none" font-family="Arial" font-size="10pt" font-weight="normal" font-style="normal" x="200" y="39.5" width="1" height="41" d="M174.59543 90M181.95238999999998 84.77712C182.06471 84.77712,182.23318999999998 84.77712,182.26127 84.77712C182.26127 84.77712,182.28934999999998 84.77712,182.28934999999998 84.77712C182.28934999999998 84.77712,182.45783 84.77712,182.59823 84.77712C185.12543 84.91752,186.61366999999998 86.57424,186.61366999999998 88.65216C186.61366999999998 89.66304,186.27670999999998 90.81432,185.43430999999998 91.90944C183.83374999999998 94.0716,181.22231 95.25096,178.94782999999998 95.25096C177.17879 95.25096,175.66246999999998 94.54896,174.93239 93.11688C174.70775 92.55528,174.59543 92.02176,174.59543 91.43208C174.59543 88.37136,178.02119 84.97368,181.95238999999998 84.77712"/></g><g class="vf-notehead" pointer-events="bounding-box"><path stroke-width="0.3" fill="black" stroke="none" stroke-dasharray="none" font-family="Arial" font-size="10pt" font-weight="normal" font-style="normal" x="200" y="39.5" width="1" height="41" d="M174.59543 70M181.95238999999998 64.77712C182.06471 64.77712,182.23318999999998 64.77712,182.26127 64.77712C182.26127 64.77712,182.28934999999998 64.77712,182.28934999999998 64.77712C182.28934999999998 64.77712,182.45783 64.77712,182.59823 64.77712C185.12543 64.91752,186.61366999999998 66.57424,186.61366999999998 68.65216C186.61366999999998 69.66304,186.27670999999998 70.81432,185.43430999999998 71.90944C183.83374999999998 74.0716,181.22231 75.25096,178.94782999999998 75.25096C177.17879 75.25096,175.66246999999998 74.54896,174.93239 73.11688C174.70775 72.55528,174.59543 72.02176,174.59543 71.43208C174.59543 68.37136,178.02119 64.97368,181.95238999999998 64.77712"/></g></g><g class="vf-modifiers"/></g><path stroke-width="1.5" fill="none" stroke="black" stroke-dasharray="none" font-family="Arial" font-size="10pt" font-weight="normal" font-style="normal" x="200" y="39.5" width="1" height="41" d="M58.84082000000001 90L58.84082000000001 35.75"/><path stroke-width="1.5" fill="none" stroke="black" stroke-dasharray="none" font-family="Arial" font-size="10pt" font-weight="normal" font-style="normal" x="200" y="39.5" width="1" height="41" d="M84.24539000000001 90L84.24539000000001 35.75"/><path stroke-width="0.3" fill="black" stroke="none" stroke-dasharray="none" font-family="Arial" font-size="10pt" font-weight="normal" font-style="normal" x="200" y="39.5" width="1" height="41" d="M58.09082000000001 35L58.09082000000001 40L84.49539000000001 40L84.49539000000001 35Z"/><path stroke-width="0.3" fill="black" stroke="none" stroke-dasharray="none" font-family="Arial" font-size="10pt" font-weight="normal" font-style="normal" x="200" y="39.5" width="1" height="41" d="M58.09082000000001 42.5L58.09082000000001 47.5L84.49539000000001 47.5L84.49539000000001 42.5Z"/><path stroke-width="1.5" fill="none" stroke="black" stroke-dasharray="none" font-family="Arial" font-size="10pt" font-weight="normal" font-style="normal" x="200" y="39.5" width="1" height="41" d="M109.64996000000002 90L109.64996000000002 35.75"/><path stroke-width="1.5" fill="none" stroke="black" stroke-dasharray="none" font-family="Arial" font-size="10pt" font-weight="normal" font-style="normal" x="200" y="39.5" width="1" height="41" d="M135.05453 90L135.05453 35.75"/><path stroke-width="1.5" fill="none" stroke="black" stroke-dasharray="none" font-family="Arial" font-size="10pt" font-weight="normal" font-style="normal" x="200" y="39.5" width="1" height="41" d="M160.45909999999998 90L160.45909999999998 35.75"/><path stroke-width="1.5" fill="none" stroke="black" stroke-dasharray="none" font-family="Arial" font-size="10pt" font-weight="normal" font-style="normal" x="200" y="39.5" width="1" height="41" d="M185.86366999999998 90L185.86366999999998 35.75"/><path stroke-width="0.3" fill="black" stroke="none" stroke-dasharray="none" font-family="Arial" font-size="10pt" font-weight="normal" font-style="normal" x="200" y="39.5" width="1" height="41" d="M108.89996000000002 35L108.89996000000002 40L186.11366999999998 40L186.11366999999998 35Z"/><path stroke-width="0.3" fill="black" stroke="none" stroke-dasharray="none" font-family="Arial" font-size="10pt" font-weight="normal" font-style="normal" x="200" y="39.5" width="1" height="41" d="M108.89996000000002 42.5L108.89996000000002 47.5L186.11366999999998 47.5L186.11366999999998 42.5Z"/></svg>