<?xml version="1.0" standalone="no"?><!DOCTYPE svg PUBLIC "-//W3C//DTD SVG 1.1//EN" "http://www.w3.org/Graphics/SVG/1.1/DTD/svg11.dtd"><svg width="200" height="100" version="1.1" xmlns="http://www.w3.org/2000/svg" xmlns:xlink="http://www.w3.org/1999/xlink"><defs xmlns="http://www.w3.org/1999/xhtml"><style type="text/css"><![CDATA[
#playPause { width: 100px; height: 50px; text-align: center; display: block; margin: 20px auto 0px; cursor: pointer; }]]></style></defs><path stroke-width="1" fill="none" stroke="#999999" stroke-dasharray="none" font-family="Arial" font-size="10pt" font-weight="normal" font-style="normal" d="M0 40L200 40"/><path stroke-width="1" fill="none" stroke="#999999" stroke-dasharray="none" font-family="Arial" font-size="10pt" font-weight="normal" font-style="normal" d="M0 50L200 50"/><path stroke-width="1" fill="none" stroke="#999999" stroke-dasharray="none" font-family="Arial" font-size="10pt" font-weight="normal" font-style="normal" d="M0 60L200 60"/><path stroke-width="1" fill="none" stroke="#999999" stroke-dasharray="none" font-family="Arial" font-size="10pt" font-weight="normal" font-style="normal" d="M0 70L200 70"/><path stroke-width="1" fill="none" stroke="#999999" stroke-dasharray="none" font-family="Arial" font-size="10pt" font-weight="normal" font-style="normal" d="M0 80L200 80"/><g class="vf-stavenote" id="vf-auto1268"><g class="vf-note" pointer-events="bounding-box"><g class="vf-notehead" pointer-events="bounding-box"><path stroke-width="0.3" fill="black" stroke="none" stroke-dasharray="none" font-family="Arial" font-size="10pt" font-weight="normal" font-style="normal" x="200" y="39.5" width="1" height="41" d="M17 80M19.47104 71.51984C19.61144 71.51984,19.75184 71.49176,19.89224 71.49176C21.18392 71.49176,22.36328 72.4184,22.672159999999998 73.71008C22.72832 73.93472,22.7564 74.15935999999999,22.7564 74.41208C22.7564 75.14216,22.50368 75.87224,21.99824 76.37768L21.914 76.46192L22.11056 76.43384C23.62688 76.01264,24.97472 74.6648,25.62056 73.00808C25.64864 72.86768000000001,25.73288 72.75536,25.78904 72.72728C25.90136 72.5588,26.06984 72.50264,26.23832 72.50264C26.5472 72.50264,26.79992 72.72728,26.79992 73.06424C26.79992 73.20464,22.72832 87.24464,22.64408 87.38504C22.53176 87.5816,22.3352 87.66584,22.11056 87.66584C21.88592 87.66584,21.66128 87.55352,21.57704 87.3008C21.52088 87.27272,21.52088 87.24464,21.52088 87.18848C21.52088 86.96384,21.773600000000002 86.1776,23.09336 81.65672C23.935760000000002 78.79256,24.63776 76.43384,24.63776 76.37768C24.63776 76.37768,24.63776 76.37768,24.63776 76.37768C24.63776 76.37768,24.52544 76.46192,24.41312 76.57424C23.37416 77.36048,22.138640000000002 77.7536,20.9312 77.7536C19.86416 77.7536,18.8252 77.44472,18.01088 76.7708C17.2808 76.18111999999999,17 75.3668,17 74.55248C17 73.14848,17.89856 71.80064,19.47104 71.51984"/></g></g><g class="vf-modifiers"/></g><path stroke-width="1" fill="none" stroke="#999999" stroke-dasharray="none" font-family="Arial" font-size="10pt" font-weight="normal" font-style="normal" x="200" y="39.5" width="1" height="41" d="M44.41814000000001 90L62.43638000000001 90"/><g class="vf-stavenote" id="vf-auto1274"><g class="vf-note" pointer-events="bounding-box"><g class="vf-notehead" pointer-events="bounding-box"><path stroke-width="0.3" fill="black" stroke="none" stroke-dasharray="none" font-family="Arial" font-size="10pt" font-weight="normal" font-style="normal" x="200" y="39.5" width="1" height="41" d="M47.41814000000001 90M54.77510000000001 84.77712C54.887420000000006 84.77712,55.05590000000001 84.77712,55.08398000000001 84.77712C55.08398000000001 84.77712,55.11206000000001 84.77712,55.11206000000001 84.77712C55.11206000000001 84.77712,55.28054000000001 84.77712,55.42094000000001 84.77712C57.94814000000001 84.91752,59.43638000000001 86.57424,59.43638000000001 88.65216C59.43638000000001 89.66304,59.09942000000001 90.81432,58.25702000000001 91.90944C56.65646000000001 94.0716,54.04502000000001 95.25096,51.77054000000001 95.25096C50.00150000000001 95.25096,48.48518000000001 94.54896,47.755100000000006 93.11688C47.530460000000005 92.55528,47.41814000000001 92.02176,47.41814000000001 91.43208C47.41814000000001 88.37136,50.843900000000005 84.97368,54.77510000000001 84.77712"/></g><g class="vf-notehead" pointer-events="bounding-box"><path stroke-width="0.3" fill="black" stroke="none" stroke-dasharray="none" font-family="Arial" font-size="10pt" font-weight="normal" font-style="normal" x="200" y="39.5" width="1" height="41" d="M47.41814000000001 70M54.77510000000001 64.77712C54.887420000000006 64.77712,55.05590000000001 64.77712,55.08398000000001 64.77712C55.08398000000001 64.77712,55.11206000000001 64.77712,55.11206000000001 64.77712C55.11206000000001 64.77712,55.28054000000001 64.77712,55.42094000000001 64.77712C57.94814000000001 64.91752,59.43638000000001 66.57424,59.43638000000001 68.65216C59.43638000000001 69.66304,59.09942000000001 70.81432,58.25702000000001 71.90944C56.65646000000001 74.0716,54.04502000000001 75.25096,51.77054000000001 75.25096C50.00150000000001 75.25096,48.48518000000001 74.54896,47.755100000000006 73.11688C47.530460000000005 72.55528,47.41814000000001 72.02176,47.41814000000001 71.43208C47.41814000000001 68.37136,50.843900000000005 64.97368,54.77510000000001 64.77712"/></g></g><g class="vf-modifiers"/></g><path stroke-width="1" fill="none" stroke="#999999" stroke-dasharray="none" font-family="Arial" font-size="10pt" font-weight="normal" font-style="normal" x="200" y="39.5" width="1" height="41" d="M69.74549000000002 90L87.76373000000001 90"/><g class="vf-stavenote" id="vf-auto1285"><g class="vf-note" pointer-events="bounding-box"><g class="vf-notehead" pointer-events="bounding-box"><path stroke-width="0.3" fill="black" stroke="none" stroke-dasharray="none" font-family="Arial" font-size="10pt" font-weight="normal" font-style="normal" x="200" y="39.5" width="1" height="41" d="M72.74549000000002 90M80.10245000000002 84.77712C80.21477000000002 84.77712,80.38325000000002 84.77712,80.41133000000002 84.77712C80.41133000000002 84.77712,80.43941000000002 84.77712,80.43941000000002 84.77712C80.43941000000002 84.77712,80.60789000000001 84.77712,80.74829000000003 84.77712C83.27549000000002 84.91752,84.76373000000002 86.57424,84.76373000000002 88.65216C84.76373000000002 89.66304,84.42677000000002 90.81432,83.58437000000002 91.90944C81.98381000000002 94.0716,79.37237000000002 95.25096,77.09789000000002 95.25096C75.32885000000002 95.25096,73.81253000000002 94.54896,73.08245000000002 93.11688C72.85781000000001 92.55528,72.74549000000002 92.02176,72.74549000000002 91.43208C72.74549000000002 88.37136,76.17125000000001 84.97368,80.10245000000002 84.77712"/></g><g class="vf-notehead" pointer-events="bounding-box"><path stroke-width="0.3" fill="black" stroke="none" stroke-dasharray="none" font-family="Arial" font-size="10pt" font-weight="normal" font-style="normal" x="200" y="39.5" width="1" height="41" d="M72.74549000000002 70M80.10245000000002 64.77712C80.21477000000002 64.77712,80.38325000000002 64.77712,80.41133000000002 64.77712C80.41133000000002 64.77712,80.43941000000002 64.77712,80.43941000000002 64.77712C80.43941000000002 64.77712,80.60789000000001 64.77712,80.74829000000003 64.77712C83.27549000000002 64.91752,84.76373000000002 66.57424,84.76373000000002 68.65216C84.76373000000002 69.66304,84.42677000000002 70.81432,83.58437000000002 71.90944C81.98381000000002 74.0716,79.37237000000002 75.25096,77.09789000000002 75.25096C75.32885000000002 75.25096,73.81253000000002 74.54896,73.08245000000002 73.11688C72.85781000000001 72.55528,72.74549000000002 72.02176,72.74549000000002 71.43208C72.74549000000002 68.37136,76.17125000000001 64.97368,80.10245000000002 64.77712"/></g></g><g class="vf-modifiers"/></g><path stroke-width="1" fill="none" stroke="#999999" stroke-dasharray="none" font-family="Arial" font-size="10pt" font-weight="normal" font-style="normal" x="200" y="39.5" width="1" height="41" d="M95.07284000000001 90L113.09108 90"/><g class="vf-stavenote" id="vf-auto1297"><g class="vf-note" pointer-events="bounding-box"><g class="vf-notehead" pointer-events="bounding-box"><path stroke-width="0.3" fill="black" stroke="none" stroke-dasharray="none" font-family="Arial" font-size="10pt" font-weight="normal" font-style="normal" x="200" y="39.5" width="1" height="41" d="M98.07284000000001 90M105.42980000000001 84.77712C105.54212000000001 84.77712,105.71060000000001 84.77712,105.73868000000002 84.77712C105.73868000000002 84.77712,105.76676000000002 84.77712,105.76676000000002 84.77712C105.76676000000002 84.77712,105.93524000000001 84.77712,106.07564000000002 84.77712C108.60284000000001 84.91752,110.09108000000002 86.57424,110.09108000000002 88.65216C110.09108000000002 89.66304,109.75412000000001 90.81432,108.91172000000002 91.90944C107.31116000000002 94.0716,104.69972000000001 95.25096,102.42524000000002 95.25096C100.65620000000001 95.25096,99.13988000000002 94.54896,98.40980000000002 93.11688C98.18516000000001 92.55528,98.07284000000001 92.02176,98.07284000000001 91.43208C98.07284000000001 88.37136,101.49860000000001 84.97368,105.42980000000001 84.77712"/></g><g class="vf-notehead" pointer-events="bounding-box"><path stroke-width="0.3" fill="black" stroke="none" stroke-dasharray="none" font-family="Arial" font-size="10pt" font-weight="normal" font-style="normal" x="200" y="39.5" width="1" height="41" d="M98.07284000000001 70M105.42980000000001 64.77712C105.54212000000001 64.77712,105.71060000000001 64.77712,105.73868000000002 64.77712C105.73868000000002 64.77712,105.76676000000002 64.77712,105.76676000000002 64.77712C105.76676000000002 64.77712,105.93524000000001 64.77712,106.07564000000002 64.77712C108.60284000000001 64.91752,110.09108000000002 66.57424,110.09108000000002 68.65216C110.09108000000002 69.66304,109.75412000000001 70.81432,108.91172000000002 71.90944C107.31116000000002 74.0716,104.69972000000001 75.25096,102.42524000000002 75.25096C100.65620000000001 75.25096,99.13988000000002 74.54896,98.40980000000002 73.11688C98.18516000000001 72.55528,98.07284000000001 72.02176,98.07284000000001 71.43208C98.07284000000001 68.37136,101.49860000000001 64.97368,105.42980000000001 64.77712"/></g></g><g class="vf-modifiers"/></g><path stroke-width="1" fill="none" stroke="#999999" stroke-dasharray="none" font-family="Arial" font-size="10pt" font-weight="normal" font-style="normal" x="200" y="39.5" width="1" height="41" d="M120.40019000000001 90L138.41843 90"/><g class="vf-stavenote" id="vf-auto1308"><g class="vf-note" pointer-events="bounding-box"><g class="vf-notehead" pointer-events="bounding-box"><path stroke-width="0.3" fill="black" stroke="none" stroke-dasharray="none" font-family="Arial" font-size="10pt" font-weight="normal" font-style="normal" x="200" y="39.5" width="1" height="41" d="M123.40019000000001 90M130.75715 84.77712C130.86947 84.77712,131.03795000000002 84.77712,131.06603 84.77712C131.06603 84.77712,131.09411 84.77712,131.09411 84.77712C131.09411 84.77712,131.26259000000002 84.77712,131.40299000000002 84.77712C133.93019 84.91752,135.41843 86.57424,135.41843 88.65216C135.41843 89.66304,135.08147000000002 90.81432,134.23907 91.90944C132.63851 94.0716,130.02707 95.25096,127.75259000000001 95.25096C125.98355000000001 95.25096,124.46723000000001 94.54896,123.73715000000001 93.11688C123.51251 92.55528,123.40019000000001 92.02176,123.40019000000001 91.43208C123.40019000000001 88.37136,126.82595 84.97368,130.75715 84.77712"/></g><g class="vf-notehead" pointer-events="bounding-box"><path stroke-width="0.3" fill="black" stroke="none" stroke-dasharray="none" font-family="Arial" font-size="10pt" font-weight="normal" font-style="normal" x="200" y="39.5" width="1" height="41" d="M123.40019000000001 70M130.75715 64.77712C130.86947 64.77712,131.03795000000002 64.77712,131.06603 64.77712C131.06603 64.77712,131.09411 64.77712,131.09411 64.77712C131.09411 64.77712,131.26259000000002 64.77712,131.40299000000002 64.77712C133.93019 64.91752,135.41843 66.57424,135.41843 68.65216C135.41843 69.66304,135.08147000000002 70.81432,134.23907 71.90944C132.63851 74.0716,130.02707 75.25096,127.75259000000001 75.25096C125.98355000000001 75.25096,124.46723000000001 74.54896,123.73715000000001 73.11688C123.51251 72.55528,123.40019000000001 72.02176,123.40019000000001 71.43208C123.40019000000001 68.37136,126.82595 64.97368,130.75715 64.77712"/></g></g><g class="vf-modifiers"/></g><path stroke-width="1" fill="none" stroke="#999999" stroke-dasharray="none" font-family="Arial" font-size="10pt" font-weight="normal" font-style="normal" x="200" y="39.5" width="1" height="41" d="M145.72754 90L163.74578 90"/><g class="vf-stavenote" id="vf-auto1319"><g class="vf-note" pointer-events="bounding-box"><g class="vf-notehead" pointer-events="bounding-box"><path stroke-width="0.3" fill="black" stroke="none" stroke-dasharray="none" font-family="Arial" font-size="10pt" font-weight="normal" font-style="normal" x="200" y="39.5" width="1" height="41" d="M148.72754 90M156.0845 84.77712C156.19682 84.77712,156.3653 84.77712,156.39338 84.77712C156.39338 84.77712,156.42146 84.77712,156.42146 84.77712C156.42146 84.77712,156.58994 84.77712,156.73034 84.77712C159.25754 84.91752,160.74578 86.57424,160.74578 88.65216C160.74578 89.66304,160.40882 90.81432,159.56642 91.90944C157.96586 94.0716,155.35442 95.25096,153.07994 95.25096C151.3109 95.25096,149.79458 94.54896,149.0645 93.11688C148.83986000000002 92.55528,148.72754 92.02176,148.72754 91.43208C148.72754 88.37136,152.1533 84.97368,156.0845 84.77712"/></g><g class="vf-notehead" pointer-events="bounding-box"><path stroke-width="0.3" fill="black" stroke="none" stroke-dasharray="none" font-family="Arial" font-size="10pt" font-weight="normal" font-style="normal" x="200" y="39.5" width="1" height="41" d="M148.72754 70M156.0845 64.77712C156.19682 64.77712,156.3653 64.77712,156.39338 64.77712C156.39338 64.77712,156.42146 64.77712,156.42146 64.77712C156.42146 64.77712,156.58994 64.77712,156.73034 64.77712C159.25754 64.91752,160.74578 66.57424,160.74578 68.65216C160.74578 69.66304,160.40882 70.81432,159.56642 71.90944C157.96586 74.0716,155.35442 75.25096,153.07994 75.25096C151.3109 75.25096,149.79458 74.54896,149.0645 73.11688C148.83986000000002 72.55528,148.72754 72.02176,148.72754 71.43208C148.72754 68.37136,152.1533 64.97368,156.0845 64.77712"/></g></g><g class="vf-modifiers"/></g><g class="vf-stavenote" id="vf-auto1331"><g class="vf-note" pointer-events="bounding-box"><g class="vf-notehead" pointer-events="bounding-box"><path stroke-width="0.3" fill="black" stroke="none" stroke-dasharray="none" font-family="Arial" font-size="10pt" font-weight="normal" font-style="normal" x="200" y="39.5" width="1" height="41" d="M174.05489 80M179.36201 71.51984C179.47433 71.51984,179.61473 71.49176,179.78321 71.49176C181.07489 71.49176,182.25425 72.4184,182.56313 73.71008C182.59121 73.93472,182.64737 74.15935999999999,182.64737 74.41208C182.64737 75.14216,182.36657 75.87224,181.88921 76.37768L181.80497 76.46192L181.94537 76.43384C183.51785 76.01264,184.86569 74.6648,185.51153 73.00808C185.53961 72.86768000000001,185.62385 72.75536,185.62385 72.72728C185.76425 72.5588,185.93273 72.50264,186.12929 72.50264C186.43817 72.50264,186.69089 72.72728,186.69089 73.06424C186.69089 73.20464,179.78321 96.81992,179.67089 96.9884C179.58665 97.18496,179.39009 97.29728,179.16545 97.29728C178.94081 97.29728,178.71617 97.1288,178.63193 96.90416C178.57577 96.87608,178.57577 96.87608,178.57577 96.79184000000001C178.57577 96.53912,178.82849 95.78096,180.14825 91.28816C180.99065 88.36784,181.69265000000001 85.98104000000001,181.69265000000001 85.98104000000001C181.69265000000001 85.98104000000001,181.69265000000001 85.98104000000001,181.69265000000001 85.98104000000001C181.69265000000001 85.98104000000001,181.58033 86.06528,181.46801 86.14952C180.42905 86.93576,179.16545 87.35696,177.98609 87.35696C176.91905 87.35696,175.88009 86.99192,175.06577 86.34608C174.39185 85.78448,174.05489 84.94208,174.05489 84.0716C174.05489 83.48192,174.19529 82.92032,174.53225 82.35872C175.12193 81.51632,176.02049 81.06704,176.94713 81.06704C177.90185 81.06704,178.88465 81.57248,179.41817 82.55528C179.69897 82.97648,179.81129 83.48192,179.81129 83.95928C179.81129 84.68936,179.55857 85.44752,179.05313 85.95296L178.96889 86.0372L179.16545 85.98104000000001C180.68177 85.55984,182.02961 84.24008,182.67545 82.61144C182.70353 82.47104,184.50065 76.43384,184.50065 76.37768C184.50065 76.37768,184.50065 76.37768,184.50065 76.37768C184.50065 76.37768,184.38833 76.46192,184.27601 76.57424C183.26513 77.36048,182.00153 77.7536,180.79409 77.7536C179.72705 77.7536,178.71617 77.44472,177.90185 76.7708C177.17177 76.18111999999999,176.83481 75.3668,176.83481 74.55248C176.83481 73.14848,177.78953 71.80064,179.36201 71.51984"/></g></g><g class="vf-modifiers"/></g><path stroke-width="1.5" fill="none" stroke="black" stroke-dasharray="none" font-family="Arial" font-size="10pt" font-weight="normal" font-style="normal" x="200" y="39.5" width="1" height="41" d="M58.68638000000001 90L58.68638000000001 35.75"/><path stroke-width="1.5" fill="none" stroke="black" stroke-dasharray="none" font-family="Arial" font-size="10pt" font-weight="normal" font-style="normal" x="200" y="39.5" width="1" height="41" d="M84.01373000000002 90L84.01373000000002 35.75"/><path stroke-width="0.3" fill="black" stroke="none" stroke-dasharray="none" font-family="Arial" font-size="10pt" font-weight="normal" font-style="normal" x="200" y="39.5" width="1" height="41" d="M57.93638000000001 35L57.93638000000001 40L84.26373000000002 40L84.26373000000002 35Z"/><path stroke-width="0.3" fill="black" stroke="none" stroke-dasharray="none" font-family="Arial" font-size="10pt" font-weight="normal" font-style="normal" x="200" y="39.5" width="1" height="41" d="M57.93638000000001 42.5L57.93638000000001 47.5L84.26373000000002 47.5L84.26373000000002 42.5Z"/><path stroke-width="1.5" fill="none" stroke="black" stroke-dasharray="none" font-family="Arial" font-size="10pt" font-weight="normal" font-style="normal" x="200" y="39.5" width="1" height="41" d="M109.34108000000002 90L109.34108000000002 35.75"/><path stroke-width="1.5" fill="none" stroke="black" stroke-dasharray="none" font-family="Arial" font-size="10pt" font-weight="normal" font-style="normal" x="200" y="39.5" width="1" height="41" d="M134.66843 90L134.66843 35.75"/><path stroke-width="1.5" fill="none" stroke="black" stroke-dasharray="none" font-family="Arial" font-size="10pt" font-weight="normal" font-style="normal" x="200" y="39.5" width="1" height="41" d="M159.99578 90L159.99578 35.75"/><path stroke-width="0.3" fill="black" stroke="none" stroke-dasharray="none" font-family="Arial" font-size="10pt" font-weight="normal" font-style="normal" x="200" y="39.5" width="1" height="41" d="M108.59108000000002 35L108.59108000000002 40L160.24578 40L160.24578 35Z"/><path stroke-width="0.3" fill="black" stroke="none" stroke-dasharray="none" font-family="Arial" font-size="10pt" font-weight="normal" font-style="normal" x="200" y="39.5" width="1" height="41" d="M108.59108000000002 42.5L108.59108000000002 47.5L160.24578 47.5L160.24578 42.5Z"/></svg>