<?xml version="1.0" encoding="UTF-8" standalone="no"?>
<svg
   xmlns:xhtml="http://www.w3.org/1999/xhtml"
   xmlns:dc="http://purl.org/dc/elements/1.1/"
   xmlns:cc="http://creativecommons.org/ns#"
   xmlns:rdf="http://www.w3.org/1999/02/22-rdf-syntax-ns#"
   xmlns:svg="http://www.w3.org/2000/svg"
   xmlns="http://www.w3.org/2000/svg"
   width="100"
   height="100"
   version="1.1"
   id="svg7212">
  <metadata
     id="metadata7218">
    <rdf:RDF>
      <cc:Work
         rdf:about="">
        <dc:format>image/svg+xml</dc:format>
        <dc:type
           rdf:resource="http://purl.org/dc/dcmitype/StillImage" />
        <dc:title></dc:title>
      </cc:Work>
    </rdf:RDF>
  </metadata>
  <defs
     id="defs7216" />
  <xhtml:defs>
    <xhtml:style
       type="text/css"><![CDATA[
#playPause { width: 100px; height: 50px; text-align: center; display: block; margin: 20px auto 0px; cursor: pointer; }]]></xhtml:style>
  </xhtml:defs>
  <path
     font-size="10pt"
     font-weight="normal"
     font-style="normal"
     d="M -100,40 H 100"
     id="path7083"
     style="font-style:normal;font-weight:normal;font-size:13.33333302px;font-family:Arial;fill:none;stroke:#999999;stroke-width:1;stroke-dasharray:none" />
  <path
     font-size="10pt"
     font-weight="normal"
     font-style="normal"
     d="M -100,50 H 100"
     id="path7085"
     style="font-style:normal;font-weight:normal;font-size:13.33333302px;font-family:Arial;fill:none;stroke:#999999;stroke-width:1;stroke-dasharray:none" />
  <path
     font-size="10pt"
     font-weight="normal"
     font-style="normal"
     d="M -100,60 H 100"
     id="path7087"
     style="font-style:normal;font-weight:normal;font-size:13.33333302px;font-family:Arial;fill:none;stroke:#999999;stroke-width:1;stroke-dasharray:none" />
  <path
     font-size="10pt"
     font-weight="normal"
     font-style="normal"
     d="M -100,70 H 100"
     id="path7089"
     style="font-style:normal;font-weight:normal;font-size:13.33333302px;font-family:Arial;fill:none;stroke:#999999;stroke-width:1;stroke-dasharray:none" />
  <path
     font-size="10pt"
     font-weight="normal"
     font-style="normal"
     d="M -100,80 H 100"
     id="path7091"
     style="font-style:normal;font-weight:normal;font-size:13.33333302px;font-family:Arial;fill:none;stroke:#999999;stroke-width:1;stroke-dasharray:none" />
  <g
     class="vf-stavenote"
     id="vf-auto1268"
     transform="translate(-100)">
    <g
       class="vf-note"
       pointer-events="bounding-box"
       id="g7097">
      <g
         class="vf-notehead"
         pointer-events="bounding-box"
         id="g7095">
        <path
           font-size="10pt"
           font-weight="normal"
           font-style="normal"
           x="200"
           y="39.5"
           width="1"
           height="41"
           d="m 17,80 m 2.47104,-8.48016 c 0.1404,0 0.2808,-0.02808 0.4212,-0.02808 1.29168,0 2.47104,0.92664 2.77992,2.21832 0.05616,0.22464 0.08424,0.44928 0.08424,0.702 0,0.73008 -0.25272,1.46016 -0.75816,1.9656 l -0.08424,0.08424 0.19656,-0.02808 c 1.51632,-0.4212 2.86416,-1.76904 3.51,-3.42576 0.02808,-0.1404 0.11232,-0.25272 0.16848,-0.2808 0.11232,-0.16848 0.2808,-0.22464 0.44928,-0.22464 0.30888,0 0.5616,0.22464 0.5616,0.5616 0,0.1404 -4.0716,14.1804 -4.15584,14.3208 -0.11232,0.19656 -0.30888,0.2808 -0.53352,0.2808 -0.22464,0 -0.44928,-0.11232 -0.53352,-0.36504 -0.05616,-0.02808 -0.05616,-0.05616 -0.05616,-0.11232 0,-0.22464 0.25272,-1.01088 1.57248,-5.53176 0.8424,-2.86416 1.5444,-5.22288 1.5444,-5.27904 0,0 0,0 0,0 0,0 -0.11232,0.08424 -0.22464,0.19656 -1.03896,0.78624 -2.27448,1.17936 -3.48192,1.17936 -1.06704,0 -2.106,-0.30888 -2.92032,-0.9828 C 17.2808,76.18112 17,75.3668 17,74.55248 c 0,-1.404 0.89856,-2.75184 2.47104,-3.03264"
           id="path7093"
           style="font-style:normal;font-weight:normal;font-size:13.33333302px;font-family:Arial;fill:#000000;stroke:none;stroke-width:0.30000001;stroke-dasharray:none" />
      </g>
    </g>
    <g
       class="vf-modifiers"
       id="g7099" />
  </g>
  <path
     font-size="10pt"
     font-weight="normal"
     font-style="normal"
     x="200"
     y="39.5"
     width="1"
     height="41"
     d="m -55.42742,90 h 18.01824"
     id="path7102"
     style="font-style:normal;font-weight:normal;font-size:13.33333302px;font-family:Arial;fill:none;stroke:#999999;stroke-width:1;stroke-dasharray:none" />
  <g
     class="vf-stavenote"
     id="vf-auto1274"
     transform="translate(-100)">
    <g
       class="vf-note"
       pointer-events="bounding-box"
       id="g7112">
      <g
         class="vf-notehead"
         pointer-events="bounding-box"
         id="g7106">
        <path
           font-size="10pt"
           font-weight="normal"
           font-style="normal"
           x="200"
           y="39.5"
           width="1"
           height="41"
           d="m 47.57258,90 m 7.35696,-5.22288 c 0.11232,0 0.2808,0 0.30888,0 0,0 0.02808,0 0.02808,0 0,0 0.16848,0 0.30888,0 2.5272,0.1404 4.01544,1.79712 4.01544,3.87504 0,1.01088 -0.33696,2.16216 -1.17936,3.25728 -1.60056,2.16216 -4.212,3.34152 -6.48648,3.34152 -1.76904,0 -3.28536,-0.702 -4.01544,-2.13408 -0.22464,-0.5616 -0.33696,-1.09512 -0.33696,-1.6848 0,-3.06072 3.42576,-6.4584 7.35696,-6.65496"
           id="path7104"
           style="font-style:normal;font-weight:normal;font-size:13.33333302px;font-family:Arial;fill:#000000;stroke:none;stroke-width:0.30000001;stroke-dasharray:none" />
      </g>
      <g
         class="vf-notehead"
         pointer-events="bounding-box"
         id="g7110">
        <path
           font-size="10pt"
           font-weight="normal"
           font-style="normal"
           x="200"
           y="39.5"
           width="1"
           height="41"
           d="m 47.57258,70 m 7.35696,-5.22288 c 0.11232,0 0.2808,0 0.30888,0 0,0 0.02808,0 0.02808,0 0,0 0.16848,0 0.30888,0 2.5272,0.1404 4.01544,1.79712 4.01544,3.87504 0,1.01088 -0.33696,2.16216 -1.17936,3.25728 -1.60056,2.16216 -4.212,3.34152 -6.48648,3.34152 -1.76904,0 -3.28536,-0.702 -4.01544,-2.13408 -0.22464,-0.5616 -0.33696,-1.09512 -0.33696,-1.6848 0,-3.06072 3.42576,-6.4584 7.35696,-6.65496"
           id="path7108"
           style="font-style:normal;font-weight:normal;font-size:13.33333302px;font-family:Arial;fill:#000000;stroke:none;stroke-width:0.30000001;stroke-dasharray:none" />
      </g>
    </g>
    <g
       class="vf-modifiers"
       id="g7114" />
  </g>
  <path
     font-size="10pt"
     font-weight="normal"
     font-style="normal"
     x="200"
     y="39.5"
     width="1"
     height="41"
     d="m -30.02285,90 h 18.01824"
     id="path7117"
     style="font-style:normal;font-weight:normal;font-size:13.33333302px;font-family:Arial;fill:none;stroke:#999999;stroke-width:1;stroke-dasharray:none" />
  <g
     class="vf-stavenote"
     id="vf-auto1285"
     transform="translate(-100)">
    <g
       class="vf-note"
       pointer-events="bounding-box"
       id="g7127">
      <g
         class="vf-notehead"
         pointer-events="bounding-box"
         id="g7121">
        <path
           font-size="10pt"
           font-weight="normal"
           font-style="normal"
           x="200"
           y="39.5"
           width="1"
           height="41"
           d="m 72.97715,90 m 7.35696,-5.22288 c 0.11232,0 0.2808,0 0.30888,0 0,0 0.02808,0 0.02808,0 0,0 0.16848,0 0.30888,0 2.5272,0.1404 4.01544,1.79712 4.01544,3.87504 0,1.01088 -0.33696,2.16216 -1.17936,3.25728 -1.60056,2.16216 -4.212,3.34152 -6.48648,3.34152 -1.76904,0 -3.28536,-0.702 -4.01544,-2.13408 -0.22464,-0.5616 -0.33696,-1.09512 -0.33696,-1.6848 0,-3.06072 3.42576,-6.4584 7.35696,-6.65496"
           id="path7119"
           style="font-style:normal;font-weight:normal;font-size:13.33333302px;font-family:Arial;fill:#000000;stroke:none;stroke-width:0.30000001;stroke-dasharray:none" />
      </g>
      <g
         class="vf-notehead"
         pointer-events="bounding-box"
         id="g7125">
        <path
           font-size="10pt"
           font-weight="normal"
           font-style="normal"
           x="200"
           y="39.5"
           width="1"
           height="41"
           d="m 72.97715,70 m 7.35696,-5.22288 c 0.11232,0 0.2808,0 0.30888,0 0,0 0.02808,0 0.02808,0 0,0 0.16848,0 0.30888,0 2.5272,0.1404 4.01544,1.79712 4.01544,3.87504 0,1.01088 -0.33696,2.16216 -1.17936,3.25728 -1.60056,2.16216 -4.212,3.34152 -6.48648,3.34152 -1.76904,0 -3.28536,-0.702 -4.01544,-2.13408 -0.22464,-0.5616 -0.33696,-1.09512 -0.33696,-1.6848 0,-3.06072 3.42576,-6.4584 7.35696,-6.65496"
           id="path7123"
           style="font-style:normal;font-weight:normal;font-size:13.33333302px;font-family:Arial;fill:#000000;stroke:none;stroke-width:0.30000001;stroke-dasharray:none" />
      </g>
    </g>
    <g
       class="vf-modifiers"
       id="g7129" />
  </g>
  <path
     font-size="10pt"
     font-weight="normal"
     font-style="normal"
     x="200"
     y="39.5"
     width="1"
     height="41"
     d="M 3.38172,90 H 21.39996"
     id="path7132"
     style="font-style:normal;font-weight:normal;font-size:13.33333302px;font-family:Arial;fill:none;stroke:#999999;stroke-width:1;stroke-dasharray:none" />
  <g
     class="vf-stavenote"
     id="vf-auto1297"
     transform="translate(-92)">
    <g
       class="vf-note"
       pointer-events="bounding-box"
       id="g7142">
      <g
         class="vf-notehead"
         pointer-events="bounding-box"
         id="g7136">
        <path
           font-size="10pt"
           font-weight="normal"
           font-style="normal"
           x="200"
           y="39.5"
           width="1"
           height="41"
           d="m 98.38172,90 m 7.35696,-5.22288 c 0.11232,0 0.2808,0 0.30888,0 0,0 0.0281,0 0.0281,0 0,0 0.16848,0 0.30888,0 2.5272,0.1404 4.01544,1.79712 4.01544,3.87504 0,1.01088 -0.33696,2.16216 -1.17936,3.25728 -1.60056,2.16216 -4.212,3.34152 -6.48648,3.34152 -1.76904,0 -3.28536,-0.702 -4.01544,-2.13408 -0.22464,-0.5616 -0.33696,-1.09512 -0.33696,-1.6848 0,-3.06072 3.42576,-6.4584 7.35696,-6.65496"
           id="path7134"
           style="font-style:normal;font-weight:normal;font-size:13.33333302px;font-family:Arial;fill:#000000;stroke:none;stroke-width:0.30000001;stroke-dasharray:none" />
      </g>
      <g
         class="vf-notehead"
         pointer-events="bounding-box"
         id="g7140">
        <path
           font-size="10pt"
           font-weight="normal"
           font-style="normal"
           x="200"
           y="39.5"
           width="1"
           height="41"
           d="m 98.38172,70 m 7.35696,-5.22288 c 0.11232,0 0.2808,0 0.30888,0 0,0 0.0281,0 0.0281,0 0,0 0.16848,0 0.30888,0 2.5272,0.1404 4.01544,1.79712 4.01544,3.87504 0,1.01088 -0.33696,2.16216 -1.17936,3.25728 -1.60056,2.16216 -4.212,3.34152 -6.48648,3.34152 -1.76904,0 -3.28536,-0.702 -4.01544,-2.13408 -0.22464,-0.5616 -0.33696,-1.09512 -0.33696,-1.6848 0,-3.06072 3.42576,-6.4584 7.35696,-6.65496"
           id="path7138"
           style="font-style:normal;font-weight:normal;font-size:13.33333302px;font-family:Arial;fill:#000000;stroke:none;stroke-width:0.30000001;stroke-dasharray:none" />
      </g>
    </g>
    <g
       class="vf-modifiers"
       id="g7144" />
  </g>
  <path
     font-size="10pt"
     font-weight="normal"
     font-style="normal"
     x="200"
     y="39.5"
     width="1"
     height="41"
     d="M 28.78629,90 H 46.80453"
     id="path7147"
     style="font-style:normal;font-weight:normal;font-size:13.33333302px;font-family:Arial;fill:none;stroke:#999999;stroke-width:1;stroke-dasharray:none" />
  <g
     class="vf-stavenote"
     id="vf-auto1308"
     transform="translate(-92)">
    <g
       class="vf-note"
       pointer-events="bounding-box"
       id="g7157">
      <g
         class="vf-notehead"
         pointer-events="bounding-box"
         id="g7151">
        <path
           font-size="10pt"
           font-weight="normal"
           font-style="normal"
           x="200"
           y="39.5"
           width="1"
           height="41"
           d="m 123.78629,90 m 7.35696,-5.22288 c 0.11232,0 0.2808,0 0.30888,0 0,0 0.0281,0 0.0281,0 0,0 0.16848,0 0.30888,0 2.5272,0.1404 4.01544,1.79712 4.01544,3.87504 0,1.01088 -0.33696,2.16216 -1.17936,3.25728 -1.60056,2.16216 -4.212,3.34152 -6.48648,3.34152 -1.76904,0 -3.28536,-0.702 -4.01544,-2.13408 -0.22464,-0.5616 -0.33696,-1.09512 -0.33696,-1.6848 0,-3.06072 3.42576,-6.4584 7.35696,-6.65496"
           id="path7149"
           style="font-style:normal;font-weight:normal;font-size:13.33333302px;font-family:Arial;fill:#000000;stroke:none;stroke-width:0.30000001;stroke-dasharray:none" />
      </g>
      <g
         class="vf-notehead"
         pointer-events="bounding-box"
         id="g7155">
        <path
           font-size="10pt"
           font-weight="normal"
           font-style="normal"
           x="200"
           y="39.5"
           width="1"
           height="41"
           d="m 123.78629,70 m 7.35696,-5.22288 c 0.11232,0 0.2808,0 0.30888,0 0,0 0.0281,0 0.0281,0 0,0 0.16848,0 0.30888,0 2.5272,0.1404 4.01544,1.79712 4.01544,3.87504 0,1.01088 -0.33696,2.16216 -1.17936,3.25728 -1.60056,2.16216 -4.212,3.34152 -6.48648,3.34152 -1.76904,0 -3.28536,-0.702 -4.01544,-2.13408 -0.22464,-0.5616 -0.33696,-1.09512 -0.33696,-1.6848 0,-3.06072 3.42576,-6.4584 7.35696,-6.65496"
           id="path7153"
           style="font-style:normal;font-weight:normal;font-size:13.33333302px;font-family:Arial;fill:#000000;stroke:none;stroke-width:0.30000001;stroke-dasharray:none" />
      </g>
    </g>
    <g
       class="vf-modifiers"
       id="g7159" />
  </g>
  <path
     font-size="10pt"
     font-weight="normal"
     font-style="normal"
     x="200"
     y="39.5"
     width="1"
     height="41"
     d="M 54.19086,90 H 72.2091"
     id="path7162"
     style="font-style:normal;font-weight:normal;font-size:13.33333302px;font-family:Arial;fill:none;stroke:#999999;stroke-width:1;stroke-dasharray:none" />
  <g
     class="vf-stavenote"
     id="vf-auto1319"
     transform="translate(-92)">
    <g
       class="vf-note"
       pointer-events="bounding-box"
       id="g7172">
      <g
         class="vf-notehead"
         pointer-events="bounding-box"
         id="g7166">
        <path
           font-size="10pt"
           font-weight="normal"
           font-style="normal"
           x="200"
           y="39.5"
           width="1"
           height="41"
           d="m 149.19086,90 m 7.35696,-5.22288 c 0.11232,0 0.2808,0 0.30888,0 0,0 0.0281,0 0.0281,0 0,0 0.16848,0 0.30888,0 2.5272,0.1404 4.01544,1.79712 4.01544,3.87504 0,1.01088 -0.33696,2.16216 -1.17936,3.25728 -1.60056,2.16216 -4.212,3.34152 -6.48648,3.34152 -1.76904,0 -3.28536,-0.702 -4.01544,-2.13408 -0.22464,-0.5616 -0.33696,-1.09512 -0.33696,-1.6848 0,-3.06072 3.42576,-6.4584 7.35696,-6.65496"
           id="path7164"
           style="font-style:normal;font-weight:normal;font-size:13.33333302px;font-family:Arial;fill:#000000;stroke:none;stroke-width:0.30000001;stroke-dasharray:none" />
      </g>
      <g
         class="vf-notehead"
         pointer-events="bounding-box"
         id="g7170">
        <path
           font-size="10pt"
           font-weight="normal"
           font-style="normal"
           x="200"
           y="39.5"
           width="1"
           height="41"
           d="m 149.19086,70 m 7.35696,-5.22288 c 0.11232,0 0.2808,0 0.30888,0 0,0 0.0281,0 0.0281,0 0,0 0.16848,0 0.30888,0 2.5272,0.1404 4.01544,1.79712 4.01544,3.87504 0,1.01088 -0.33696,2.16216 -1.17936,3.25728 -1.60056,2.16216 -4.212,3.34152 -6.48648,3.34152 -1.76904,0 -3.28536,-0.702 -4.01544,-2.13408 -0.22464,-0.5616 -0.33696,-1.09512 -0.33696,-1.6848 0,-3.06072 3.42576,-6.4584 7.35696,-6.65496"
           id="path7168"
           style="font-style:normal;font-weight:normal;font-size:13.33333302px;font-family:Arial;fill:#000000;stroke:none;stroke-width:0.30000001;stroke-dasharray:none" />
      </g>
    </g>
    <g
       class="vf-modifiers"
       id="g7174" />
  </g>
  <path
     font-size="10pt"
     font-weight="normal"
     font-style="normal"
     x="200"
     y="39.5"
     width="1"
     height="41"
     d="M 79.59543,90 H 97.61367"
     id="path7177"
     style="font-style:normal;font-weight:normal;font-size:13.33333302px;font-family:Arial;fill:none;stroke:#999999;stroke-width:1;stroke-dasharray:none" />
  <g
     class="vf-stavenote"
     id="vf-auto1330"
     transform="translate(-92)">
    <g
       class="vf-note"
       pointer-events="bounding-box"
       id="g7187">
      <g
         class="vf-notehead"
         pointer-events="bounding-box"
         id="g7181">
        <path
           font-size="10pt"
           font-weight="normal"
           font-style="normal"
           x="200"
           y="39.5"
           width="1"
           height="41"
           d="m 174.59543,90 m 7.35696,-5.22288 c 0.11232,0 0.2808,0 0.30888,0 0,0 0.0281,0 0.0281,0 0,0 0.16848,0 0.30888,0 2.5272,0.1404 4.01544,1.79712 4.01544,3.87504 0,1.01088 -0.33696,2.16216 -1.17936,3.25728 -1.60056,2.16216 -4.212,3.34152 -6.48648,3.34152 -1.76904,0 -3.28536,-0.702 -4.01544,-2.13408 -0.22464,-0.5616 -0.33696,-1.09512 -0.33696,-1.6848 0,-3.06072 3.42576,-6.4584 7.35696,-6.65496"
           id="path7179"
           style="font-style:normal;font-weight:normal;font-size:13.33333302px;font-family:Arial;fill:#000000;stroke:none;stroke-width:0.30000001;stroke-dasharray:none" />
      </g>
      <g
         class="vf-notehead"
         pointer-events="bounding-box"
         id="g7185">
        <path
           font-size="10pt"
           font-weight="normal"
           font-style="normal"
           x="200"
           y="39.5"
           width="1"
           height="41"
           d="m 174.59543,70 m 7.35696,-5.22288 c 0.11232,0 0.2808,0 0.30888,0 0,0 0.0281,0 0.0281,0 0,0 0.16848,0 0.30888,0 2.5272,0.1404 4.01544,1.79712 4.01544,3.87504 0,1.01088 -0.33696,2.16216 -1.17936,3.25728 -1.60056,2.16216 -4.212,3.34152 -6.48648,3.34152 -1.76904,0 -3.28536,-0.702 -4.01544,-2.13408 -0.22464,-0.5616 -0.33696,-1.09512 -0.33696,-1.6848 0,-3.06072 3.42576,-6.4584 7.35696,-6.65496"
           id="path7183"
           style="font-style:normal;font-weight:normal;font-size:13.33333302px;font-family:Arial;fill:#000000;stroke:none;stroke-width:0.30000001;stroke-dasharray:none" />
      </g>
    </g>
    <g
       class="vf-modifiers"
       id="g7189" />
  </g>
  <path
     font-size="10pt"
     font-weight="normal"
     font-style="normal"
     x="200"
     y="39.5"
     width="1"
     height="41"
     d="M -41.15918,90 V 35.75"
     id="path7192"
     style="font-style:normal;font-weight:normal;font-size:13.33333302px;font-family:Arial;fill:none;stroke:#000000;stroke-width:1.5;stroke-dasharray:none" />
  <path
     font-size="10pt"
     font-weight="normal"
     font-style="normal"
     x="200"
     y="39.5"
     width="1"
     height="41"
     d="M -15.75461,90 V 35.75"
     id="path7194"
     style="font-style:normal;font-weight:normal;font-size:13.33333302px;font-family:Arial;fill:none;stroke:#000000;stroke-width:1.5;stroke-dasharray:none" />
  <path
     font-size="10pt"
     font-weight="normal"
     font-style="normal"
     x="200"
     y="39.5"
     width="1"
     height="41"
     d="m -41.90918,35 v 5 h 26.40457 v -5 z"
     id="path7196"
     style="font-style:normal;font-weight:normal;font-size:13.33333302px;font-family:Arial;fill:#000000;stroke:none;stroke-width:0.30000001;stroke-dasharray:none" />
  <path
     font-size="10pt"
     font-weight="normal"
     font-style="normal"
     x="200"
     y="39.5"
     width="1"
     height="41"
     d="m -41.90918,42.5 v 5 h 26.40457 v -5 z"
     id="path7198"
     style="font-style:normal;font-weight:normal;font-size:13.33333302px;font-family:Arial;fill:#000000;stroke:none;stroke-width:0.30000001;stroke-dasharray:none" />
  <path
     font-size="10pt"
     font-weight="normal"
     font-style="normal"
     x="200"
     y="39.5"
     width="1"
     height="41"
     d="M 17.64996,90 V 35.75"
     id="path7200"
     style="font-style:normal;font-weight:normal;font-size:13.33333302px;font-family:Arial;fill:none;stroke:#000000;stroke-width:1.5;stroke-dasharray:none" />
  <path
     font-size="10pt"
     font-weight="normal"
     font-style="normal"
     x="200"
     y="39.5"
     width="1"
     height="41"
     d="M 43.05453,90 V 35.75"
     id="path7202"
     style="font-style:normal;font-weight:normal;font-size:13.33333302px;font-family:Arial;fill:none;stroke:#000000;stroke-width:1.5;stroke-dasharray:none" />
  <path
     font-size="10pt"
     font-weight="normal"
     font-style="normal"
     x="200"
     y="39.5"
     width="1"
     height="41"
     d="M 68.4591,90 V 35.75"
     id="path7204"
     style="font-style:normal;font-weight:normal;font-size:13.33333302px;font-family:Arial;fill:none;stroke:#000000;stroke-width:1.5;stroke-dasharray:none" />
  <path
     font-size="10pt"
     font-weight="normal"
     font-style="normal"
     x="200"
     y="39.5"
     width="1"
     height="41"
     d="M 93.86367,90 V 35.75"
     id="path7206"
     style="font-style:normal;font-weight:normal;font-size:13.33333302px;font-family:Arial;fill:none;stroke:#000000;stroke-width:1.5;stroke-dasharray:none" />
  <path
     font-size="10pt"
     font-weight="normal"
     font-style="normal"
     x="200"
     y="39.5"
     width="1"
     height="41"
     d="m 16.89996,35 v 5 h 77.21371 v -5 z"
     id="path7208"
     style="font-style:normal;font-weight:normal;font-size:13.33333302px;font-family:Arial;fill:#000000;stroke:none;stroke-width:0.30000001;stroke-dasharray:none" />
  <path
     font-size="10pt"
     font-weight="normal"
     font-style="normal"
     x="200"
     y="39.5"
     width="1"
     height="41"
     d="m 16.89996,42.5 v 5 h 77.21371 v -5 z"
     id="path7210"
     style="font-style:normal;font-weight:normal;font-size:13.33333302px;font-family:Arial;fill:#000000;stroke:none;stroke-width:0.30000001;stroke-dasharray:none" />
</svg>
