<?xml version="1.0" standalone="no"?><!DOCTYPE svg PUBLIC "-//W3C//DTD SVG 1.1//EN" "http://www.w3.org/Graphics/SVG/1.1/DTD/svg11.dtd"><svg width="200" height="100" version="1.1" xmlns="http://www.w3.org/2000/svg" xmlns:xlink="http://www.w3.org/1999/xlink"><defs xmlns="http://www.w3.org/1999/xhtml"><style type="text/css"><![CDATA[
#playPause { width: 100px; height: 50px; text-align: center; display: block; margin: 20px auto 0px; cursor: pointer; }]]></style></defs><path stroke-width="1" fill="none" stroke="#999999" stroke-dasharray="none" font-family="Arial" font-size="10pt" font-weight="normal" font-style="normal" d="M0 40L200 40"/><path stroke-width="1" fill="none" stroke="#999999" stroke-dasharray="none" font-family="Arial" font-size="10pt" font-weight="normal" font-style="normal" d="M0 50L200 50"/><path stroke-width="1" fill="none" stroke="#999999" stroke-dasharray="none" font-family="Arial" font-size="10pt" font-weight="normal" font-style="normal" d="M0 60L200 60"/><path stroke-width="1" fill="none" stroke="#999999" stroke-dasharray="none" font-family="Arial" font-size="10pt" font-weight="normal" font-style="normal" d="M0 70L200 70"/><path stroke-width="1" fill="none" stroke="#999999" stroke-dasharray="none" font-family="Arial" font-size="10pt" font-weight="normal" font-style="normal" d="M0 80L200 80"/><g class="vf-stavenote" id="vf-auto1268"><g class="vf-note" pointer-events="bounding-box"><g class="vf-notehead" pointer-events="bounding-box"><path stroke-width="0.3" fill="black" stroke="none" stroke-dasharray="none" font-family="Arial" font-size="10pt" font-weight="normal" font-style="normal" x="200" y="39.5" width="1" height="41" d="M17 80M19.47104 71.51984C19.61144 71.51984,19.75184 71.49176,19.89224 71.49176C21.18392 71.49176,22.36328 72.4184,22.672159999999998 73.71008C22.72832 73.93472,22.7564 74.15935999999999,22.7564 74.41208C22.7564 75.14216,22.50368 75.87224,21.99824 76.37768L21.914 76.46192L22.11056 76.43384C23.62688 76.01264,24.97472 74.6648,25.62056 73.00808C25.64864 72.86768000000001,25.73288 72.75536,25.78904 72.72728C25.90136 72.5588,26.06984 72.50264,26.23832 72.50264C26.5472 72.50264,26.79992 72.72728,26.79992 73.06424C26.79992 73.20464,22.72832 87.24464,22.64408 87.38504C22.53176 87.5816,22.3352 87.66584,22.11056 87.66584C21.88592 87.66584,21.66128 87.55352,21.57704 87.3008C21.52088 87.27272,21.52088 87.24464,21.52088 87.18848C21.52088 86.96384,21.773600000000002 86.1776,23.09336 81.65672C23.935760000000002 78.79256,24.63776 76.43384,24.63776 76.37768C24.63776 76.37768,24.63776 76.37768,24.63776 76.37768C24.63776 76.37768,24.52544 76.46192,24.41312 76.57424C23.37416 77.36048,22.138640000000002 77.7536,20.9312 77.7536C19.86416 77.7536,18.8252 77.44472,18.01088 76.7708C17.2808 76.18111999999999,17 75.3668,17 74.55248C17 73.14848,17.89856 71.80064,19.47104 71.51984"/></g></g><g class="vf-modifiers"/></g><path stroke-width="1" fill="none" stroke="#999999" stroke-dasharray="none" font-family="Arial" font-size="10pt" font-weight="normal" font-style="normal" x="200" y="39.5" width="1" height="41" d="M53.581700000000005 90L71.59994 90"/><g class="vf-stavenote" id="vf-auto1274"><g class="vf-note" pointer-events="bounding-box"><g class="vf-notehead" pointer-events="bounding-box"><path stroke-width="0.3" fill="black" stroke="none" stroke-dasharray="none" font-family="Arial" font-size="10pt" font-weight="normal" font-style="normal" x="200" y="39.5" width="1" height="41" d="M56.581700000000005 90M63.938660000000006 84.77712C64.05098000000001 84.77712,64.21946 84.77712,64.24754 84.77712C64.24754 84.77712,64.27562 84.77712,64.27562 84.77712C64.27562 84.77712,64.4441 84.77712,64.5845 84.77712C67.11170000000001 84.91752,68.59994 86.57424,68.59994 88.65216C68.59994 89.66304,68.26298 90.81432,67.42058 91.90944C65.82002 94.0716,63.208580000000005 95.25096,60.93410000000001 95.25096C59.165060000000004 95.25096,57.648740000000004 94.54896,56.91866 93.11688C56.69402 92.55528,56.581700000000005 92.02176,56.581700000000005 91.43208C56.581700000000005 88.37136,60.00746 84.97368,63.938660000000006 84.77712"/></g><g class="vf-notehead" pointer-events="bounding-box"><path stroke-width="0.3" fill="black" stroke="none" stroke-dasharray="none" font-family="Arial" font-size="10pt" font-weight="normal" font-style="normal" x="200" y="39.5" width="1" height="41" d="M56.581700000000005 70M63.938660000000006 64.77712C64.05098000000001 64.77712,64.21946 64.77712,64.24754 64.77712C64.24754 64.77712,64.27562 64.77712,64.27562 64.77712C64.27562 64.77712,64.4441 64.77712,64.5845 64.77712C67.11170000000001 64.91752,68.59994 66.57424,68.59994 68.65216C68.59994 69.66304,68.26298 70.81432,67.42058 71.90944C65.82002 74.0716,63.208580000000005 75.25096,60.93410000000001 75.25096C59.165060000000004 75.25096,57.648740000000004 74.54896,56.91866 73.11688C56.69402 72.55528,56.581700000000005 72.02176,56.581700000000005 71.43208C56.581700000000005 68.37136,60.00746 64.97368,63.938660000000006 64.77712"/></g></g><g class="vf-modifiers"/></g><path stroke-width="1" fill="none" stroke="#999999" stroke-dasharray="none" font-family="Arial" font-size="10pt" font-weight="normal" font-style="normal" x="200" y="39.5" width="1" height="41" d="M83.49083000000002 90L101.50907000000001 90"/><g class="vf-stavenote" id="vf-auto1285"><g class="vf-note" pointer-events="bounding-box"><g class="vf-notehead" pointer-events="bounding-box"><path stroke-width="0.3" fill="black" stroke="none" stroke-dasharray="none" font-family="Arial" font-size="10pt" font-weight="normal" font-style="normal" x="200" y="39.5" width="1" height="41" d="M86.49083000000002 90M93.84779000000002 84.77712C93.96011000000001 84.77712,94.12859000000002 84.77712,94.15667000000002 84.77712C94.15667000000002 84.77712,94.18475000000002 84.77712,94.18475000000002 84.77712C94.18475000000002 84.77712,94.35323000000001 84.77712,94.49363000000002 84.77712C97.02083000000002 84.91752,98.50907000000002 86.57424,98.50907000000002 88.65216C98.50907000000002 89.66304,98.17211000000002 90.81432,97.32971000000002 91.90944C95.72915000000002 94.0716,93.11771000000002 95.25096,90.84323000000002 95.25096C89.07419000000002 95.25096,87.55787000000002 94.54896,86.82779000000002 93.11688C86.60315000000001 92.55528,86.49083000000002 92.02176,86.49083000000002 91.43208C86.49083000000002 88.37136,89.91659000000001 84.97368,93.84779000000002 84.77712"/></g><g class="vf-notehead" pointer-events="bounding-box"><path stroke-width="0.3" fill="black" stroke="none" stroke-dasharray="none" font-family="Arial" font-size="10pt" font-weight="normal" font-style="normal" x="200" y="39.5" width="1" height="41" d="M86.49083000000002 70M93.84779000000002 64.77712C93.96011000000001 64.77712,94.12859000000002 64.77712,94.15667000000002 64.77712C94.15667000000002 64.77712,94.18475000000002 64.77712,94.18475000000002 64.77712C94.18475000000002 64.77712,94.35323000000001 64.77712,94.49363000000002 64.77712C97.02083000000002 64.91752,98.50907000000002 66.57424,98.50907000000002 68.65216C98.50907000000002 69.66304,98.17211000000002 70.81432,97.32971000000002 71.90944C95.72915000000002 74.0716,93.11771000000002 75.25096,90.84323000000002 75.25096C89.07419000000002 75.25096,87.55787000000002 74.54896,86.82779000000002 73.11688C86.60315000000001 72.55528,86.49083000000002 72.02176,86.49083000000002 71.43208C86.49083000000002 68.37136,89.91659000000001 64.97368,93.84779000000002 64.77712"/></g></g><g class="vf-modifiers"/></g><path stroke-width="1" fill="none" stroke="#999999" stroke-dasharray="none" font-family="Arial" font-size="10pt" font-weight="normal" font-style="normal" x="200" y="39.5" width="1" height="41" d="M113.39996000000001 90L131.4182 90"/><g class="vf-stavenote" id="vf-auto1297"><g class="vf-note" pointer-events="bounding-box"><g class="vf-notehead" pointer-events="bounding-box"><path stroke-width="0.3" fill="black" stroke="none" stroke-dasharray="none" font-family="Arial" font-size="10pt" font-weight="normal" font-style="normal" x="200" y="39.5" width="1" height="41" d="M116.39996000000001 90M123.75692000000001 84.77712C123.86924 84.77712,124.03772000000001 84.77712,124.06580000000001 84.77712C124.06580000000001 84.77712,124.09388000000001 84.77712,124.09388000000001 84.77712C124.09388000000001 84.77712,124.26236 84.77712,124.40276 84.77712C126.92996000000001 84.91752,128.4182 86.57424,128.4182 88.65216C128.4182 89.66304,128.08124 90.81432,127.23884000000001 91.90944C125.63828000000001 94.0716,123.02684 95.25096,120.75236000000001 95.25096C118.98332 95.25096,117.46700000000001 94.54896,116.73692000000001 93.11688C116.51228 92.55528,116.39996000000001 92.02176,116.39996000000001 91.43208C116.39996000000001 88.37136,119.82572 84.97368,123.75692000000001 84.77712"/></g><g class="vf-notehead" pointer-events="bounding-box"><path stroke-width="0.3" fill="black" stroke="none" stroke-dasharray="none" font-family="Arial" font-size="10pt" font-weight="normal" font-style="normal" x="200" y="39.5" width="1" height="41" d="M116.39996000000001 70M123.75692000000001 64.77712C123.86924 64.77712,124.03772000000001 64.77712,124.06580000000001 64.77712C124.06580000000001 64.77712,124.09388000000001 64.77712,124.09388000000001 64.77712C124.09388000000001 64.77712,124.26236 64.77712,124.40276 64.77712C126.92996000000001 64.91752,128.4182 66.57424,128.4182 68.65216C128.4182 69.66304,128.08124 70.81432,127.23884000000001 71.90944C125.63828000000001 74.0716,123.02684 75.25096,120.75236000000001 75.25096C118.98332 75.25096,117.46700000000001 74.54896,116.73692000000001 73.11688C116.51228 72.55528,116.39996000000001 72.02176,116.39996000000001 71.43208C116.39996000000001 68.37136,119.82572 64.97368,123.75692000000001 64.77712"/></g></g><g class="vf-modifiers"/></g><path stroke-width="1" fill="none" stroke="#999999" stroke-dasharray="none" font-family="Arial" font-size="10pt" font-weight="normal" font-style="normal" x="200" y="39.5" width="1" height="41" d="M155.19998 90L173.21822 90"/><g class="vf-stavenote" id="vf-auto1308"><g class="vf-note" pointer-events="bounding-box"><g class="vf-notehead" pointer-events="bounding-box"><path stroke-width="0.3" fill="black" stroke="none" stroke-dasharray="none" font-family="Arial" font-size="10pt" font-weight="normal" font-style="normal" x="200" y="39.5" width="1" height="41" d="M158.19998 90M165.55694 84.77712C165.66926 84.77712,165.83774 84.77712,165.86582 84.77712C165.86582 84.77712,165.8939 84.77712,165.8939 84.77712C165.8939 84.77712,166.06238000000002 84.77712,166.20278000000002 84.77712C168.72998 84.91752,170.21822 86.57424,170.21822 88.65216C170.21822 89.66304,169.88126 90.81432,169.03886 91.90944C167.4383 94.0716,164.82686 95.25096,162.55238 95.25096C160.78334 95.25096,159.26702 94.54896,158.53694000000002 93.11688C158.31230000000002 92.55528,158.19998 92.02176,158.19998 91.43208C158.19998 88.37136,161.62574 84.97368,165.55694 84.77712"/></g><g class="vf-notehead" pointer-events="bounding-box"><path stroke-width="0.3" fill="black" stroke="none" stroke-dasharray="none" font-family="Arial" font-size="10pt" font-weight="normal" font-style="normal" x="200" y="39.5" width="1" height="41" d="M158.19998 70M165.55694 64.77712C165.66926 64.77712,165.83774 64.77712,165.86582 64.77712C165.86582 64.77712,165.8939 64.77712,165.8939 64.77712C165.8939 64.77712,166.06238000000002 64.77712,166.20278000000002 64.77712C168.72998 64.91752,170.21822 66.57424,170.21822 68.65216C170.21822 69.66304,169.88126 70.81432,169.03886 71.90944C167.4383 74.0716,164.82686 75.25096,162.55238 75.25096C160.78334 75.25096,159.26702 74.54896,158.53694000000002 73.11688C158.31230000000002 72.55528,158.19998 72.02176,158.19998 71.43208C158.19998 68.37136,161.62574 64.97368,165.55694 64.77712"/></g></g><g class="vf-modifiers"/></g><path stroke-width="1.5" fill="none" stroke="black" stroke-dasharray="none" font-family="Arial" font-size="10pt" font-weight="normal" font-style="normal" x="200" y="39.5" width="1" height="41" d="M67.84994 90L67.84994 35.75"/><path stroke-width="1.5" fill="none" stroke="black" stroke-dasharray="none" font-family="Arial" font-size="10pt" font-weight="normal" font-style="normal" x="200" y="39.5" width="1" height="41" d="M97.75907000000002 90L97.75907000000002 35.75"/><path stroke-width="0.3" fill="black" stroke="none" stroke-dasharray="none" font-family="Arial" font-size="10pt" font-weight="normal" font-style="normal" x="200" y="39.5" width="1" height="41" d="M67.09994 35L67.09994 40L98.00907000000002 40L98.00907000000002 35Z"/><path stroke-width="0.3" fill="black" stroke="none" stroke-dasharray="none" font-family="Arial" font-size="10pt" font-weight="normal" font-style="normal" x="200" y="39.5" width="1" height="41" d="M67.09994 42.5L67.09994 47.5L98.00907000000002 47.5L98.00907000000002 42.5Z"/><path stroke-width="1.5" fill="none" stroke="black" stroke-dasharray="none" font-family="Arial" font-size="10pt" font-weight="normal" font-style="normal" x="200" y="39.5" width="1" height="41" d="M127.66820000000001 90L127.66820000000001 35.75"/><path stroke-width="1.5" fill="none" stroke="black" stroke-dasharray="none" font-family="Arial" font-size="10pt" font-weight="normal" font-style="normal" x="200" y="39.5" width="1" height="41" d="M169.46822 90L169.46822 35.75"/><path stroke-width="0.3" fill="black" stroke="none" stroke-dasharray="none" font-family="Arial" font-size="10pt" font-weight="normal" font-style="normal" x="200" y="39.5" width="1" height="41" d="M126.91820000000001 35L126.91820000000001 40L169.71822 40L169.71822 35Z"/></svg>