<?xml version="1.0" standalone="no"?><!DOCTYPE svg PUBLIC "-//W3C//DTD SVG 1.1//EN" "http://www.w3.org/Graphics/SVG/1.1/DTD/svg11.dtd"><svg width="200" height="100" version="1.1" xmlns="http://www.w3.org/2000/svg" xmlns:xlink="http://www.w3.org/1999/xlink"><defs xmlns="http://www.w3.org/1999/xhtml"><style type="text/css"><![CDATA[
#playPause { width: 100px; height: 50px; text-align: center; display: block; margin: 20px auto 0px; cursor: pointer; }]]></style></defs><path stroke-width="1" fill="none" stroke="#999999" stroke-dasharray="none" font-family="Arial" font-size="10pt" font-weight="normal" font-style="normal" d="M0 40L200 40"/><path stroke-width="1" fill="none" stroke="#999999" stroke-dasharray="none" font-family="Arial" font-size="10pt" font-weight="normal" font-style="normal" d="M0 50L200 50"/><path stroke-width="1" fill="none" stroke="#999999" stroke-dasharray="none" font-family="Arial" font-size="10pt" font-weight="normal" font-style="normal" d="M0 60L200 60"/><path stroke-width="1" fill="none" stroke="#999999" stroke-dasharray="none" font-family="Arial" font-size="10pt" font-weight="normal" font-style="normal" d="M0 70L200 70"/><path stroke-width="1" fill="none" stroke="#999999" stroke-dasharray="none" font-family="Arial" font-size="10pt" font-weight="normal" font-style="normal" d="M0 80L200 80"/><g class="vf-stavenote" id="vf-auto1268"><g class="vf-note" pointer-events="bounding-box"><g class="vf-notehead" pointer-events="bounding-box"><path stroke-width="0.3" fill="black" stroke="none" stroke-dasharray="none" font-family="Arial" font-size="10pt" font-weight="normal" font-style="normal" x="200" y="39.5" width="1" height="41" d="M17 80M19.47104 71.51984C19.61144 71.51984,19.75184 71.49176,19.89224 71.49176C21.18392 71.49176,22.36328 72.4184,22.672159999999998 73.71008C22.72832 73.93472,22.7564 74.15935999999999,22.7564 74.41208C22.7564 75.14216,22.50368 75.87224,21.99824 76.37768L21.914 76.46192L22.11056 76.43384C23.62688 76.01264,24.97472 74.6648,25.62056 73.00808C25.64864 72.86768000000001,25.73288 72.75536,25.78904 72.72728C25.90136 72.5588,26.06984 72.50264,26.23832 72.50264C26.5472 72.50264,26.79992 72.72728,26.79992 73.06424C26.79992 73.20464,22.72832 87.24464,22.64408 87.38504C22.53176 87.5816,22.3352 87.66584,22.11056 87.66584C21.88592 87.66584,21.66128 87.55352,21.57704 87.3008C21.52088 87.27272,21.52088 87.24464,21.52088 87.18848C21.52088 86.96384,21.773600000000002 86.1776,23.09336 81.65672C23.935760000000002 78.79256,24.63776 76.43384,24.63776 76.37768C24.63776 76.37768,24.63776 76.37768,24.63776 76.37768C24.63776 76.37768,24.52544 76.46192,24.41312 76.57424C23.37416 77.36048,22.138640000000002 77.7536,20.9312 77.7536C19.86416 77.7536,18.8252 77.44472,18.01088 76.7708C17.2808 76.18111999999999,17 75.3668,17 74.55248C17 73.14848,17.89856 71.80064,19.47104 71.51984"/></g></g><g class="vf-modifiers"/></g><path stroke-width="1" fill="none" stroke="#999999" stroke-dasharray="none" font-family="Arial" font-size="10pt" font-weight="normal" font-style="normal" x="200" y="39.5" width="1" height="41" d="M51.13172 90L69.14996 90"/><g class="vf-stavenote" id="vf-auto1274"><g class="vf-note" pointer-events="bounding-box"><g class="vf-notehead" pointer-events="bounding-box"><path stroke-width="0.3" fill="black" stroke="none" stroke-dasharray="none" font-family="Arial" font-size="10pt" font-weight="normal" font-style="normal" x="200" y="39.5" width="1" height="41" d="M54.13172 90M61.48868 84.77712C61.601 84.77712,61.76948 84.77712,61.797560000000004 84.77712C61.797560000000004 84.77712,61.82564 84.77712,61.82564 84.77712C61.82564 84.77712,61.99412 84.77712,62.13452 84.77712C64.66172 84.91752,66.14996000000001 86.57424,66.14996000000001 88.65216C66.14996000000001 89.66304,65.813 90.81432,64.9706 91.90944C63.37004 94.0716,60.7586 95.25096,58.484120000000004 95.25096C56.71508 95.25096,55.19876 94.54896,54.46868 93.11688C54.24404 92.55528,54.13172 92.02176,54.13172 91.43208C54.13172 88.37136,57.55748 84.97368,61.48868 84.77712"/></g><g class="vf-notehead" pointer-events="bounding-box"><path stroke-width="0.3" fill="black" stroke="none" stroke-dasharray="none" font-family="Arial" font-size="10pt" font-weight="normal" font-style="normal" x="200" y="39.5" width="1" height="41" d="M54.13172 70M61.48868 64.77712C61.601 64.77712,61.76948 64.77712,61.797560000000004 64.77712C61.797560000000004 64.77712,61.82564 64.77712,61.82564 64.77712C61.82564 64.77712,61.99412 64.77712,62.13452 64.77712C64.66172 64.91752,66.14996000000001 66.57424,66.14996000000001 68.65216C66.14996000000001 69.66304,65.813 70.81432,64.9706 71.90944C63.37004 74.0716,60.7586 75.25096,58.484120000000004 75.25096C56.71508 75.25096,55.19876 74.54896,54.46868 73.11688C54.24404 72.55528,54.13172 72.02176,54.13172 71.43208C54.13172 68.37136,57.55748 64.97368,61.48868 64.77712"/></g></g><g class="vf-modifiers"/></g><path stroke-width="1" fill="none" stroke="#999999" stroke-dasharray="none" font-family="Arial" font-size="10pt" font-weight="normal" font-style="normal" x="200" y="39.5" width="1" height="41" d="M79.81586 90L97.8341 90"/><g class="vf-stavenote" id="vf-auto1285"><g class="vf-note" pointer-events="bounding-box"><g class="vf-notehead" pointer-events="bounding-box"><path stroke-width="0.3" fill="black" stroke="none" stroke-dasharray="none" font-family="Arial" font-size="10pt" font-weight="normal" font-style="normal" x="200" y="39.5" width="1" height="41" d="M82.81586 90M90.17282 84.77712C90.28514 84.77712,90.45362 84.77712,90.4817 84.77712C90.4817 84.77712,90.50978 84.77712,90.50978 84.77712C90.50978 84.77712,90.67826 84.77712,90.81866 84.77712C93.34586 84.91752,94.8341 86.57424,94.8341 88.65216C94.8341 89.66304,94.49714 90.81432,93.65474 91.90944C92.05418 94.0716,89.44274 95.25096,87.16826 95.25096C85.39922 95.25096,83.8829 94.54896,83.15282 93.11688C82.92818 92.55528,82.81586 92.02176,82.81586 91.43208C82.81586 88.37136,86.24162 84.97368,90.17282 84.77712"/></g><g class="vf-notehead" pointer-events="bounding-box"><path stroke-width="0.3" fill="black" stroke="none" stroke-dasharray="none" font-family="Arial" font-size="10pt" font-weight="normal" font-style="normal" x="200" y="39.5" width="1" height="41" d="M82.81586 70M90.17282 64.77712C90.28514 64.77712,90.45362 64.77712,90.4817 64.77712C90.4817 64.77712,90.50978 64.77712,90.50978 64.77712C90.50978 64.77712,90.67826 64.77712,90.81866 64.77712C93.34586 64.91752,94.8341 66.57424,94.8341 68.65216C94.8341 69.66304,94.49714 70.81432,93.65474 71.90944C92.05418 74.0716,89.44274 75.25096,87.16826 75.25096C85.39922 75.25096,83.8829 74.54896,83.15282 73.11688C82.92818 72.55528,82.81586 72.02176,82.81586 71.43208C82.81586 68.37136,86.24162 64.97368,90.17282 64.77712"/></g></g><g class="vf-modifiers"/></g><path stroke-width="1" fill="none" stroke="#999999" stroke-dasharray="none" font-family="Arial" font-size="10pt" font-weight="normal" font-style="normal" x="200" y="39.5" width="1" height="41" d="M108.5 90L126.51823999999999 90"/><g class="vf-stavenote" id="vf-auto1297"><g class="vf-note" pointer-events="bounding-box"><g class="vf-stem" pointer-events="bounding-box"><path stroke-width="1.5" fill="none" stroke="black" stroke-dasharray="none" font-family="Arial" font-size="10pt" font-weight="normal" font-style="normal" x="200" y="39.5" width="1" height="41" d="M122.76824 90L122.76824 35"/></g><g class="vf-notehead" pointer-events="bounding-box"><path stroke-width="0.3" fill="black" stroke="none" stroke-dasharray="none" font-family="Arial" font-size="10pt" font-weight="normal" font-style="normal" x="200" y="39.5" width="1" height="41" d="M111.5 90M118.85696 84.77712C118.96928 84.77712,119.13776 84.77712,119.16584 84.77712C119.16584 84.77712,119.19392 84.77712,119.19392 84.77712C119.19392 84.77712,119.3624 84.77712,119.50280000000001 84.77712C122.03 84.91752,123.51824 86.57424,123.51824 88.65216C123.51824 89.66304,123.18128 90.81432,122.33888 91.90944C120.73832 94.0716,118.12688 95.25096,115.8524 95.25096C114.08336 95.25096,112.56704 94.54896,111.83696 93.11688C111.61232 92.55528,111.5 92.02176,111.5 91.43208C111.5 88.37136,114.92576 84.97368,118.85696 84.77712"/></g><g class="vf-notehead" pointer-events="bounding-box"><path stroke-width="0.3" fill="black" stroke="none" stroke-dasharray="none" font-family="Arial" font-size="10pt" font-weight="normal" font-style="normal" x="200" y="39.5" width="1" height="41" d="M111.5 70M118.85696 64.77712C118.96928 64.77712,119.13776 64.77712,119.16584 64.77712C119.16584 64.77712,119.19392 64.77712,119.19392 64.77712C119.19392 64.77712,119.3624 64.77712,119.50280000000001 64.77712C122.03 64.91752,123.51824 66.57424,123.51824 68.65216C123.51824 69.66304,123.18128 70.81432,122.33888 71.90944C120.73832 74.0716,118.12688 75.25096,115.8524 75.25096C114.08336 75.25096,112.56704 74.54896,111.83696 73.11688C111.61232 72.55528,111.5 72.02176,111.5 71.43208C111.5 68.37136,114.92576 64.97368,118.85696 64.77712"/></g><g class="vf-flag" pointer-events="bounding-box"><path stroke-width="0.3" fill="black" stroke="none" stroke-dasharray="none" font-family="Arial" font-size="10pt" font-weight="normal" font-style="normal" x="200" y="39.5" width="1" height="41" d="M122.76824 33M122.09432000000001 37.52088L122.09432000000001 33.1404L122.20664000000001 33.1404C122.51552000000001 33.1404,122.71208 33.33696,122.76824 33.67392C123.35792000000001 36.48192,125.12696000000001 39.54264,127.56992000000001 41.8452C130.29368 44.40048,131.6696 47.91048,131.6696 51.5328C131.6696 54.958560000000006,130.46216 58.52472,128.0192 61.47312C127.59800000000001 62.03472,127.56992000000001 62.03472,127.28912000000001 62.03472C126.95216 62.03472,126.72752000000001 61.782,126.72752000000001 61.445040000000006C126.72752000000001 61.19232,126.7556 61.136160000000004,127.0364 60.82728C129.17048 58.24392,130.23752000000002 55.12704,130.23752000000002 52.15056C130.23752000000002 49.51104,129.39512000000002 46.98384,127.65416 45.0744C126.58712 43.89504,124.62152 42.77184,122.1224 41.90136C122.1224 41.87328,122.09432000000001 41.0028,122.09432000000001 37.52088"/></g></g><g class="vf-modifiers"/></g><g class="vf-stavenote" id="vf-auto1308"><g class="vf-note" pointer-events="bounding-box"><g class="vf-notehead" pointer-events="bounding-box"><path stroke-width="0.3" fill="black" stroke="none" stroke-dasharray="none" font-family="Arial" font-size="10pt" font-weight="normal" font-style="normal" x="200" y="39.5" width="1" height="41" d="M162.86828 80M165.33932 71.51984C165.47972 71.51984,165.62012 71.49176,165.76051999999999 71.49176C167.0522 71.49176,168.23156 72.4184,168.54044 73.71008C168.5966 73.93472,168.62468 74.15935999999999,168.62468 74.41208C168.62468 75.14216,168.37196 75.87224,167.86652 76.37768L167.78228 76.46192L167.97884 76.43384C169.49516 76.01264,170.843 74.6648,171.48884 73.00808C171.51692 72.86768000000001,171.60116 72.75536,171.65732 72.72728C171.76964 72.5588,171.93812 72.50264,172.1066 72.50264C172.41548 72.50264,172.6682 72.72728,172.6682 73.06424C172.6682 73.20464,168.5966 87.24464,168.51236 87.38504C168.40004 87.5816,168.20348 87.66584,167.97884 87.66584C167.7542 87.66584,167.52956 87.55352,167.44532 87.3008C167.38916 87.27272,167.38916 87.24464,167.38916 87.18848C167.38916 86.96384,167.64188 86.1776,168.96164 81.65672C169.80404 78.79256,170.50603999999998 76.43384,170.50603999999998 76.37768C170.50603999999998 76.37768,170.50603999999998 76.37768,170.50603999999998 76.37768C170.50603999999998 76.37768,170.39372 76.46192,170.2814 76.57424C169.24244 77.36048,168.00692 77.7536,166.79948 77.7536C165.73244 77.7536,164.69348 77.44472,163.87915999999998 76.7708C163.14908 76.18111999999999,162.86828 75.3668,162.86828 74.55248C162.86828 73.14848,163.76684 71.80064,165.33932 71.51984"/></g></g><g class="vf-modifiers"/></g><path stroke-width="1.5" fill="none" stroke="black" stroke-dasharray="none" font-family="Arial" font-size="10pt" font-weight="normal" font-style="normal" x="200" y="39.5" width="1" height="41" d="M65.39996000000001 90L65.39996000000001 35.75"/><path stroke-width="1.5" fill="none" stroke="black" stroke-dasharray="none" font-family="Arial" font-size="10pt" font-weight="normal" font-style="normal" x="200" y="39.5" width="1" height="41" d="M94.0841 90L94.0841 35.75"/><path stroke-width="0.3" fill="black" stroke="none" stroke-dasharray="none" font-family="Arial" font-size="10pt" font-weight="normal" font-style="normal" x="200" y="39.5" width="1" height="41" d="M64.64996000000001 35L64.64996000000001 40L94.3341 40L94.3341 35Z"/><path stroke-width="0.3" fill="black" stroke="none" stroke-dasharray="none" font-family="Arial" font-size="10pt" font-weight="normal" font-style="normal" x="200" y="39.5" width="1" height="41" d="M64.64996000000001 42.5L64.64996000000001 47.5L94.3341 47.5L94.3341 42.5Z"/></svg>